<?xml version="1.0" encoding="utf-8"?>
<!-- Generator: Adobe Illustrator 25.2.3, SVG Export Plug-In . SVG Version: 6.00 Build 0)  -->
<svg version="1.1" id="Capa_1" xmlns="http://www.w3.org/2000/svg" xmlns:xlink="http://www.w3.org/1999/xlink" x="0px" y="0px"
	 viewBox="0 0 1440 351" style="enable-background:new 0 0 1440 351;" xml:space="preserve">
<style type="text/css">
	.st0{fill:#FFFFFF;}
	.st1{fill-rule:evenodd;clip-rule:evenodd;fill:#BDE1DE;}
</style>
<path class="st0" d="M-720,1244.4c0,0,451.1-184.6,937.5-76.6c314.8,69.9,696.3,228.8,943.7,312.5c0,0,265,50,444.3,44.3
	c0,0,490.2-44.3,554.6-81v81H-720V1244.4z"/>
<path class="st1" d="M0,0l60,21.6c60,21.6,180,64.9,300,79.3c120,14.4,240,0,360-21.6c120-21.6,240-50.5,360-36s240,72.1,300,100.9
	l60,28.8v178c-60,0-240,0-360,0s-240,0-360,0s-240,0-360,0s-229,0-289,0H0V0z"/>
</svg>
