<?xml version="1.0" encoding="utf-8"?>
<!-- Generator: Adobe Illustrator 25.2.3, SVG Export Plug-In . SVG Version: 6.00 Build 0)  -->
<svg version="1.1" id="Capa_1" xmlns="http://www.w3.org/2000/svg" xmlns:xlink="http://www.w3.org/1999/xlink" x="0px" y="0px"
	 viewBox="0 0 370 365" style="enable-background:new 0 0 370 365;" xml:space="preserve">
<style type="text/css">
	.st0{fill:#FFA099;}
	.st1{fill:none;stroke:#000000;stroke-linecap:round;stroke-miterlimit:10;}
	.st2{fill:#F2F2F2;}
	.st3{fill:#FFFFFF;}
</style>
<g>
	<path class="st0" d="M-1014.5,158.8c0,0,8.8-52.5,61.2-47.9c19.7,1.7,37.9,11,51.4,25.4c26.6,28.3,61.2,90.8-14.6,186.5
		c0,0-175.1,39-180.9-106.7c-0.5-13.1,2.9-26.1,10.3-36.9C-1076.6,163.5-1055.5,148.3-1014.5,158.8z"/>
	<path d="M-977,201.3c0,0,8.8-9.6-21.2-27.6c-2.3-1.4-1.7-4.9,1-5.4c3.2-0.6,7.6-1.2,13.2-2c0,0,6.4-22.7,25-27c0,0,0.1,0.1,0,0
		c-0.6-0.6-2.6-2.9-6.2-11c-0.9-2.1,0.7-4.4,3-4.1c9.8,1.1,32.3,5.6,50.2,23.1c23.7,23.1,44,81,7,134c0,0-16,19-50.1,30.5
		c0,0-36.1,10.9-63.9-5.5c-27.6-16.2-43.8-58.2-23.1-87.8c9.3-13.2,24.4-21,40.6-22C-993.4,196-984.1,196.8-977,201.3z"/>
	<ellipse transform="matrix(0.7378 -0.675 0.675 0.7378 -362.898 -594.7446)" class="st0" cx="-947" cy="169.8" rx="3" ry="1.5"/>
	<g>
		<path class="st1" d="M-952.4,181.7c2.5,2.5,6.6,2.4,9.1-0.1"/>
		<path class="st1" d="M-943.5,172.6c2.5,2.5,2.6,6.5,0.1,9.1"/>
	</g>
	<g>
		<path class="st1" d="M-943.2,172.5c2.5,2.5,6.6,2.4,9.1-0.1"/>
		<path class="st1" d="M-934.3,163.4c2.5,2.5,2.6,6.5,0.1,9.1"/>
	</g>
	<g>
		<path class="st2" d="M-944.1,162.1c0,0-7.6-10.8,3.6-13.2c0.4-0.1,0.7,0,1.1,0.1c1.1,0.5,3.5,1.9,3.1,6c0,0.3-0.2,0.6-0.4,0.8
			L-944.1,162.1z"/>
		
			<ellipse transform="matrix(8.818915e-02 -0.9961 0.9961 8.818915e-02 -1013.1383 -796.0246)" cx="-941.4" cy="155.4" rx="3.5" ry="3.5"/>
		
			<ellipse transform="matrix(1 -9.940756e-03 9.940756e-03 1 -1.5846 -9.378)" class="st3" cx="-944.2" cy="154.7" rx="1.3" ry="1"/>
	</g>
	<g>
		<path class="st2" d="M-955.8,173.8c0,0-10.9-8.2-13.5,3.6c0,0,0.7,4.2,6.1,3.9c0.3,0,0.6-0.2,0.8-0.4L-955.8,173.8z"/>
		<path d="M-965.7,177.9c1.2,2.2,4.2,2.5,5.9,0.6c0.9-1.1,1.1-2.6,0.4-3.9c-1.2-2.2-4.2-2.5-5.9-0.6
			C-966.2,175.1-966.3,176.7-965.7,177.9z"/>
		
			<ellipse transform="matrix(4.413759e-02 -0.999 0.999 4.413759e-02 -1093.9253 -796.3632)" class="st3" cx="-963.1" cy="173.5" rx="1.3" ry="1"/>
	</g>
	
		<ellipse transform="matrix(0.6288 -0.7776 0.7776 0.6288 -543.4479 -811.0705)" class="st0" cx="-1121.2" cy="163.6" rx="21.9" ry="28.2"/>
	
		<ellipse transform="matrix(0.8183 -0.5748 0.5748 0.8183 -260.3348 -606.0423)" class="st0" cx="-1088.6" cy="108.7" rx="27.5" ry="40"/>
	
		<ellipse transform="matrix(0.9803 -0.1977 0.1977 0.9803 -32.8512 -189.8001)" class="st0" cx="-967.2" cy="69.7" rx="21.9" ry="28.2"/>
	<path d="M-1038,295.3c0,0-51.9-29.4-39-94c2-10,12-21.8,22.6-27.5c9.2-5,26.1-2.9,31.7,3.8c4,4.8,4.4,11.9-0.4,16
		c-2.6,2.2-7,4.8-12.5,1.8c-4.7-2.5-17.7-5.5-22.3,6.5c-4.3,11-5.4,32,6.6,57c1,2,3.7,3.2,5,5.3L-1038,295.3z"/>
	<path d="M-1059,274c0,0,18.3,29.6,61.2,39.9l-6.2-61.6l-44.6,9.4L-1059,274z"/>
	<g>
		<path d="M-934.3,94.8c-1.7-0.9-2.6-2.8-2.4-4.7c0-0.3,0.1-0.6,0.2-1c0.1-0.5,0.3-0.9,0.5-1.3c1.2-2.4,3-4.4,5.5-5.7l0.6-0.3
			c-0.2-0.4-0.5-0.6-0.7-0.8c-1-1.2-1.4-2.6-1-4c0.1-0.3,0.2-0.6,0.4-1c1-1.9,2.4-3.4,4.3-4.5l0.2-0.1c1.1-0.6,2.1-0.7,3-0.4
			c1.5,0.4,2.5,1.8,2.8,3.5c0,0.3,0,0.6,0,0.8c-0.2,0.6-0.6,1-1.2,1.2c-0.3,0.1-0.6,0.1-0.9,0c-0.5-0.1-1-0.5-1.2-1.1
			c-0.2-0.4-0.3-0.6-0.4-0.7c-0.1,0-0.3,0.1-0.7,0.4c-0.8,0.6-1.5,1.4-2,2.2c-0.1,0.2-0.2,0.3-0.2,0.4c-0.1,0.3,0,0.4,0.3,0.7
			c0.4,0.4,0.8,0.7,1.2,1.1c0.4,0.4,0.8,0.8,1.1,1.2c0.4,0.7,0.5,1.4,0.4,2c-0.2,0.6-0.6,1.2-1.4,1.6c-0.4,0.2-1,0.4-1.4,0.6
			c-2.1,0.8-3.7,2.2-4.7,4.2c-0.2,0.3-0.3,0.6-0.4,1c-0.2,0.7-0.1,1,0.5,1.1l0.3,0.1c1.2,0.2,2.5,0,3.8-0.2c0.7-0.1,1.4-0.3,2-0.4
			c0.3,0,0.6,0,0.9,0c0.9,0.2,1.5,1.1,1.4,2.1c0,0.1,0,0.3-0.1,0.4c-0.2,0.6-0.6,1.1-1.3,1.3c-2.3,0.7-4.6,1.1-7,0.9
			c-0.3,0-0.7-0.1-1-0.2C-933.5,95.2-933.9,95-934.3,94.8z"/>
		<path d="M-921.9,102.8c-0.8-0.5-1.3-1.3-1.5-2.2c-0.3-1.2-0.1-2.3,0.1-3.5c0.3-1.5,0.7-2.9,1.2-4.3c0.4-1,0.7-2,1.1-3
			c1.7-4.5,3.9-8.7,6.5-12.8c0.2-0.3,0.4-0.6,0.7-0.9c0.5-0.6,1.2-0.8,2-0.6l0.4,0.1c0.9,0.3,1.3,1.3,1,2.1
			c-0.1,0.2-0.2,0.3-0.3,0.5c-0.7,0.8-1.2,1.7-1.6,2.6c-1.8,3.5-3.6,7-5,10.6l-0.6,1.7c-0.6,1.6-1.1,3.2-1.4,4.9
			c-0.1,0.4-0.1,0.8-0.1,1.1c0,0.1,0.1,0.3,0.2,0.3c0,0,0.1,0,0.2,0c0.6,0,1.1,0,1.5,0.2c0.3,0.1,0.6,0.3,0.8,0.6
			c0.4,0.5,0.4,1.1,0.2,1.7c-0.1,0.2-0.2,0.5-0.4,0.7c-0.1,0.1-0.2,0.3-0.4,0.4c-1.1,0.7-2.2,0.7-3.7,0.1l-0.3-0.1
			C-921.5,103-921.7,102.9-921.9,102.8z"/>
		<path d="M-909.6,105.9c-0.1-0.6,0-1.2,0.3-1.8c0.6-1.7,1.5-3.2,2.4-4.7l0.6-0.8l0.6-0.8c0.2-0.4,0.4-0.8,0.5-1.3
			c0-0.2,0.1-0.3,0.2-0.4c0.2-0.3,0.5-0.5,0.8-0.6c0.4-0.1,0.7-0.4,1-0.7c1.7-1.9,3.6-3.8,5.6-5.3c1.2-0.9,2.4-1.6,3.7-2.2
			c0.7-0.3,1.4-0.5,2.1-0.6c0.8-0.1,1.6,0.1,2.2,0.5c0.8,0.5,1.3,1.4,1.5,2.5c0.1,1.1-0.1,2.2-0.5,3.2c-0.6,1.7-1.6,3.2-2.6,4.8
			l-0.3,0.5c-0.3,0.5-0.6,1-0.8,1.6c0,0.1-0.1,0.3-0.2,0.4c-0.1,0.1-0.2,0.2-0.3,0.3c-0.4,0.2-0.6,0.6-0.8,0.9l-0.3,0.5
			c-1.5,2.4-3,4.8-4.2,7.3l-0.2,0.3c-0.6,1-1.7,1.2-2.6,0.7c-0.1-0.1-0.2-0.2-0.4-0.3c-0.6-0.7-0.8-1.5-0.5-2.3
			c0.3-0.9,0.7-1.6,1.1-2.4c0.7-1.3,1.5-2.5,2.3-3.9c-1.4-0.3-2.6-0.6-3.8-1.1c-0.2-0.1-0.4,0-0.5,0.2c-0.6,0.8-1.3,1.7-1.8,2.6
			c-0.4,0.7-0.8,1.4-1.2,2.1c-0.1,0.2-0.1,0.4-0.1,0.7c0,0.5-0.1,0.9-0.3,1.3c-0.3,0.4-0.7,0.7-1.3,0.7c-0.5,0-0.9-0.1-1.3-0.3
			C-909.2,107-909.5,106.5-909.6,105.9z M-896.5,97.5c0.4,0,0.7-0.1,0.9-0.5l0-0.1c0.8-1.3,1.6-2.5,2.3-3.9c0.3-0.6,0.7-1.2,0.8-2.1
			c-3.1,1.5-5.3,3.7-7.5,6.1C-898.7,97.3-897.6,97.4-896.5,97.5z"/>
		<path d="M-897.2,117.8c-0.6-0.7-0.9-1.6-0.8-2.6c0.1-1.2,0.6-2.3,1.1-3.3c0.7-1.3,1.6-2.6,2.5-3.8c0.6-0.9,1.3-1.7,2-2.5
			c3-3.7,6.4-7.1,10.2-10.1c0.3-0.2,0.6-0.5,0.9-0.6c0.7-0.4,1.4-0.4,2.1,0l0.3,0.2c0.7,0.6,0.8,1.7,0.3,2.4
			c-0.1,0.1-0.3,0.3-0.4,0.4c-0.9,0.5-1.6,1.2-2.4,2c-2.8,2.8-5.6,5.5-8.1,8.5l-1.1,1.5c-1,1.4-2,2.7-2.8,4.2
			c-0.2,0.4-0.4,0.7-0.4,1c0,0.1,0,0.3,0.1,0.4c0,0,0.1,0.1,0.2,0c0.5,0.1,1,0.3,1.4,0.6c0.3,0.2,0.5,0.5,0.6,0.8
			c0.2,0.6,0,1.2-0.4,1.7c-0.2,0.2-0.4,0.4-0.6,0.5c-0.1,0.1-0.3,0.2-0.4,0.2c-1.2,0.4-2.3,0-3.6-1l-0.2-0.2
			C-896.9,118-897.1,117.9-897.2,117.8z"/>
		<path d="M-885.8,130.8c0.1-0.6,0.4-1.1,0.8-1.5l0.2-0.2c2.4-1.9,4.8-3.8,7.3-5.7c2.8-2.2,5.7-4.3,8.5-6.6l0.1-0.1
			c0.1-0.1,0.1-0.1,0.1-0.2c-0.2-0.1-0.4,0-0.6,0.1c-2.9,1.1-5.7,2.5-8.4,4.2c-0.5,0.3-1.1,0.7-1.7,0.8c-0.8,0.1-1.5,0-2-0.6
			l-0.2-0.3c-0.5-0.7-0.4-1.6,0.1-2.3c0.4-0.5,0.8-1,1.3-1.4l3-2.8c-0.5-0.1-0.8,0.1-1.1,0.2c-2,0.9-3.9,2-5.8,3.2
			c-0.6,0.4-1.3,0.8-2,1.1c-0.5,0.2-1,0.3-1.6,0.2c-0.5-0.1-1-0.4-1.3-0.7c-0.5-0.6-0.7-1.3-0.4-2.2c0.2-0.8,0.7-1.4,1.2-2.1
			c1.6-2.2,3.5-4.2,5.5-6c0.5-0.5,1.1-0.9,1.8-1.2c0.9-0.4,1.7-0.2,2.3,0.4c0.1,0.2,0.3,0.3,0.4,0.5c0.4,0.7,0.2,1.6-0.3,2.1
			c-0.2,0.2-0.4,0.3-0.6,0.4c-0.4,0.1-0.5,0.2-0.7,0.3c-0.1,0.1-0.2,0.2-0.3,0.5l1.9-0.7c0.9-0.3,1.9-0.6,2.8-0.8
			c0.6-0.1,1.3-0.1,1.9,0c0.6,0.1,1.1,0.4,1.5,0.8c0.5,0.5,0.7,1.2,0.7,2.1l-0.1,0.7c0.3,0.2,0.6-0.1,0.8-0.2c1.5-0.6,3-1,4.5-1.4
			c0.6-0.2,1.3-0.3,2-0.3c0.8,0,1.5,0.4,2,0.9c0.6,0.7,0.8,1.8,0.4,2.9c-0.4,1-1.2,1.8-2,2.6l-1.1,1c-1.2,1.1-2.5,2.1-3.8,3.1
			c-4.3,3.4-8.7,6.6-12.9,10.1c-0.4,0.3-0.7,0.6-1.1,0.8c-0.5,0.4-1.2,0.5-1.8,0.4c-0.3-0.1-0.6-0.3-0.8-0.5
			C-885.7,131.9-885.9,131.4-885.8,130.8z"/>
		<path d="M-873,140c0-0.7,0.3-1.2,0.7-1.7c0.6-0.8,1.2-1.6,1.8-2.4c0.2-0.3,0.3-0.4,0.2-0.6c0-0.1-0.2-0.2-0.4-0.3
			c-0.8-0.4-1.6-1-2.4-1.6c-0.3-0.3-0.6-0.6-0.9-0.9c-0.8-1.1-0.9-2.4-0.4-3.6c0.3-0.7,0.7-1.3,1.3-1.7c0.3-0.3,0.7-0.5,1.2-0.6
			c2.8-0.9,5,0,6.2,1.7c0.7,1,1.1,2.3,1.1,3.6c0,0.4,0,0.9-0.1,1.5l0.6-0.4c0.7-0.5,1.3-1,1.9-1.5c1.1-0.9,2.1-1.9,2.8-3.1
			c0.2-0.3,0.4-0.6,0.5-0.9c0.2-0.4,0.2-0.8-0.1-1.2l-0.1-0.1c-0.2-0.2-0.4-0.5-0.6-0.7l-0.1-0.1c-0.6-0.8-0.5-1.7,0.1-2.4
			c0.1-0.1,0.2-0.2,0.3-0.2c0.6-0.4,1.5-0.4,2.2,0.1c0.6,0.5,1.1,0.9,1.5,1.5c0.9,1.3,1.2,2.8,0.4,4.8c-0.6,1.5-1.6,2.7-2.6,3.8
			c-1.1,1.2-2.4,2.3-3.7,3.3c-0.7,0.5-1.4,1.1-2.2,1.6c-1.9,1.4-3.8,2.6-5.8,3.8c-0.2,0.1-0.5,0.3-0.8,0.4c-0.9,0.2-1.7-0.1-2.1-0.7
			C-872.9,141-873.1,140.5-873,140z M-868.6,131.5c-0.1-0.4-0.2-0.6-0.3-0.8c-0.3-0.4-0.7-0.4-1.3-0.2
			C-869.7,131.1-869.3,131.3-868.6,131.5z"/>
		<path d="M-867.8,143.9c0.6-0.8,1.4-1.5,2.2-2.1c0.7-0.6,1.5-1,2.2-1.5c1.8-1,3.7-1.9,5.6-2.6c1.6-0.6,3.2-1.1,4.8-1.3
			c0.9-0.1,1.8-0.2,2.8-0.1c1.2,0.2,2,0.7,2.4,1.5s0.5,1.7,0.1,2.8c-0.5,1.3-1.3,2.3-2.4,2.9c-0.7,0.4-1.4,0.7-2.2,0.8
			c-0.8,0.2-1.5-0.2-1.8-0.8l-0.2-0.4c-0.3-0.8,0.1-1.6,0.8-2.1c0.3-0.2,0.7-0.3,1.1-0.5l0.3-0.2c-1.6-0.2-6.2,1.5-9.3,3.4
			c-1.1,0.7-2.1,1.4-2.6,2c0.8,0.3,1.6,0.4,2.5,0.4c0.4,0,0.7,0,1.1,0.1c0.5,0.1,1,0.5,1.2,0.9c0.1,0.2,0.2,0.5,0.3,0.8
			c0.1,0.7-0.3,1.4-1,1.8c-0.1,0.1-0.2,0.1-0.3,0.2c-0.5,0.2-1,0.2-1.5,0.2c-1.6-0.1-3.2-0.4-4.6-1c-0.9-0.4-1.5-0.9-1.8-1.5
			C-868.8,146.6-868.7,145.2-867.8,143.9z"/>
		<path d="M-861.5,157.8c-0.5-1.1-0.2-2.3,0.3-3.3c0.5-0.9,1.2-1.7,2-2.4c1.6-1.5,3.4-2.6,5.4-3.6l0.2-0.1c1.7-0.8,3.5-1.4,5.4-1.6
			c1-0.1,2-0.1,3,0.2c0.8,0.2,1.5,0.6,2,1.2c0.3,0.3,0.4,0.6,0.6,0.9c0.3,0.6,0.4,1.2,0.3,1.9c-0.2,1.6-1.8,3.5-3.4,4.3
			c-0.4,0.2-0.8,0.3-1.2,0.4c-2,0.3-4.8-0.8-5.7-2.6l-0.1-0.3c-0.1-0.2-0.2-0.2-0.4-0.2l-0.1,0c-1.5,0.9-3,1.8-4.1,3.1
			c-0.3,0.4-0.5,0.6-0.3,0.8c0.1,0.1,0.2,0.3,0.4,0.4c0.3,0.3,0.7,0.6,1.1,0.8c0.3,0.2,0.7,0.3,0.9,0.6c0.2,0.2,0.3,0.4,0.5,0.6
			c0.4,0.9,0.1,1.9-0.9,2.4l0,0c-0.7,0.3-1.4,0.3-2,0c-1.6-0.7-2.9-1.8-3.6-3.3L-861.5,157.8z M-849.1,151.6
			c0.6,0.4,1.1,0.4,1.6,0.2c0.3-0.2,0.6-0.5,0.9-0.9c-0.9-0.2-1.7-0.1-2.5,0.2l-0.1,0c-0.1,0.1-0.2,0.2-0.1,0.3
			C-849.3,151.4-849.2,151.5-849.1,151.6z M-842.4,148.8c-0.4-0.8-0.2-1.8,0.6-2.4c0.2-0.1,0.4-0.2,0.6-0.4c1.6-0.5,3.3-0.9,5-1.1
			c0.8,0,1.4,0.3,1.7,0.9c0.1,0.2,0.1,0.3,0.1,0.5c0.1,0.8-0.2,1.5-1,1.8l-0.3,0.1c-1,0.3-2.1,0.5-3.1,0.9c-0.4,0.1-0.8,0.3-1.1,0.4
			c-1,0.4-2,0.1-2.5-0.7L-842.4,148.8z"/>
		<path d="M-856,174c-0.1-0.8,0.4-1.5,1.3-1.9c0.3-0.1,0.7-0.2,1.1-0.3c3.5-1,6.9-2.1,10.3-3.3l2.5-0.9c0.3-0.1,0.5-0.2,0.7-0.5
			c-0.7-0.2-1.4-0.2-2.2-0.3c-3.6-0.1-7.2,0.3-10.7,0.9c-0.5,0.1-0.9,0.2-1.4,0.2c-1.1,0.1-2-0.5-2.4-1.5l0,0
			c-0.3-0.9,0-1.8,0.9-2.4c1.1-0.7,2.2-1.3,3.4-1.9c2.1-1.1,4.3-1.9,6.5-2.8l0.2-0.1c0.4-0.1,0.8-0.2,1.3-0.2
			c0.7,0.1,1.2,0.4,1.5,1.1l0,0.1c0.2,0.7,0.1,1.3-0.4,1.8c-0.2,0.3-0.5,0.5-0.8,0.8l1,0c1.8,0,3.6,0.1,5.4,0.6
			c0.7,0.2,1.4,0.4,2.1,0.9c0.6,0.4,1,0.9,1.2,1.5c0.3,0.9,0.1,1.9-0.6,2.8c-0.5,0.6-1.1,1-1.7,1.4c-0.9,0.6-1.9,1-2.9,1.4l-2.4,0.9
			c-3.4,1.2-6.8,2.3-10.3,3.3c-0.7,0.2-1.4,0.3-2.1,0.1c-0.7-0.2-1.2-0.6-1.4-1.2C-856,174.4-856,174.2-856,174z"/>
		<path d="M-855.7,197.4c0.3-0.1,0.5-0.2,0.8-0.3c2.7-0.7,5.4-1.3,8.1-1.8l1.3-0.2c0.1,0,0.3,0,0.5-0.2c-0.5-0.3-0.7-0.7-1-1.2
			c-0.1-0.2-0.4-0.3-0.6-0.4c-1.3-0.7-2.4-1.7-3.2-2.8c-0.4-0.6-0.7-1.3-0.8-1.9c-0.2-1.6,0.7-2.9,2.7-3.4l0.8-0.2
			c2.1-0.3,4.1,0,6,1.1c1.1,0.7,2.2,1.7,2.4,3.3c0.1,0.6,0.1,1.2-0.1,1.8c0,0.2-0.1,0.3,0,0.4c0,0.1,0.2,0.2,0.5,0.2
			c1.9,0.2,3.7,0.4,5.6,0.6c1.3,0.2,2.6,0.4,3.9,0.6c0.3,0,0.5,0.1,0.8,0.2c0.9,0.3,1.5,0.8,1.6,1.6l0,0.3c0,0.9-0.7,1.8-1.6,2.1
			c-0.2,0.1-0.5,0.1-0.7,0.2l-0.7,0.1c-2.6,0.2-5.3,0.4-7.9,0.6c-3,0.3-6,0.5-9,1c-1.4,0.2-2.7,0.5-4.1,0.8l-3.2,0.8
			c-0.3,0.1-0.6,0.2-1,0.2l-0.2,0c-0.9,0.1-1.8-0.5-2.1-1.4l-0.1-0.3C-856.9,198.6-856.5,197.8-855.7,197.4z M-843.1,190.6
			c0.1,0.1,0.2,0.1,0.3,0.1c0.1,0,0.1,0,0.1-0.1c0.1-0.1,0.1-0.2,0.1-0.2c0-0.1-0.1-0.2-0.1-0.3c-0.2-0.3-0.5-0.5-0.8-0.6
			c-0.6-0.3-1.3-0.4-2-0.4C-844.8,189.8-843.9,190.2-843.1,190.6z"/>
		<path d="M-849.1,206.6c0-1.2,0.7-2.2,1.6-2.9c0.8-0.7,1.8-1.1,2.7-1.4c2.1-0.7,4.2-1.1,6.3-1.2l0.2,0c1.9-0.1,3.7,0.1,5.6,0.6
			c1,0.3,1.9,0.7,2.7,1.4c0.6,0.5,1.1,1.1,1.4,1.9c0.1,0.4,0.2,0.7,0.2,1c0,0.6-0.1,1.3-0.5,1.9c-0.8,1.4-3,2.5-4.8,2.6
			c-0.4,0-0.8,0-1.2-0.1c-1.9-0.5-4.1-2.7-4.2-4.6l0-0.3c0-0.2-0.1-0.3-0.3-0.3l-0.1,0c-1.7,0.2-3.4,0.5-5,1.3
			c-0.5,0.2-0.6,0.4-0.6,0.7c0,0.1,0.1,0.3,0.2,0.6c0.2,0.4,0.4,0.8,0.7,1.2c0.2,0.3,0.5,0.6,0.6,0.9c0.1,0.2,0.2,0.5,0.2,0.7
			c0,0.9-0.7,1.8-1.7,1.8l0,0c-0.7,0-1.4-0.3-1.9-0.8c-1.2-1.2-2-2.7-2-4.5L-849.1,206.6z M-835.2,205.7c0.4,0.5,0.8,0.8,1.4,0.8
			c0.4,0,0.8-0.2,1.2-0.4c-0.7-0.5-1.5-0.7-2.4-0.8l-0.1,0c-0.2,0-0.2,0.1-0.2,0.2C-835.3,205.5-835.3,205.6-835.2,205.7z"/>
		<path d="M-849.6,223.5c0.4-0.3,1-0.5,1.5-0.5c2-0.1,3.9,0,5.9,0c3.6,0.1,7.2,0.2,10.8,0.5c1.1,0.1,2.2,0.2,3.3,0.3l0.2,0
			c0.6,0,0.6-0.1,0.7-0.7c0.1-0.7,0.3-1.4,0.6-2c0.2-0.5,0.5-1,1-1.3c0.4-0.2,0.7-0.3,1.1-0.3c0.3,0,0.5,0.1,0.8,0.3
			c0.6,0.4,0.9,1,0.8,1.8c0,0.1-0.1,0.4-0.2,0.6c-0.3,0.6-0.4,1.3-0.5,1.9l0,0.1c0,0.3,0,0.5,0.1,0.7c0.2,0.3,0.3,0.7,0.3,1
			s-0.2,0.7-0.4,1c-0.2,0.3-0.3,0.6-0.3,0.9c-0.1,1.2,0,2.4,0.1,3.5l0,0.5c0,0.2-0.1,0.4-0.2,0.7c-0.2,0.7-0.7,1.1-1.4,1.2
			c-0.2,0-0.3,0-0.5,0c-0.5,0-0.9-0.3-1.3-0.7c-0.4-0.5-0.6-1.1-0.7-1.7c-0.2-1-0.2-2-0.1-3c0-0.6,0-0.7-0.4-0.7l-0.2,0
			c-5-0.2-10-0.6-15-0.7c-1.6,0-3.1-0.1-4.7,0l-0.3,0l-0.4-0.1c-0.8-0.2-1.3-0.7-1.5-1.5c0-0.2,0-0.4,0-0.5
			C-850.4,224.3-850.1,223.8-849.6,223.5z"/>
		<path d="M-848.2,230.3c0.6-0.2,1.2-0.3,1.8-0.3c1,0,1.9,0.1,2.9,0.2l2,0.3l3.5,0.6c0.3,0.1,0.7,0.2,1,0.3c0.6,0.4,0.9,1,0.8,1.7
			l0,0.1c-0.1,0.7-0.7,1.3-1.5,1.4c-0.4,0-0.7,0-1,0l-5.9-0.6c-1-0.1-2-0.1-2.9-0.1l-0.1,0c-1-0.1-1.7-0.8-1.8-1.7
			c0-0.2,0-0.3,0-0.5C-849.4,231.2-848.9,230.6-848.2,230.3z M-834.6,232c0.7-0.7,1.6-1,2.7-1l0.3,0c0.8,0.1,1.3,0.5,1.6,1
			c0.1,0.3,0.2,0.6,0.2,0.8c0,0.4-0.3,0.7-0.8,1c-0.1,0-0.2,0.1-0.4,0.1l0.3,0.3c0.6,0.4,0.8,0.9,0.8,1.3c0,0.2-0.1,0.4-0.2,0.6
			c-0.4,0.5-1.3,0.8-2.2,0.7l-0.3-0.1c0,0-0.1,0-0.2,0c-1.4-0.4-2.7-2.1-2.5-3.5C-835.1,232.7-834.9,232.3-834.6,232z"/>
		<path d="M-853.1,238.3c1.3-0.6,2.6-0.7,4-0.7c2.9,0,5.8,0.4,8.6,0.9l0.8,0.1c0.2,0,0.4,0.1,0.5,0.1l0.1,0c0.3,0,0.4,0,0.5-0.3
			l0-0.2c0.3-0.9,1.1-1.5,1.9-1.4l0.1,0c0.8,0.1,1.4,0.8,1.5,1.8c0.1,1.1,0.1,1.1,1.2,1.4c1.6,0.5,3.1,1,4.6,1.7
			c0.4,0.2,0.8,0.4,1.1,0.7c0.5,0.5,0.7,1.2,0.6,1.9c-0.1,0.5-0.3,0.9-0.7,1.2c-0.4,0.3-0.9,0.4-1.4,0.3c-0.3,0-0.5-0.2-0.7-0.3
			c-0.5-0.5-1.1-0.7-1.7-0.9c-0.7-0.2-1.4-0.4-2.1-0.6l-0.3-0.1c-0.3-0.1-0.3,0-0.6,0.5c-0.4,0.9-1.2,1.3-2,1.2
			c-0.3,0-0.5-0.1-0.8-0.3c-0.5-0.4-0.8-1-0.9-1.6c-0.1-0.8-0.1-0.8-0.9-1l-2.3-0.5c-2.5-0.5-5-0.8-7.5-0.7c-0.2,0-0.3,0-0.5,0
			c-0.9,0.1-0.9,0.1-1.1,1c-0.2,0.7-0.7,1.2-1.4,1.4c-0.3,0.1-0.6,0.1-0.9,0c-0.4-0.1-0.8-0.3-1.1-0.6c-0.7-0.8-0.8-1.7-0.7-2.7
			C-854.8,239.6-854.1,238.8-853.1,238.3z"/>
		<path d="M-850.2,245.9c1.3-0.5,2.6-0.6,3.9-0.4c0.4,0.1,0.8,0.2,1.2,0.3c2,0.5,3.7,1.4,5.2,2.8c0.1,0.1,0.3,0.2,0.4,0.2
			c0.1,0,0.3,0.1,0.5,0c0.6,0,1.2,0,1.8,0.1c0.4,0.1,0.8,0.3,1.2,0.5c1.3,0.8,1.9,2.4,1.5,3.8c-0.3,1.1-1,1.9-2,2.4
			c-1.3,0.7-2.7,0.9-4.2,0.8c-0.7,0-1.4-0.1-2.1-0.3c-0.4-0.1-0.6,0-0.9,0.3c-0.6,0.5-1.2,0.7-1.8,0.5c-0.6-0.2-1.1-0.6-1.3-1.4
			c-0.1-0.5-0.4-0.7-0.8-0.8c-1.2-0.5-2.4-1.2-3.3-2.1c-0.6-0.6-1.1-1.3-1.4-2c-0.3-0.8-0.4-1.7-0.2-2.4
			C-852.2,247.3-851.4,246.4-850.2,245.9z M-848.1,249.7c0.8,0.9,1.9,1.4,3.1,1.8c0.1,0,0.3,0.1,0.4,0c0.3-0.3,0.8-0.5,1.2-1
			c-0.7-0.3-1.4-0.6-2.1-0.8c-0.8-0.2-1.7-0.3-2.6-0.2C-848.2,249.6-848.2,249.7-848.1,249.7z"/>
	</g>
	<ellipse transform="matrix(0.866 -0.5 0.5 0.866 -175.0883 -503.9012)" class="st0" cx="-1027.8" cy="74.8" rx="27.5" ry="40"/>
	<path d="M-992.8,314.7c0,0,52.1,4,69.2-0.8c0,0,7.1-8.7,23.7-40.7C-899.9,273.2-966.1,272.2-992.8,314.7z"/>
</g>
<g>
	<path class="st3" d="M-557.6,58.6c0,0,74.8,3.4,111,67c18.1,31.8,32.1,82.7,11.1,147.5c-2.1,6.6-9,10.3-15.7,8.6l-32.4-8.1
		c0,0,54-139-77-175.6L-557.6,58.6z"/>
	<path class="st3" d="M-628.1,150.8c0,0,9.7-58,67.5-52.9c21.7,1.9,41.8,12.2,56.7,28.1c29.4,31.3,67.5,100.2-16.1,205.7
		c0,0-193.2,43-199.6-117.7c-0.6-14.4,3.2-28.8,11.3-40.8C-696.5,156-673.3,139.2-628.1,150.8z"/>
	
		<ellipse transform="matrix(0.6288 -0.7776 0.7776 0.6288 -398.9261 -508.2641)" class="st3" cx="-731.8" cy="163.7" rx="28.1" ry="36.1"/>
	
		<ellipse transform="matrix(0.8183 -0.5748 0.5748 0.8183 -190.0031 -381.0701)" class="st3" cx="-697.7" cy="110" rx="35.2" ry="51.4"/>
	
		<ellipse transform="matrix(0.9803 -0.1977 0.1977 0.9803 -25.088 -112.643)" class="st3" cx="-576.8" cy="69.3" rx="28.1" ry="36.1"/>
	<ellipse transform="matrix(0.866 -0.5 0.5 0.866 -123.3944 -308.7003)" class="st3" cx="-637.7" cy="75.9" rx="35.2" ry="51.4"/>
	<path class="st0" d="M-624.7,158.8c0,0,8.8-52.5,61.2-47.9c19.7,1.7,37.9,11,51.4,25.4c26.6,28.3,61.2,90.8-14.6,186.5
		c0,0-175.1,39-180.9-106.7c-0.5-13.1,2.9-26.1,10.3-36.9C-686.7,163.5-665.6,148.3-624.7,158.8z"/>
	<path d="M-587.2,201.3c0,0,8.8-9.6-21.2-27.6c-2.3-1.4-1.7-4.9,1-5.4c3.2-0.6,7.6-1.2,13.2-2c0,0,6.4-22.7,25-27c0,0,0.1,0.1,0,0
		c-0.6-0.6-2.6-2.9-6.2-11c-0.9-2.1,0.7-4.4,3-4.1c9.8,1.1,32.3,5.6,50.2,23.1c23.7,23.1,44,81,7,134c0,0-16,19-50.1,30.5
		c0,0-36.1,10.9-63.9-5.5c-27.6-16.2-43.8-58.2-23.1-87.8c9.3-13.2,24.4-21,40.6-22C-603.5,196.1-594.2,196.9-587.2,201.3z"/>
	
		<ellipse transform="matrix(0.7378 -0.675 0.675 0.7378 -260.6912 -331.5585)" class="st0" cx="-557.2" cy="169.8" rx="3" ry="1.5"/>
	<g>
		<path class="st1" d="M-562.5,181.8c2.5,2.5,6.6,2.4,9.1-0.1"/>
		<path class="st1" d="M-553.6,172.7c2.5,2.5,2.6,6.5,0.1,9.1"/>
	</g>
	<g>
		<path class="st1" d="M-553.3,172.5c2.5,2.5,6.6,2.4,9.1-0.1"/>
		<path class="st1" d="M-544.4,163.4c2.5,2.5,2.6,6.5,0.1,9.1"/>
	</g>
	<g>
		<path class="st2" d="M-554.2,162.1c0,0-7.6-10.8,3.6-13.2c0.4-0.1,0.7,0,1.1,0.1c1.1,0.5,3.5,1.9,3.1,6c0,0.3-0.2,0.6-0.4,0.8
			L-554.2,162.1z"/>
		
			<ellipse transform="matrix(8.818915e-02 -0.9961 0.9961 8.818915e-02 -657.6533 -407.6259)" cx="-551.5" cy="155.4" rx="3.5" ry="3.5"/>
		
			<ellipse transform="matrix(1 -9.940756e-03 9.940756e-03 1 -1.5655 -5.5022)" class="st3" cx="-554.3" cy="154.7" rx="1.3" ry="1"/>
	</g>
	<g>
		<path class="st2" d="M-565.9,173.8c0,0-10.9-8.2-13.5,3.6c0,0,0.7,4.2,6.1,3.9c0.3,0,0.6-0.2,0.8-0.4L-565.9,173.8z"/>
		<path d="M-575.8,178c1.2,2.2,4.2,2.5,5.9,0.6c0.9-1.1,1.1-2.6,0.4-3.9c-1.2-2.2-4.2-2.5-5.9-0.6
			C-576.3,175.2-576.4,176.7-575.8,178z"/>
		
			<ellipse transform="matrix(4.413759e-02 -0.999 0.999 4.413759e-02 -721.2648 -406.8241)" class="st3" cx="-573.2" cy="173.5" rx="1.3" ry="1"/>
	</g>
	
		<ellipse transform="matrix(0.6288 -0.7776 0.7776 0.6288 -398.722 -507.8783)" class="st0" cx="-731.3" cy="163.6" rx="21.9" ry="28.2"/>
	
		<ellipse transform="matrix(0.8183 -0.5748 0.5748 0.8183 -189.4924 -381.9109)" class="st0" cx="-698.8" cy="108.7" rx="27.5" ry="40"/>
	
		<ellipse transform="matrix(0.9803 -0.1977 0.1977 0.9803 -25.1636 -112.7318)" class="st0" cx="-577.3" cy="69.7" rx="21.9" ry="28.2"/>
	<path d="M-648.2,295.3c0,0-51.9-29.4-39-94c2-10,12-21.8,22.6-27.5c9.2-5,26.1-2.9,31.7,3.8c4,4.8,4.4,11.9-0.4,16
		c-2.6,2.2-7,4.8-12.5,1.8c-4.7-2.5-17.7-5.5-22.3,6.5c-4.3,11-5.4,32,6.6,57c1,2,3.7,3.2,5,5.3L-648.2,295.3z"/>
	<path d="M-669.1,274c0,0,18.3,29.6,61.2,39.9l-6.2-61.6l-44.6,9.4L-669.1,274z"/>
	<g>
		<path d="M-544.4,94.9c-1.7-0.9-2.6-2.8-2.4-4.7c0-0.3,0.1-0.6,0.2-1c0.1-0.5,0.3-0.9,0.5-1.3c1.2-2.4,3-4.4,5.5-5.7l0.6-0.3
			c-0.2-0.4-0.5-0.6-0.7-0.8c-1-1.2-1.4-2.6-1-4c0.1-0.3,0.2-0.6,0.4-1c1-1.9,2.4-3.4,4.3-4.5l0.2-0.1c1.1-0.6,2.1-0.7,3-0.4
			c1.5,0.4,2.5,1.8,2.8,3.5c0,0.3,0,0.6,0,0.8c-0.2,0.6-0.6,1-1.2,1.2c-0.3,0.1-0.6,0.1-0.9,0c-0.5-0.1-1-0.5-1.2-1.1
			c-0.2-0.4-0.3-0.6-0.4-0.7c-0.1,0-0.3,0.1-0.7,0.4c-0.8,0.6-1.5,1.4-2,2.2c-0.1,0.2-0.2,0.3-0.2,0.4c-0.1,0.3,0,0.4,0.3,0.7
			c0.4,0.4,0.8,0.7,1.2,1.1c0.4,0.4,0.8,0.8,1.1,1.2c0.4,0.7,0.5,1.4,0.4,2c-0.2,0.6-0.6,1.2-1.4,1.6c-0.4,0.2-1,0.4-1.4,0.6
			c-2.1,0.8-3.7,2.2-4.7,4.2c-0.2,0.3-0.3,0.6-0.4,1c-0.2,0.7-0.1,1,0.5,1.1l0.3,0.1c1.2,0.2,2.5,0,3.8-0.2c0.7-0.1,1.4-0.3,2-0.4
			c0.3,0,0.6,0,0.9,0c0.9,0.2,1.5,1.1,1.4,2.1c0,0.1,0,0.3-0.1,0.4c-0.2,0.6-0.6,1.1-1.3,1.3c-2.3,0.7-4.6,1.1-7,0.9
			c-0.3,0-0.7-0.1-1-0.2C-543.6,95.2-544,95.1-544.4,94.9z"/>
		<path d="M-532,102.8c-0.8-0.5-1.3-1.3-1.5-2.2c-0.3-1.2-0.1-2.3,0.1-3.5c0.3-1.5,0.7-2.9,1.2-4.3c0.4-1,0.7-2,1.1-3
			c1.7-4.5,3.9-8.7,6.5-12.8c0.2-0.3,0.4-0.6,0.7-0.9c0.5-0.6,1.2-0.8,2-0.6l0.4,0.1c0.9,0.3,1.3,1.3,1,2.1
			c-0.1,0.2-0.2,0.3-0.3,0.5c-0.7,0.8-1.2,1.7-1.6,2.6c-1.8,3.5-3.6,7-5,10.6l-0.6,1.7c-0.6,1.6-1.1,3.2-1.4,4.9
			c-0.1,0.4-0.1,0.8-0.1,1.1c0,0.1,0.1,0.3,0.2,0.3c0,0,0.1,0,0.2,0c0.6,0,1.1,0,1.5,0.2c0.3,0.1,0.6,0.3,0.8,0.6
			c0.4,0.5,0.4,1.1,0.2,1.7c-0.1,0.2-0.2,0.5-0.4,0.7c-0.1,0.1-0.2,0.3-0.4,0.4c-1.1,0.7-2.2,0.7-3.7,0.1l-0.3-0.1
			C-531.7,103-531.8,102.9-532,102.8z"/>
		<path d="M-519.7,106c-0.1-0.6,0-1.2,0.3-1.8c0.6-1.7,1.5-3.2,2.4-4.7l0.6-0.8l0.6-0.8c0.2-0.4,0.4-0.8,0.5-1.3
			c0-0.2,0.1-0.3,0.2-0.4c0.2-0.3,0.5-0.5,0.8-0.6c0.4-0.1,0.7-0.4,1-0.7c1.7-1.9,3.6-3.8,5.6-5.3c1.2-0.9,2.4-1.6,3.7-2.2
			c0.7-0.3,1.4-0.5,2.1-0.6c0.8-0.1,1.6,0.1,2.2,0.5c0.8,0.5,1.3,1.4,1.5,2.5c0.1,1.1-0.1,2.2-0.5,3.2c-0.6,1.7-1.6,3.2-2.6,4.8
			l-0.3,0.5c-0.3,0.5-0.6,1-0.8,1.6c0,0.1-0.1,0.3-0.2,0.4c-0.1,0.1-0.2,0.2-0.3,0.3c-0.4,0.2-0.6,0.6-0.8,0.9l-0.3,0.5
			c-1.5,2.4-3,4.8-4.2,7.3l-0.2,0.3c-0.6,1-1.7,1.2-2.6,0.7c-0.1-0.1-0.2-0.2-0.4-0.3c-0.6-0.7-0.8-1.5-0.5-2.3
			c0.3-0.9,0.7-1.6,1.1-2.4c0.7-1.3,1.5-2.5,2.3-3.9c-1.4-0.3-2.6-0.6-3.8-1.1c-0.2-0.1-0.4,0-0.5,0.2c-0.6,0.8-1.3,1.7-1.8,2.6
			c-0.4,0.7-0.8,1.4-1.2,2.1c-0.1,0.2-0.1,0.4-0.1,0.7c0,0.5-0.1,0.9-0.3,1.3c-0.3,0.4-0.7,0.7-1.3,0.7c-0.5,0-0.9-0.1-1.3-0.3
			C-519.3,107.1-519.6,106.6-519.7,106z M-506.6,97.5c0.4,0,0.7-0.1,0.9-0.5l0-0.1c0.8-1.3,1.6-2.5,2.3-3.9c0.3-0.6,0.7-1.2,0.8-2.1
			c-3.1,1.5-5.3,3.7-7.5,6.1C-508.8,97.4-507.7,97.5-506.6,97.5z"/>
		<path d="M-507.3,117.8c-0.6-0.7-0.9-1.6-0.8-2.6c0.1-1.2,0.6-2.3,1.1-3.3c0.7-1.3,1.6-2.6,2.5-3.8c0.6-0.9,1.3-1.7,2-2.5
			c3-3.7,6.4-7.1,10.2-10.1c0.3-0.2,0.6-0.5,0.9-0.6c0.7-0.4,1.4-0.4,2.1,0l0.3,0.2c0.7,0.6,0.8,1.7,0.3,2.4
			c-0.1,0.1-0.3,0.3-0.4,0.4c-0.9,0.5-1.6,1.2-2.4,2c-2.8,2.8-5.6,5.5-8.1,8.5l-1.1,1.5c-1,1.4-2,2.7-2.8,4.2
			c-0.2,0.4-0.4,0.7-0.4,1c0,0.1,0,0.3,0.1,0.4c0,0,0.1,0.1,0.2,0c0.5,0.1,1,0.3,1.4,0.6c0.3,0.2,0.5,0.5,0.6,0.8
			c0.2,0.6,0,1.2-0.4,1.7c-0.2,0.2-0.4,0.4-0.6,0.5c-0.1,0.1-0.3,0.2-0.4,0.2c-1.2,0.4-2.3,0-3.6-1l-0.2-0.2
			C-507,118.1-507.2,117.9-507.3,117.8z"/>
		<path d="M-495.9,130.8c0.1-0.6,0.4-1.1,0.8-1.5l0.2-0.2c2.4-1.9,4.8-3.8,7.3-5.7c2.8-2.2,5.7-4.3,8.5-6.6l0.1-0.1
			c0.1-0.1,0.1-0.1,0.1-0.2c-0.2-0.1-0.4,0-0.6,0.1c-2.9,1.1-5.7,2.5-8.4,4.2c-0.5,0.3-1.1,0.7-1.7,0.8c-0.8,0.1-1.5,0-2-0.6
			l-0.2-0.3c-0.5-0.7-0.4-1.6,0.1-2.3c0.4-0.5,0.8-1,1.3-1.4l3-2.8c-0.5-0.1-0.8,0.1-1.1,0.2c-2,0.9-3.9,2-5.8,3.2
			c-0.6,0.4-1.3,0.8-2,1.1c-0.5,0.2-1,0.3-1.6,0.2c-0.5-0.1-1-0.4-1.3-0.7c-0.5-0.6-0.7-1.3-0.4-2.2c0.2-0.8,0.7-1.4,1.2-2.1
			c1.6-2.2,3.5-4.2,5.5-6c0.5-0.5,1.1-0.9,1.8-1.2c0.9-0.4,1.7-0.2,2.3,0.4c0.1,0.2,0.3,0.3,0.4,0.5c0.4,0.7,0.2,1.6-0.3,2.1
			c-0.2,0.2-0.4,0.3-0.6,0.4c-0.4,0.1-0.5,0.2-0.7,0.3c-0.1,0.1-0.2,0.2-0.3,0.5l1.9-0.7c0.9-0.3,1.9-0.6,2.8-0.8
			c0.6-0.1,1.3-0.1,1.9,0c0.6,0.1,1.1,0.4,1.5,0.8c0.5,0.5,0.7,1.2,0.7,2.1l-0.1,0.7c0.3,0.2,0.6-0.1,0.8-0.2c1.5-0.6,3-1,4.5-1.4
			c0.6-0.2,1.3-0.3,2-0.3c0.8,0,1.5,0.4,2,0.9c0.6,0.7,0.8,1.8,0.4,2.9c-0.4,1-1.2,1.8-2,2.6l-1.1,1c-1.2,1.1-2.5,2.1-3.8,3.1
			c-4.3,3.4-8.7,6.6-12.9,10.1c-0.4,0.3-0.7,0.6-1.1,0.8c-0.5,0.4-1.2,0.5-1.8,0.4c-0.3-0.1-0.6-0.3-0.8-0.5
			C-495.8,132-496,131.4-495.9,130.8z"/>
		<path d="M-483.1,140c0-0.7,0.3-1.2,0.7-1.7c0.6-0.8,1.2-1.6,1.8-2.4c0.2-0.3,0.3-0.4,0.2-0.6c0-0.1-0.2-0.2-0.4-0.3
			c-0.8-0.4-1.6-1-2.4-1.6c-0.3-0.3-0.6-0.6-0.9-0.9c-0.8-1.1-0.9-2.4-0.4-3.6c0.3-0.7,0.7-1.3,1.3-1.7c0.3-0.3,0.7-0.5,1.2-0.6
			c2.8-0.9,5,0,6.2,1.7c0.7,1,1.1,2.3,1.1,3.6c0,0.4,0,0.9-0.1,1.5l0.6-0.4c0.7-0.5,1.3-1,1.9-1.5c1.1-0.9,2.1-1.9,2.8-3.1
			c0.2-0.3,0.4-0.6,0.5-0.9c0.2-0.4,0.2-0.8-0.1-1.2l-0.1-0.1c-0.2-0.2-0.4-0.5-0.6-0.7l-0.1-0.1c-0.6-0.8-0.5-1.7,0.1-2.4
			c0.1-0.1,0.2-0.2,0.3-0.2c0.6-0.4,1.5-0.4,2.2,0.1c0.6,0.5,1.1,0.9,1.5,1.5c0.9,1.3,1.2,2.8,0.4,4.8c-0.6,1.5-1.6,2.7-2.6,3.8
			c-1.1,1.2-2.4,2.3-3.7,3.3c-0.7,0.5-1.4,1.1-2.2,1.6c-1.9,1.4-3.8,2.6-5.8,3.8c-0.2,0.1-0.5,0.3-0.8,0.4c-0.9,0.2-1.7-0.1-2.1-0.7
			C-483,141-483.2,140.5-483.1,140z M-478.7,131.5c-0.1-0.4-0.2-0.6-0.3-0.8c-0.3-0.4-0.7-0.4-1.3-0.2
			C-479.8,131.2-479.4,131.4-478.7,131.5z"/>
		<path d="M-477.9,143.9c0.6-0.8,1.4-1.5,2.2-2.1c0.7-0.6,1.5-1,2.2-1.5c1.8-1,3.7-1.9,5.6-2.6c1.6-0.6,3.2-1.1,4.8-1.3
			c0.9-0.1,1.8-0.2,2.8-0.1c1.2,0.2,2,0.7,2.4,1.5s0.5,1.7,0.1,2.8c-0.5,1.3-1.3,2.3-2.4,2.9c-0.7,0.4-1.4,0.7-2.2,0.8
			c-0.8,0.2-1.5-0.2-1.8-0.8l-0.2-0.4c-0.3-0.8,0.1-1.6,0.8-2.1c0.3-0.2,0.7-0.3,1.1-0.5l0.3-0.2c-1.6-0.2-6.2,1.5-9.3,3.4
			c-1.1,0.7-2.1,1.4-2.6,2c0.8,0.3,1.6,0.4,2.5,0.4c0.4,0,0.7,0,1.1,0.1c0.5,0.1,1,0.5,1.2,0.9c0.1,0.2,0.2,0.5,0.3,0.8
			c0.1,0.7-0.3,1.4-1,1.8c-0.1,0.1-0.2,0.1-0.3,0.2c-0.5,0.2-1,0.2-1.5,0.2c-1.6-0.1-3.2-0.4-4.6-1c-0.9-0.4-1.5-0.9-1.8-1.5
			C-479,146.6-478.8,145.3-477.9,143.9z"/>
		<path d="M-471.7,157.9c-0.5-1.1-0.2-2.3,0.3-3.3c0.5-0.9,1.2-1.7,2-2.4c1.6-1.5,3.4-2.6,5.4-3.6l0.2-0.1c1.7-0.8,3.5-1.4,5.4-1.6
			c1-0.1,2-0.1,3,0.2c0.8,0.2,1.5,0.6,2,1.2c0.3,0.3,0.4,0.6,0.6,0.9c0.3,0.6,0.4,1.2,0.3,1.9c-0.2,1.6-1.8,3.5-3.4,4.3
			c-0.4,0.2-0.8,0.3-1.2,0.4c-2,0.3-4.8-0.8-5.7-2.6l-0.1-0.3c-0.1-0.2-0.2-0.2-0.4-0.2l-0.1,0c-1.5,0.9-3,1.8-4.1,3.1
			c-0.3,0.4-0.5,0.6-0.3,0.8c0.1,0.1,0.2,0.3,0.4,0.4c0.3,0.3,0.7,0.6,1.1,0.8c0.3,0.2,0.7,0.3,0.9,0.6c0.2,0.2,0.3,0.4,0.5,0.6
			c0.4,0.9,0.1,1.9-0.9,2.4l0,0c-0.7,0.3-1.4,0.3-2,0c-1.6-0.7-2.9-1.8-3.6-3.3L-471.7,157.9z M-459.2,151.6
			c0.6,0.4,1.1,0.4,1.6,0.2c0.3-0.2,0.6-0.5,0.9-0.9c-0.9-0.2-1.7-0.1-2.5,0.2l-0.1,0c-0.1,0.1-0.2,0.2-0.1,0.3
			C-459.4,151.5-459.3,151.6-459.2,151.6z M-452.5,148.9c-0.4-0.8-0.2-1.8,0.6-2.4c0.2-0.1,0.4-0.2,0.6-0.4c1.6-0.5,3.3-0.9,5-1.1
			c0.8,0,1.4,0.3,1.7,0.9c0.1,0.2,0.1,0.3,0.1,0.5c0.1,0.8-0.2,1.5-1,1.8l-0.3,0.1c-1,0.3-2.1,0.5-3.1,0.9c-0.4,0.1-0.8,0.3-1.1,0.4
			c-1,0.4-2,0.1-2.5-0.7L-452.5,148.9z"/>
		<path d="M-466.1,174.1c-0.1-0.8,0.4-1.5,1.3-1.9c0.3-0.1,0.7-0.2,1.1-0.3c3.5-1,6.9-2.1,10.3-3.3l2.5-0.9c0.3-0.1,0.5-0.2,0.7-0.5
			c-0.7-0.2-1.4-0.2-2.2-0.3c-3.6-0.1-7.2,0.3-10.7,0.9c-0.5,0.1-0.9,0.2-1.4,0.2c-1.1,0.1-2-0.5-2.4-1.5l0,0
			c-0.3-0.9,0-1.8,0.9-2.4c1.1-0.7,2.2-1.3,3.4-1.9c2.1-1.1,4.3-1.9,6.5-2.8l0.2-0.1c0.4-0.1,0.8-0.2,1.3-0.2
			c0.7,0.1,1.2,0.4,1.5,1.1l0,0.1c0.2,0.7,0.1,1.3-0.4,1.8c-0.2,0.3-0.5,0.5-0.8,0.8l1,0c1.8,0,3.6,0.1,5.4,0.6
			c0.7,0.2,1.4,0.4,2.1,0.9c0.6,0.4,1,0.9,1.2,1.5c0.3,0.9,0.1,1.9-0.6,2.8c-0.5,0.6-1.1,1-1.7,1.4c-0.9,0.6-1.9,1-2.9,1.4l-2.4,0.9
			c-3.4,1.2-6.8,2.3-10.3,3.3c-0.7,0.2-1.4,0.3-2.1,0.1c-0.7-0.2-1.2-0.6-1.4-1.2C-466.1,174.4-466.1,174.2-466.1,174.1z"/>
		<path d="M-465.8,197.4c0.3-0.1,0.5-0.2,0.8-0.3c2.7-0.7,5.4-1.3,8.1-1.8l1.3-0.2c0.1,0,0.3,0,0.5-0.2c-0.5-0.3-0.7-0.7-1-1.2
			c-0.1-0.2-0.4-0.3-0.6-0.4c-1.3-0.7-2.4-1.7-3.2-2.8c-0.4-0.6-0.7-1.3-0.8-1.9c-0.2-1.6,0.7-2.9,2.7-3.4l0.8-0.2
			c2.1-0.3,4.1,0,6,1.1c1.1,0.7,2.2,1.7,2.4,3.3c0.1,0.6,0.1,1.2-0.1,1.8c0,0.2-0.1,0.3,0,0.4c0,0.1,0.2,0.2,0.5,0.2
			c1.9,0.2,3.7,0.4,5.6,0.6c1.3,0.2,2.6,0.4,3.9,0.6c0.3,0,0.5,0.1,0.8,0.2c0.9,0.3,1.5,0.8,1.6,1.6l0,0.3c0,0.9-0.7,1.8-1.6,2.1
			c-0.2,0.1-0.5,0.1-0.7,0.2l-0.7,0.1c-2.6,0.2-5.3,0.4-7.9,0.6c-3,0.3-6,0.5-9,1c-1.4,0.2-2.7,0.5-4.1,0.8l-3.2,0.8
			c-0.3,0.1-0.6,0.2-1,0.2l-0.2,0c-0.9,0.1-1.8-0.5-2.1-1.4l-0.1-0.3C-467,198.6-466.6,197.8-465.8,197.4z M-453.2,190.6
			c0.1,0.1,0.2,0.1,0.3,0.1c0.1,0,0.1,0,0.1-0.1c0.1-0.1,0.1-0.2,0.1-0.2c0-0.1-0.1-0.2-0.1-0.3c-0.2-0.3-0.5-0.5-0.8-0.6
			c-0.6-0.3-1.3-0.4-2-0.4C-454.9,189.8-454,190.2-453.2,190.6z"/>
		<path d="M-459.2,206.6c0-1.2,0.7-2.2,1.6-2.9c0.8-0.7,1.8-1.1,2.7-1.4c2.1-0.7,4.2-1.1,6.3-1.2l0.2,0c1.9-0.1,3.7,0.1,5.6,0.6
			c1,0.3,1.9,0.7,2.7,1.4c0.6,0.5,1.1,1.1,1.4,1.9c0.1,0.4,0.2,0.7,0.2,1c0,0.6-0.1,1.3-0.5,1.9c-0.8,1.4-3,2.5-4.8,2.6
			c-0.4,0-0.8,0-1.2-0.1c-1.9-0.5-4.1-2.7-4.2-4.6l0-0.3c0-0.2-0.1-0.3-0.3-0.3l-0.1,0c-1.7,0.2-3.4,0.5-5,1.3
			c-0.5,0.2-0.6,0.4-0.6,0.7c0,0.1,0.1,0.3,0.2,0.6c0.2,0.4,0.4,0.8,0.7,1.2c0.2,0.3,0.5,0.6,0.6,0.9c0.1,0.2,0.2,0.5,0.2,0.7
			c0,0.9-0.7,1.8-1.7,1.8l0,0c-0.7,0-1.4-0.3-1.9-0.8c-1.2-1.2-2-2.7-2-4.5L-459.2,206.6z M-445.3,205.7c0.4,0.5,0.8,0.8,1.4,0.8
			c0.4,0,0.8-0.2,1.2-0.4c-0.7-0.5-1.5-0.7-2.4-0.8l-0.1,0c-0.2,0-0.2,0.1-0.2,0.2C-445.4,205.5-445.4,205.6-445.3,205.7z"/>
		<path d="M-459.7,223.5c0.4-0.3,1-0.5,1.5-0.5c2-0.1,3.9,0,5.9,0c3.6,0.1,7.2,0.2,10.8,0.5c1.1,0.1,2.2,0.2,3.3,0.3l0.2,0
			c0.6,0,0.6-0.1,0.7-0.7c0.1-0.7,0.3-1.4,0.6-2c0.2-0.5,0.5-1,1-1.3c0.4-0.2,0.7-0.3,1.1-0.3c0.3,0,0.5,0.1,0.8,0.3
			c0.6,0.4,0.9,1,0.8,1.8c0,0.1-0.1,0.4-0.2,0.6c-0.3,0.6-0.4,1.3-0.5,1.9l0,0.1c0,0.3,0,0.5,0.1,0.7c0.2,0.3,0.3,0.7,0.3,1
			s-0.2,0.7-0.4,1c-0.2,0.3-0.3,0.6-0.3,0.9c-0.1,1.2,0,2.4,0.1,3.5l0,0.5c0,0.2-0.1,0.4-0.2,0.7c-0.2,0.7-0.7,1.1-1.4,1.2
			c-0.2,0-0.3,0-0.5,0c-0.5,0-0.9-0.3-1.3-0.7c-0.4-0.5-0.6-1.1-0.7-1.7c-0.2-1-0.2-2-0.1-3c0-0.6,0-0.7-0.4-0.7l-0.2,0
			c-5-0.2-10-0.6-15-0.7c-1.6,0-3.1-0.1-4.7,0l-0.3,0l-0.4-0.1c-0.8-0.2-1.3-0.7-1.5-1.5c0-0.2,0-0.4,0-0.5
			C-460.5,224.3-460.2,223.9-459.7,223.5z"/>
		<path d="M-458.3,230.3c0.6-0.2,1.2-0.3,1.8-0.3c1,0,1.9,0.1,2.9,0.2l2,0.3l3.5,0.6c0.3,0.1,0.7,0.2,1,0.3c0.6,0.4,0.9,1,0.8,1.7
			l0,0.1c-0.1,0.7-0.7,1.3-1.5,1.4c-0.4,0-0.7,0-1,0l-5.9-0.6c-1-0.1-2-0.1-2.9-0.1l-0.1,0c-1-0.1-1.7-0.8-1.8-1.7
			c0-0.2,0-0.3,0-0.5C-459.5,231.2-459.1,230.6-458.3,230.3z M-444.7,232c0.7-0.7,1.6-1,2.7-1l0.3,0c0.8,0.1,1.3,0.5,1.6,1
			c0.1,0.3,0.2,0.6,0.2,0.8c0,0.4-0.3,0.7-0.8,1c-0.1,0-0.2,0.1-0.4,0.1l0.3,0.3c0.6,0.4,0.8,0.9,0.8,1.3c0,0.2-0.1,0.4-0.2,0.6
			c-0.4,0.5-1.3,0.8-2.2,0.7l-0.3-0.1c0,0-0.1,0-0.2,0c-1.4-0.4-2.7-2.1-2.5-3.5C-445.2,232.7-445,232.3-444.7,232z"/>
		<path d="M-463.2,238.3c1.3-0.6,2.6-0.7,4-0.7c2.9,0,5.8,0.4,8.6,0.9l0.8,0.1c0.2,0,0.4,0.1,0.5,0.1l0.1,0c0.3,0,0.4,0,0.5-0.3
			l0-0.2c0.3-0.9,1.1-1.5,1.9-1.4l0.1,0c0.8,0.1,1.4,0.8,1.5,1.8c0.1,1.1,0.1,1.1,1.2,1.4c1.6,0.5,3.1,1,4.6,1.7
			c0.4,0.2,0.8,0.4,1.1,0.7c0.5,0.5,0.7,1.2,0.6,1.9c-0.1,0.5-0.3,0.9-0.7,1.2c-0.4,0.3-0.9,0.4-1.4,0.3c-0.3,0-0.5-0.2-0.7-0.3
			c-0.5-0.5-1.1-0.7-1.7-0.9c-0.7-0.2-1.4-0.4-2.1-0.6l-0.3-0.1c-0.3-0.1-0.3,0-0.6,0.5c-0.4,0.9-1.2,1.3-2,1.2
			c-0.3,0-0.5-0.1-0.8-0.3c-0.5-0.4-0.8-1-0.9-1.6c-0.1-0.8-0.1-0.8-0.9-1l-2.3-0.5c-2.5-0.5-5-0.8-7.5-0.7c-0.2,0-0.3,0-0.5,0
			c-0.9,0.1-0.9,0.1-1.1,1c-0.2,0.7-0.7,1.2-1.4,1.4c-0.3,0.1-0.6,0.1-0.9,0c-0.4-0.1-0.8-0.3-1.1-0.6c-0.7-0.8-0.8-1.7-0.7-2.7
			C-464.9,239.6-464.2,238.8-463.2,238.3z"/>
		<path d="M-460.3,245.9c1.3-0.5,2.6-0.6,3.9-0.4c0.4,0.1,0.8,0.2,1.2,0.3c2,0.5,3.7,1.4,5.2,2.8c0.1,0.1,0.3,0.2,0.4,0.2
			c0.1,0,0.3,0.1,0.5,0c0.6,0,1.2,0,1.8,0.1c0.4,0.1,0.8,0.3,1.2,0.5c1.3,0.8,1.9,2.4,1.5,3.8c-0.3,1.1-1,1.9-2,2.4
			c-1.3,0.7-2.7,0.9-4.2,0.8c-0.7,0-1.4-0.1-2.1-0.3c-0.4-0.1-0.6,0-0.9,0.3c-0.6,0.5-1.2,0.7-1.8,0.5c-0.6-0.2-1.1-0.6-1.3-1.4
			c-0.1-0.5-0.4-0.7-0.8-0.8c-1.2-0.5-2.4-1.2-3.3-2.1c-0.6-0.6-1.1-1.3-1.4-2c-0.3-0.8-0.4-1.7-0.2-2.4
			C-462.3,247.3-461.5,246.4-460.3,245.9z M-458.2,249.8c0.8,0.9,1.9,1.4,3.1,1.8c0.1,0,0.3,0.1,0.4,0c0.3-0.3,0.8-0.5,1.2-1
			c-0.7-0.3-1.4-0.6-2.1-0.8c-0.8-0.2-1.7-0.3-2.6-0.2C-458.3,249.6-458.3,249.7-458.2,249.8z"/>
	</g>
	<ellipse transform="matrix(0.866 -0.5 0.5 0.866 -122.8645 -308.9496)" class="st0" cx="-637.9" cy="74.8" rx="27.5" ry="40"/>
	<path d="M-602.9,314.7c0,0,52.1,4,69.2-0.8c0,0,7.1-8.7,23.7-40.7C-510,273.3-576.2,272.2-602.9,314.7z"/>
	<path class="st3" d="M-453.5,111"/>
</g>
<g>
	<path class="st3" d="M-223.9,150.8c0,0,9.7-58,67.5-52.9c21.7,1.9,41.8,12.2,56.7,28.1c29.4,31.3,67.5,100.2-16.1,205.7
		c0,0-193.2,43-199.6-117.7c-0.6-14.4,3.2-28.8,11.3-40.8C-292.3,156-269.1,139.2-223.9,150.8z"/>
	
		<ellipse transform="matrix(0.6288 -0.7776 0.7776 0.6288 -248.8488 -193.9136)" class="st3" cx="-327.5" cy="163.7" rx="28.1" ry="36.1"/>
	
		<ellipse transform="matrix(0.8183 -0.5748 0.5748 0.8183 -116.5361 -148.6876)" class="st3" cx="-293.4" cy="110" rx="35.2" ry="51.4"/>
	
		<ellipse transform="matrix(0.9803 -0.1977 0.1977 0.9803 -17.112 -32.7364)" class="st3" cx="-172.5" cy="69.3" rx="28.1" ry="36.1"/>
	<ellipse transform="matrix(0.866 -0.5 0.5 0.866 -69.2338 -106.5712)" class="st3" cx="-233.5" cy="75.9" rx="35.2" ry="51.4"/>
	<path class="st0" d="M-220.4,158.8c0,0,8.8-52.5,61.2-47.9c19.7,1.7,37.9,11,51.4,25.4c26.6,28.3,61.2,90.8-14.6,186.5
		c0,0-175.1,39-180.9-106.7c-0.5-13.1,2.9-26.1,10.3-36.9C-282.4,163.5-261.4,148.3-220.4,158.8z"/>
	<path d="M-182.9,201.3c0,0,8.8-9.6-21.2-27.6c-2.3-1.4-1.7-4.9,1-5.4c3.2-0.6,7.6-1.2,13.2-2c0,0,6.4-22.7,25-27c0,0,0.1,0.1,0,0
		c-0.6-0.6-2.6-2.9-6.2-11c-0.9-2.1,0.7-4.4,3-4.1c9.8,1.1,32.3,5.6,50.2,23.1c23.7,23.1,44,81,7,134c0,0-16,19-50.1,30.5
		c0,0-36.1,10.9-63.9-5.5c-27.6-16.2-43.8-58.2-23.1-87.8c9.3-13.2,24.4-21,40.6-22C-199.3,196.1-190,196.9-182.9,201.3z"/>
	<ellipse transform="matrix(0.7378 -0.675 0.675 0.7378 -154.7019 -58.685)" class="st0" cx="-152.9" cy="169.8" rx="3" ry="1.5"/>
	<g>
		<path class="st1" d="M-158.3,181.8c2.5,2.5,6.6,2.4,9.1-0.1"/>
		<path class="st1" d="M-149.4,172.7c2.5,2.5,2.6,6.5,0.1,9.1"/>
	</g>
	<g>
		<path class="st1" d="M-149,172.5c2.5,2.5,6.6,2.4,9.1-0.1"/>
		<path class="st1" d="M-140.2,163.4c2.5,2.5,2.6,6.5,0.1,9.1"/>
	</g>
	<g>
		<path class="st2" d="M-149.9,162.1c0,0-7.6-10.8,3.6-13.2c0.4-0.1,0.7,0,1.1,0.1c1.1,0.5,3.5,1.9,3.1,6c0,0.3-0.2,0.6-0.4,0.8
			L-149.9,162.1z"/>
		
			<ellipse transform="matrix(8.818915e-02 -0.9961 0.9961 8.818915e-02 -289.0479 -4.9445)" cx="-147.2" cy="155.4" rx="3.5" ry="3.5"/>
		<ellipse transform="matrix(1 -9.940756e-03 9.940756e-03 1 -1.5456 -1.4835)" class="st3" cx="-150" cy="154.7" rx="1.3" ry="1"/>
	</g>
	<g>
		<path class="st2" d="M-161.6,173.8c0,0-10.9-8.2-13.5,3.6c0,0,0.7,4.2,6.1,3.9c0.3,0,0.6-0.2,0.8-0.4L-161.6,173.8z"/>
		<path d="M-171.5,178c1.2,2.2,4.2,2.5,5.9,0.6c0.9-1.1,1.1-2.6,0.4-3.9c-1.2-2.2-4.2-2.5-5.9-0.6C-172,175.2-172.2,176.7-171.5,178
			z"/>
		
			<ellipse transform="matrix(4.413759e-02 -0.999 0.999 4.413759e-02 -334.8513 -2.9616)" class="st3" cx="-169" cy="173.5" rx="1.3" ry="1"/>
	</g>
	
		<ellipse transform="matrix(0.6288 -0.7776 0.7776 0.6288 -248.6448 -193.5278)" class="st0" cx="-327" cy="163.6" rx="21.9" ry="28.2"/>
	
		<ellipse transform="matrix(0.8183 -0.5748 0.5748 0.8183 -116.0255 -149.5285)" class="st0" cx="-294.5" cy="108.7" rx="27.5" ry="40"/>
	
		<ellipse transform="matrix(0.9803 -0.1977 0.1977 0.9803 -17.1876 -32.8252)" class="st0" cx="-173" cy="69.7" rx="21.9" ry="28.2"/>
	<path d="M-243.9,295.3c0,0-51.9-29.4-39-94c2-10,12-21.8,22.6-27.5c9.2-5,26.1-2.9,31.7,3.8c4,4.8,4.4,11.9-0.4,16
		c-2.6,2.2-7,4.8-12.5,1.8c-4.7-2.5-17.7-5.5-22.3,6.5c-4.3,11-5.4,32,6.6,57c1,2,3.7,3.2,5,5.3L-243.9,295.3z"/>
	<path d="M-264.9,274c0,0,18.3,29.6,61.2,39.9l-6.2-61.6l-44.6,9.4L-264.9,274z"/>
	<ellipse transform="matrix(0.866 -0.5 0.5 0.866 -68.704 -106.8206)" class="st0" cx="-233.7" cy="74.8" rx="27.5" ry="40"/>
	<path d="M-198.6,314.7c0,0,52.1,4,69.2-0.8c0,0,7.1-8.7,23.7-40.7"/>
	<path class="st3" d="M-49.3,111"/>
</g>
<g>
	<path class="st3" d="M166.1,150.8c0,0,9.7-58,67.5-52.9c21.7,1.9,41.8,12.2,56.7,28.1c29.4,31.3,67.5,100.2-16.1,205.7
		c0,0-193.2,43-199.6-117.7c-0.6-14.4,3.2-28.8,11.3-40.8C97.7,156,120.9,139.2,166.1,150.8z"/>
	
		<ellipse transform="matrix(0.6288 -0.7776 0.7776 0.6288 -104.0641 109.3511)" class="st3" cx="62.5" cy="163.7" rx="28.1" ry="36.1"/>
	<ellipse transform="matrix(0.8183 -0.5748 0.5748 0.8183 -45.66 75.4996)" class="st3" cx="96.6" cy="110" rx="35.2" ry="51.4"/>
	
		<ellipse transform="matrix(0.9803 -0.1977 0.1977 0.9803 -9.4173 44.3522)" class="st3" cx="217.5" cy="69.3" rx="28.1" ry="36.1"/>
	<ellipse transform="matrix(0.866 -0.5 0.5 0.866 -16.9833 88.4296)" class="st3" cx="156.5" cy="75.9" rx="35.2" ry="51.4"/>
	<path class="st0" d="M169.6,158.8c0,0,8.8-52.5,61.2-47.9c19.7,1.7,37.9,11,51.4,25.4c26.6,28.3,61.2,90.8-14.6,186.5
		c0,0-175.1,39-180.9-106.7c-0.5-13.1,2.9-26.1,10.3-36.9C107.6,163.5,128.6,148.3,169.6,158.8z"/>
	<ellipse transform="matrix(0.7378 -0.675 0.675 0.7378 -52.4504 204.5655)" class="st0" cx="237.1" cy="169.8" rx="3" ry="1.5"/>
	
		<ellipse transform="matrix(0.6288 -0.7776 0.7776 0.6288 -103.8601 109.7368)" class="st0" cx="63" cy="163.6" rx="21.9" ry="28.2"/>
	<ellipse transform="matrix(0.8183 -0.5748 0.5748 0.8183 -45.1494 74.6588)" class="st0" cx="95.5" cy="108.7" rx="27.5" ry="40"/>
	<ellipse transform="matrix(0.9803 -0.1977 0.1977 0.9803 -9.4929 44.2634)" class="st0" cx="217" cy="69.7" rx="21.9" ry="28.2"/>
	<ellipse transform="matrix(0.866 -0.5 0.5 0.866 -16.4534 88.1802)" class="st0" cx="156.3" cy="74.8" rx="27.5" ry="40"/>
	<path class="st3" d="M340.7,111"/>
</g>
<g>
</g>
<g>
</g>
<g>
</g>
<g>
</g>
<g>
</g>
<g>
</g>
<g>
</g>
<g>
</g>
<g>
</g>
<g>
</g>
<g>
</g>
<g>
</g>
<g>
</g>
<g>
</g>
<g>
</g>
</svg>
