<svg id="Capa_1" data-name="Capa 1" xmlns="http://www.w3.org/2000/svg" width="370" height="365" viewBox="0 0 370 365"><defs><style>.cls-1{fill:#fff;}.cls-2{fill:#ffa099;}.cls-3{fill:none;stroke:#000;stroke-linecap:round;stroke-miterlimit:10;}.cls-4{fill:#f2f2f2;}</style></defs><path class="cls-1" d="M222.38,58.57s74.83,3.37,111,67c18.06,31.77,32.07,82.71,11.13,147.48a13.15,13.15,0,0,1-15.71,8.62l-32.42-8.1s54-139-77-175.64Z"/><path class="cls-1" d="M151.88,150.79s9.66-58,67.48-52.86A88.91,88.91,0,0,1,276.07,126c29.37,31.25,67.54,100.22-16.08,205.71,0,0-193.16,43-199.56-117.67a67.87,67.87,0,0,1,11.31-40.75C83.47,156,106.69,139.18,151.88,150.79Z"/><ellipse class="cls-1" cx="48.23" cy="163.66" rx="28.12" ry="36.15" transform="translate(-109.36 98.27) rotate(-51.04)"/><ellipse class="cls-1" cx="82.32" cy="109.96" rx="35.25" ry="51.36" transform="translate(-48.25 67.3) rotate(-35.09)"/><ellipse class="cls-1" cx="203.2" cy="69.35" rx="28.12" ry="36.15" transform="translate(-9.7 41.53) rotate(-11.4)"/><ellipse class="cls-1" cx="142.26" cy="75.91" rx="35.25" ry="51.36" transform="translate(-18.89 81.3) rotate(-30)"/><path class="cls-2" d="M155.35,158.8s8.75-52.53,61.16-47.91a80.54,80.54,0,0,1,51.41,25.44c26.63,28.33,61.22,90.84-14.57,186.47,0,0-175.09,39-180.89-106.67a61.49,61.49,0,0,1,10.25-36.94C93.34,163.51,114.38,148.28,155.35,158.8Z"/><path d="M192.85,201.3s8.78-9.58-21.17-27.61a2.94,2.94,0,0,1,1-5.41c3.24-.56,7.58-1.23,13.16-2,0,0,6.37-22.72,25-27h0c-.64-.57-2.62-2.94-6.24-11a2.93,2.93,0,0,1,3-4.14c9.8,1.12,32.28,5.57,50.25,23.12,23.67,23.13,44,81,7,134,0,0-16,19-50.09,30.47,0,0-36.12,10.87-63.91-5.47-27.56-16.2-43.81-58.21-23.11-87.79,9.27-13.25,24.43-21,40.57-22C176.47,196.07,185.77,196.87,192.85,201.3Z"/><ellipse class="cls-2" cx="222.85" cy="169.8" rx="3" ry="1.5" transform="translate(-56.19 194.94) rotate(-42.45)"/><path class="cls-3" d="M217.47,181.76a6.42,6.42,0,0,0,9.08-.11"/><path class="cls-3" d="M226.35,172.66a6.43,6.43,0,0,1,.11,9.09"/><path class="cls-3" d="M226.7,172.5a6.43,6.43,0,0,0,9.09-.11"/><path class="cls-3" d="M235.59,163.4a6.42,6.42,0,0,1,.11,9.08"/><path class="cls-4" d="M225.82,162.08s-7.58-10.84,3.58-13.23a1.79,1.79,0,0,1,1,.09c1.13.46,3.47,1.92,3.15,6a1.2,1.2,0,0,1-.41.78Z"/><ellipse cx="228.52" cy="155.41" rx="3.54" ry="3.49" transform="translate(53.56 369.34) rotate(-84.94)"/><ellipse class="cls-1" cx="225.74" cy="154.73" rx="1.32" ry="1" transform="translate(-1.53 2.25) rotate(-0.57)"/><path class="cls-4" d="M214.11,173.84s-10.87-8.17-13.46,3.6c0,0,.7,4.16,6.07,3.93a1.14,1.14,0,0,0,.79-.38Z"/><path d="M204.23,178a3.57,3.57,0,0,0,5.86.57,3.46,3.46,0,0,0,.39-3.85,3.57,3.57,0,0,0-5.86-.57A3.46,3.46,0,0,0,204.23,178Z"/><ellipse class="cls-1" cx="206.77" cy="173.51" rx="1.32" ry="1" transform="translate(24.31 372.42) rotate(-87.47)"/><ellipse class="cls-2" cx="48.74" cy="163.64" rx="21.91" ry="28.17" transform="translate(-109.15 98.65) rotate(-51.04)"/><ellipse class="cls-2" cx="81.24" cy="108.74" rx="27.46" ry="40.02" transform="translate(-47.74 66.46) rotate(-35.09)"/><ellipse class="cls-2" cx="202.72" cy="69.68" rx="21.91" ry="28.17" transform="translate(-9.77 41.45) rotate(-11.4)"/><path d="M131.85,295.3s-51.93-29.36-39-94c2-10,12-21.79,22.61-27.54,9.15-5,26.14-2.91,31.69,3.8,4,4.85,4.39,11.9-.43,15.95-2.57,2.17-7,4.75-12.46,1.84-4.66-2.5-17.66-5.5-22.3,6.49-4.27,11-5.36,32,6.64,57,1,2,3.71,3.22,5,5.31Z"/><path d="M110.85,274s18.31,29.59,61.15,39.94l-6.15-61.64-44.57,9.44Z"/><path d="M235.61,94.87a4.6,4.6,0,0,1-2.35-4.71,7.73,7.73,0,0,1,.18-1,6.26,6.26,0,0,1,.54-1.34,12.63,12.63,0,0,1,5.45-5.72l.58-.27a2.7,2.7,0,0,0-.66-.84,4.27,4.27,0,0,1-1-4,5.32,5.32,0,0,1,.37-1A10.38,10.38,0,0,1,243,71.58l.15-.07a4.22,4.22,0,0,1,3-.44,4.09,4.09,0,0,1,2.8,3.55,2.17,2.17,0,0,1,0,.81,1.72,1.72,0,0,1-1.19,1.22,1.7,1.7,0,0,1-.92,0,1.87,1.87,0,0,1-1.23-1.13c-.2-.43-.3-.63-.43-.67s-.31.1-.65.39a8.89,8.89,0,0,0-2,2.22,1.53,1.53,0,0,0-.2.42c-.07.27.05.41.35.71s.8.75,1.21,1.12A6.51,6.51,0,0,1,244.83,81a2.65,2.65,0,0,1,.36,2,2.51,2.51,0,0,1-1.36,1.57,11.74,11.74,0,0,1-1.42.58,8.82,8.82,0,0,0-4.73,4.2,3.81,3.81,0,0,0-.37,1c-.16.67-.06,1,.48,1.12l.31.07a11.91,11.91,0,0,0,3.76-.25c.68-.13,1.36-.33,2-.42a2,2,0,0,1,.85,0,1.87,1.87,0,0,1,1.4,2.1,1.77,1.77,0,0,1-.07.36,1.74,1.74,0,0,1-1.26,1.29,18.92,18.92,0,0,1-7,.87,5.37,5.37,0,0,1-1-.17A6.26,6.26,0,0,1,235.61,94.87Z"/><path d="M248,102.82a3.39,3.39,0,0,1-1.54-2.19,8.47,8.47,0,0,1,.06-3.51,32.34,32.34,0,0,1,1.18-4.34c.35-1,.72-2,1.11-3A70.8,70.8,0,0,1,255.4,77a5.89,5.89,0,0,1,.69-.89,2,2,0,0,1,2-.64l.35.09a1.72,1.72,0,0,1,1,2.15,1.61,1.61,0,0,1-.3.48,11.48,11.48,0,0,0-1.63,2.62c-1.76,3.51-3.6,7-5,10.64l-.64,1.73a38.07,38.07,0,0,0-1.38,4.91,4.2,4.2,0,0,0-.08,1.08s.08.26.22.31a.25.25,0,0,0,.17,0,3.76,3.76,0,0,1,1.53.16,1.57,1.57,0,0,1,.79.63,1.83,1.83,0,0,1,.18,1.73,2.57,2.57,0,0,1-.41.68,1.32,1.32,0,0,1-.35.36c-1.07.74-2.19.72-3.71.12l-.26-.1A2.92,2.92,0,0,1,248,102.82Z"/><path d="M260.31,106a3.43,3.43,0,0,1,.28-1.77A24,24,0,0,1,263,99.49l.57-.84.59-.84a2.83,2.83,0,0,0,.51-1.26,1.16,1.16,0,0,1,.16-.43,1.49,1.49,0,0,1,.81-.58,2.08,2.08,0,0,0,.95-.69,41.82,41.82,0,0,1,5.64-5.33,17,17,0,0,1,3.7-2.19,6.9,6.9,0,0,1,2.07-.55,3.26,3.26,0,0,1,3.64,3,6.83,6.83,0,0,1-.53,3.22,29.66,29.66,0,0,1-2.55,4.78l-.33.5a4.8,4.8,0,0,0-.75,1.64,1,1,0,0,1-.15.39.92.92,0,0,1-.31.31,2.62,2.62,0,0,0-.84.91l-.31.47a68.92,68.92,0,0,0-4.2,7.32l-.18.32a1.87,1.87,0,0,1-2.57.69,2.3,2.3,0,0,1-.83-2.64,12.71,12.71,0,0,1,1.15-2.41c.72-1.27,1.49-2.54,2.29-3.92a17.32,17.32,0,0,1-3.82-1.11c-.22-.12-.37,0-.49.17-.63.84-1.27,1.68-1.83,2.55a16.31,16.31,0,0,0-1.17,2.08,1.37,1.37,0,0,0-.13.66,2.07,2.07,0,0,1-.3,1.27,1.62,1.62,0,0,1-1.26.72,2.09,2.09,0,0,1-1.33-.33A2,2,0,0,1,260.31,106Zm13.08-8.48a.92.92,0,0,0,.92-.48l.05-.07c.76-1.3,1.57-2.54,2.32-3.85a6.38,6.38,0,0,0,.84-2.14A26,26,0,0,0,270,97,14.56,14.56,0,0,0,273.39,97.49Z"/><path d="M272.72,117.82a3.41,3.41,0,0,1-.78-2.56,8.75,8.75,0,0,1,1.14-3.32,31.19,31.19,0,0,1,2.48-3.75c.65-.86,1.3-1.69,2-2.52a71.23,71.23,0,0,1,10.2-10.12,5.85,5.85,0,0,1,.93-.63,2,2,0,0,1,2.06,0l.31.2a1.71,1.71,0,0,1,.29,2.35,1.42,1.42,0,0,1-.44.36,11.86,11.86,0,0,0-2.36,2c-2.76,2.79-5.58,5.51-8.08,8.55l-1.14,1.45a36.32,36.32,0,0,0-2.84,4.23,4.15,4.15,0,0,0-.41,1c0,.07,0,.28.11.38a.25.25,0,0,0,.16,0,3.69,3.69,0,0,1,1.4.63,1.62,1.62,0,0,1,.56.85,1.81,1.81,0,0,1-.37,1.7,2.47,2.47,0,0,1-.59.51,1.29,1.29,0,0,1-.45.24c-1.25.37-2.31,0-3.57-1l-.21-.18A3.24,3.24,0,0,1,272.72,117.82Z"/><path d="M284.11,130.82a2.57,2.57,0,0,1,.84-1.53l.23-.19c2.43-1.91,4.83-3.8,7.27-5.69,2.82-2.21,5.7-4.34,8.48-6.63l.13-.12a.26.26,0,0,0,.11-.22c-.24-.13-.43,0-.63.11a51.27,51.27,0,0,0-8.39,4.18,5.41,5.41,0,0,1-1.72.8,2.07,2.07,0,0,1-2-.58l-.22-.27a2,2,0,0,1,.13-2.34,9,9,0,0,1,1.29-1.39l3-2.77a1.71,1.71,0,0,0-1.06.25,41.38,41.38,0,0,0-5.8,3.19,9.9,9.9,0,0,1-2,1.08,2.59,2.59,0,0,1-1.6.19,2.48,2.48,0,0,1-1.27-.71,2.12,2.12,0,0,1-.39-2.17,6.72,6.72,0,0,1,1.19-2.1,50.12,50.12,0,0,1,5.52-6,6.4,6.4,0,0,1,1.76-1.23,1.86,1.86,0,0,1,2.29.4,2.2,2.2,0,0,1,.39.54,1.74,1.74,0,0,1-.34,2.08,2,2,0,0,1-.64.38,1.87,1.87,0,0,0-.67.29,2,2,0,0,0-.3.51l1.86-.72a13.58,13.58,0,0,1,2.83-.76,4.81,4.81,0,0,1,1.89,0,2.68,2.68,0,0,1,2.14,2.9l-.1.68c.34.15.58-.07.81-.16a34.83,34.83,0,0,1,4.53-1.4,7.22,7.22,0,0,1,2-.25,2.82,2.82,0,0,1,2,.86,2.64,2.64,0,0,1,.37,2.87,8.11,8.11,0,0,1-2,2.6l-1.06,1c-1.2,1.1-2.49,2.11-3.77,3.11-4.28,3.38-8.67,6.64-12.91,10.07-.38.29-.72.58-1.1.83a2.24,2.24,0,0,1-1.81.36,1.79,1.79,0,0,1-.85-.51A2,2,0,0,1,284.11,130.82Z"/><path d="M296.87,140a3.11,3.11,0,0,1,.68-1.74c.62-.79,1.24-1.58,1.83-2.38.24-.3.32-.44.23-.56a1.31,1.31,0,0,0-.4-.27,14.74,14.74,0,0,1-2.35-1.56,5.3,5.3,0,0,1-.87-.91,3.59,3.59,0,0,1-.4-3.64,3.72,3.72,0,0,1,1.32-1.67,4.39,4.39,0,0,1,1.16-.6c2.84-.94,4.95,0,6.15,1.66a6.06,6.06,0,0,1,1.1,3.61c0,.45-.05.88-.1,1.48l.58-.4c.7-.51,1.28-1,1.87-1.53a16.17,16.17,0,0,0,2.84-3.12,4.66,4.66,0,0,0,.51-.9,1.09,1.09,0,0,0-.08-1.21l-.1-.14c-.2-.25-.43-.46-.64-.71l-.06-.08a1.82,1.82,0,0,1,.07-2.36,1.57,1.57,0,0,1,.27-.25,1.76,1.76,0,0,1,2.15.11,7.66,7.66,0,0,1,1.47,1.49,4.73,4.73,0,0,1,.44,4.83A12.32,12.32,0,0,1,311.9,133a29.25,29.25,0,0,1-3.75,3.29c-.72.55-1.42,1.08-2.15,1.61-1.89,1.36-3.85,2.64-5.84,3.85a3.25,3.25,0,0,1-.78.35,2,2,0,0,1-2.14-.72A2,2,0,0,1,296.87,140Zm4.38-8.55a2.18,2.18,0,0,0-.33-.82c-.26-.37-.66-.4-1.31-.16A2.63,2.63,0,0,0,301.25,131.48Z"/><path d="M302.12,143.94a11.31,11.31,0,0,1,2.23-2.14,22.91,22.91,0,0,1,2.24-1.49,34.72,34.72,0,0,1,5.6-2.6,22,22,0,0,1,4.83-1.3,9.4,9.4,0,0,1,2.75-.07,3.3,3.3,0,0,1,2.44,1.48,3.17,3.17,0,0,1,.09,2.82,5.5,5.5,0,0,1-2.44,2.93,7.6,7.6,0,0,1-2.24.85,1.65,1.65,0,0,1-1.82-.8l-.16-.36a1.74,1.74,0,0,1,.82-2.08c.33-.19.69-.27,1.06-.49l.33-.25c-1.6-.16-6.23,1.55-9.34,3.38a10.45,10.45,0,0,0-2.61,2,8.68,8.68,0,0,0,2.46.45,8.48,8.48,0,0,1,1.11.1,1.85,1.85,0,0,1,1.21.88,2,2,0,0,1,.26.82,1.93,1.93,0,0,1-.95,1.81,2.2,2.2,0,0,1-.31.15,3.61,3.61,0,0,1-1.52.22,13.78,13.78,0,0,1-4.62-1,3.78,3.78,0,0,1-1.85-1.53A3.36,3.36,0,0,1,302.12,143.94Z"/><path d="M308.35,157.87a3.74,3.74,0,0,1,.34-3.31,9.17,9.17,0,0,1,1.95-2.39,22,22,0,0,1,5.38-3.56l.21-.1a16.07,16.07,0,0,1,5.36-1.6,7.8,7.8,0,0,1,3,.23,4.1,4.1,0,0,1,2,1.24,3.77,3.77,0,0,1,.6.89,3.18,3.18,0,0,1,.28,1.89,6.32,6.32,0,0,1-3.41,4.26,3.73,3.73,0,0,1-1.16.37c-2,.26-4.84-.85-5.69-2.61l-.14-.29c-.08-.18-.21-.24-.38-.15l-.08,0a14.5,14.5,0,0,0-4.07,3.15c-.33.4-.45.6-.33.85a2.08,2.08,0,0,0,.36.45,3.61,3.61,0,0,0,1.13.81,3.25,3.25,0,0,1,.93.61,2.35,2.35,0,0,1,.46.59,1.79,1.79,0,0,1-.89,2.38l0,0a2.45,2.45,0,0,1-2,0,6.66,6.66,0,0,1-3.63-3.33Zm12.41-6.24a1.55,1.55,0,0,0,1.56.18,2.5,2.5,0,0,0,.92-.87,4.54,4.54,0,0,0-2.51.18l-.06,0c-.14.06-.17.15-.11.26A.49.49,0,0,0,320.76,151.63Zm6.73-2.76a1.93,1.93,0,0,1,.63-2.38c.19-.14.4-.24.64-.4a22.41,22.41,0,0,1,5-1.06,1.72,1.72,0,0,1,1.71.95,1.94,1.94,0,0,1,.15.5,1.69,1.69,0,0,1-1,1.84l-.32.13c-1,.31-2.11.51-3.14.89-.37.13-.76.27-1.14.43a1.9,1.9,0,0,1-2.47-.75Z"/><path d="M313.88,174.07a1.86,1.86,0,0,1,1.27-1.87c.35-.13.71-.19,1.08-.3,3.48-1,6.93-2.07,10.35-3.3l2.5-.92a1.25,1.25,0,0,0,.73-.51,10.69,10.69,0,0,0-2.16-.25,52.7,52.7,0,0,0-10.71.89,13.29,13.29,0,0,1-1.38.24,2.27,2.27,0,0,1-2.42-1.53v0a2,2,0,0,1,.91-2.42,24.36,24.36,0,0,1,3.39-1.88c2.11-1.07,4.32-1.89,6.49-2.8l.16-.06a2.49,2.49,0,0,1,1.27-.16,1.7,1.7,0,0,1,1.45,1.08l0,.06a1.67,1.67,0,0,1-.36,1.79,10.67,10.67,0,0,1-.82.8l1,0a21.58,21.58,0,0,1,5.37.6,6.36,6.36,0,0,1,2.07.86,3,3,0,0,1,1.2,1.51,2.84,2.84,0,0,1-.6,2.84,6.44,6.44,0,0,1-1.71,1.41,15.63,15.63,0,0,1-2.88,1.4l-2.36.87q-5.07,1.82-10.26,3.29a4.12,4.12,0,0,1-2.12.07,2,2,0,0,1-1.36-1.2A2.19,2.19,0,0,1,313.88,174.07Z"/><path d="M314.18,197.38a3,3,0,0,1,.82-.28,82.24,82.24,0,0,1,8.15-1.77l1.27-.18a1.19,1.19,0,0,0,.52-.19,2.67,2.67,0,0,1-.95-1.22c-.13-.25-.42-.31-.64-.43a10.17,10.17,0,0,1-3.23-2.82,4.64,4.64,0,0,1-.81-1.85c-.24-1.58.7-2.9,2.67-3.38l.8-.17a9.07,9.07,0,0,1,6,1.14,4.84,4.84,0,0,1,2.43,3.3,4.76,4.76,0,0,1-.09,1.82,1.29,1.29,0,0,0,0,.4c0,.15.15.17.53.22,1.87.23,3.72.42,5.59.65,1.31.16,2.6.4,3.9.61a6.18,6.18,0,0,1,.77.18,2.1,2.1,0,0,1,1.65,1.63l0,.28a2.36,2.36,0,0,1-1.6,2.15,3.66,3.66,0,0,1-.67.17l-.69.06c-2.64.2-5.3.35-7.91.59-3,.26-6,.51-9,1-1.36.21-2.74.47-4.08.79l-3.18.78a7.59,7.59,0,0,1-1,.21l-.21,0a1.94,1.94,0,0,1-2.06-1.36l-.07-.27A2,2,0,0,1,314.18,197.38Zm12.66-6.79a.57.57,0,0,0,.32.1.2.2,0,0,0,.14-.08.25.25,0,0,0,.07-.25.59.59,0,0,0-.13-.29,1.9,1.9,0,0,0-.81-.61,4.13,4.13,0,0,0-2-.36A7.33,7.33,0,0,0,326.84,190.59Z"/><path d="M320.8,206.62a3.77,3.77,0,0,1,1.6-2.92,9.17,9.17,0,0,1,2.73-1.44,22.36,22.36,0,0,1,6.33-1.19h.24a16.35,16.35,0,0,1,5.56.61,7.72,7.72,0,0,1,2.67,1.38,4.2,4.2,0,0,1,1.39,1.93,4,4,0,0,1,.2,1.05,3.28,3.28,0,0,1-.47,1.85,6.38,6.38,0,0,1-4.81,2.6,3.67,3.67,0,0,1-1.21-.11c-1.94-.53-4.13-2.67-4.22-4.62l0-.32c0-.19-.1-.3-.29-.29h-.09a14.52,14.52,0,0,0-5,1.31c-.46.24-.65.38-.63.66a1.75,1.75,0,0,0,.15.55,3.75,3.75,0,0,0,.73,1.19,3.8,3.8,0,0,1,.62.92,2.08,2.08,0,0,1,.19.72,1.79,1.79,0,0,1-1.74,1.85h-.05a2.48,2.48,0,0,1-1.86-.77,6.65,6.65,0,0,1-2.05-4.49Zm13.86-.93a1.53,1.53,0,0,0,1.37.78,2.42,2.42,0,0,0,1.18-.45,4.65,4.65,0,0,0-2.38-.81h-.07c-.15,0-.21.08-.2.21A.53.53,0,0,0,334.66,205.69Z"/><path d="M320.28,223.5a2.66,2.66,0,0,1,1.53-.5c1.95-.12,3.91,0,5.87,0,3.59.1,7.18.24,10.76.54,1.09.09,2.18.2,3.27.31h.19c.6,0,.57-.08.73-.67a16.94,16.94,0,0,1,.57-2,2.36,2.36,0,0,1,1-1.34,1.75,1.75,0,0,1,1.1-.3,1.8,1.8,0,0,1,.78.26,1.75,1.75,0,0,1,.82,1.77,5.23,5.23,0,0,1-.17.57,6.41,6.41,0,0,0-.46,1.92v.13a1.07,1.07,0,0,0,.13.7,1.69,1.69,0,0,1,.28,1,1.81,1.81,0,0,1-.42,1,1.51,1.51,0,0,0-.32.94,34.4,34.4,0,0,0,.1,3.52v.54a2.55,2.55,0,0,1-.16.66,1.79,1.79,0,0,1-1.87,1.2,1.68,1.68,0,0,1-1.25-.7,3.39,3.39,0,0,1-.66-1.67,15.12,15.12,0,0,1-.15-3c0-.61,0-.69-.39-.73h-.21c-5-.24-10-.65-15-.69-1.55,0-3.12-.06-4.66,0h-.32l-.45-.08a1.82,1.82,0,0,1-1.45-1.52,2.51,2.51,0,0,1,0-.54A1.82,1.82,0,0,1,320.28,223.5Z"/><path d="M321.68,230.33a4.16,4.16,0,0,1,1.77-.27,21.52,21.52,0,0,1,2.9.21l2,.3,3.5.59a3.44,3.44,0,0,1,1,.33,1.74,1.74,0,0,1,.83,1.73v.11a1.73,1.73,0,0,1-1.47,1.39,3.94,3.94,0,0,1-1,0l-5.92-.56c-1-.09-2-.09-2.93-.08h-.07a2,2,0,0,1-1.81-1.69,1.55,1.55,0,0,1,0-.48A2,2,0,0,1,321.68,230.33ZM335.3,232a3.54,3.54,0,0,1,2.69-1l.34,0a2,2,0,0,1,1.62,1,1.52,1.52,0,0,1,.18.81,1.45,1.45,0,0,1-.76,1L339,234l.33.26a1.51,1.51,0,0,1,.78,1.32,1.16,1.16,0,0,1-.24.55,2.49,2.49,0,0,1-2.16.69l-.29-.06a.61.61,0,0,0-.17,0,3.62,3.62,0,0,1-2.5-3.54A1.88,1.88,0,0,1,335.3,232Z"/><path d="M316.84,238.31a9.62,9.62,0,0,1,4-.69,46.09,46.09,0,0,1,8.6.92l.8.15a3.36,3.36,0,0,1,.5.11l.09,0c.25,0,.42,0,.47-.31l0-.21a1.81,1.81,0,0,1,1.93-1.37l.11,0a1.81,1.81,0,0,1,1.47,1.75c.11,1.07.11,1.07,1.17,1.4a35.71,35.71,0,0,1,4.61,1.67,4.84,4.84,0,0,1,1.09.7,2,2,0,0,1,.58,1.86,1.87,1.87,0,0,1-.7,1.18,1.74,1.74,0,0,1-1.37.34,1.26,1.26,0,0,1-.7-.35,4.38,4.38,0,0,0-1.68-.85c-.68-.21-1.4-.39-2.09-.56l-.29-.07c-.29-.06-.33,0-.55.53a1.84,1.84,0,0,1-2.78.85,2.39,2.39,0,0,1-.88-1.63c-.14-.79-.14-.79-.9-1l-2.28-.46a39,39,0,0,0-7.47-.74l-.51,0c-.9.05-.9.05-1.14,1a1.86,1.86,0,0,1-1.37,1.41,1.94,1.94,0,0,1-.86,0,2.18,2.18,0,0,1-1.11-.62,3.2,3.2,0,0,1-.71-2.69A3.43,3.43,0,0,1,316.84,238.31Z"/><path d="M319.72,246a7.12,7.12,0,0,1,3.9-.36c.4.06.8.16,1.2.26a10.81,10.81,0,0,1,5.2,2.84.82.82,0,0,0,.41.23,1.16,1.16,0,0,0,.46,0,5.59,5.59,0,0,1,1.82.12,4.35,4.35,0,0,1,1.22.53,3.55,3.55,0,0,1,1.52,3.84,3.59,3.59,0,0,1-2,2.36,8.19,8.19,0,0,1-4.18.79c-.7,0-1.38-.15-2.07-.26a1,1,0,0,0-.9.26,2,2,0,0,1-1.8.53,1.86,1.86,0,0,1-1.31-1.39,1.16,1.16,0,0,0-.77-.82,10,10,0,0,1-3.32-2.14,6.49,6.49,0,0,1-1.42-2,3.84,3.84,0,0,1-.22-2.38A3.54,3.54,0,0,1,319.72,246Zm2,3.81a6.92,6.92,0,0,0,3.07,1.81.46.46,0,0,0,.41,0c.35-.34.84-.52,1.17-1a13.41,13.41,0,0,0-2.12-.75,7.41,7.41,0,0,0-2.58-.23C321.74,249.64,321.72,249.73,321.75,249.76Z"/><ellipse class="cls-2" cx="142.06" cy="74.79" rx="27.46" ry="40.02" transform="translate(-18.36 81.05) rotate(-30)"/><path d="M177.14,314.7s52.09,4,69.2-.76c0,0,7.11-8.72,23.66-40.67C270,273.27,203.84,272.19,177.14,314.7Z"/></svg>