<svg id="Capa_1" data-name="Capa 1" xmlns="http://www.w3.org/2000/svg" width="370" height="365" viewBox="0 0 370 365"><defs><style>.cls-1{fill:#ffa099;}.cls-2{fill:none;stroke:#000;stroke-linecap:round;stroke-miterlimit:10;}.cls-3{fill:#f2f2f2;}.cls-4{fill:#fff;}</style></defs><path class="cls-1" d="M155.45,158.78s8.76-52.54,61.17-47.92A80.57,80.57,0,0,1,268,136.31c26.62,28.33,61.22,90.84-14.58,186.47,0,0-175.09,39-180.88-106.67a61.38,61.38,0,0,1,10.25-36.94C93.44,163.48,114.49,148.26,155.45,158.78Z"/><path d="M193,201.28s8.79-9.59-21.17-27.61a2.94,2.94,0,0,1,1-5.41c3.24-.56,7.57-1.24,13.15-2,0,0,6.38-22.73,25-27h0c-.64-.58-2.61-2.95-6.24-11a2.94,2.94,0,0,1,3-4.15c9.8,1.13,32.28,5.58,50.24,23.13,23.68,23.12,44,81,7,134,0,0-16,19-50.09,30.46,0,0-36.11,10.87-63.91-5.46-27.56-16.2-43.81-58.22-23.11-87.8,9.28-13.24,24.44-21,40.58-21.95C176.58,196.05,185.87,196.85,193,201.28Z"/><ellipse class="cls-1" cx="222.95" cy="169.78" rx="3" ry="1.5" transform="translate(-56.14 195.01) rotate(-42.45)"/><path class="cls-2" d="M217.57,181.73a6.42,6.42,0,0,0,9.09-.1"/><path class="cls-2" d="M226.46,172.64a6.42,6.42,0,0,1,.11,9.08"/><path class="cls-2" d="M226.81,172.47a6.42,6.42,0,0,0,9.08-.1"/><path class="cls-2" d="M235.69,163.37a6.43,6.43,0,0,1,.11,9.09"/><path class="cls-3" d="M225.93,162.06s-7.58-10.85,3.57-13.24a1.83,1.83,0,0,1,1.06.1c1.12.46,3.46,1.91,3.14,6a1.15,1.15,0,0,1-.4.79Z"/><ellipse cx="228.62" cy="155.39" rx="3.54" ry="3.49" transform="translate(53.68 369.42) rotate(-84.94)"/><ellipse class="cls-4" cx="225.84" cy="154.71" rx="1.32" ry="1" transform="translate(-1.53 2.25) rotate(-0.57)"/><path class="cls-3" d="M214.22,173.82s-10.88-8.17-13.46,3.59c0,0,.69,4.17,6.06,3.93a1.14,1.14,0,0,0,.8-.37Z"/><path d="M204.34,177.93a3.56,3.56,0,0,0,5.86.56,3.46,3.46,0,0,0,.39-3.85,3.57,3.57,0,0,0-5.87-.56A3.46,3.46,0,0,0,204.34,177.93Z"/><ellipse class="cls-4" cx="206.88" cy="173.48" rx="1.32" ry="1" transform="translate(24.43 372.5) rotate(-87.47)"/><ellipse class="cls-1" cx="48.85" cy="163.62" rx="21.91" ry="28.17" transform="translate(-109.09 98.72) rotate(-51.04)"/><ellipse class="cls-1" cx="81.35" cy="108.71" rx="27.46" ry="40.02" transform="translate(-47.71 66.52) rotate(-35.09)"/><ellipse class="cls-1" cx="202.83" cy="69.66" rx="21.91" ry="28.17" transform="translate(-9.77 41.47) rotate(-11.4)"/><path d="M132,295.28s-51.92-29.36-39-94c2-10,12-21.8,22.61-27.54,9.15-5,26.14-2.91,31.7,3.8,4,4.84,4.38,11.9-.43,16-2.57,2.16-7,4.75-12.47,1.83-4.66-2.49-17.66-5.49-22.29,6.5-4.27,11-5.37,32,6.63,57,1,2,3.71,3.22,5,5.3Z"/><path d="M111,274s18.31,29.58,61.15,39.94L166,252.28l-44.56,9.43Z"/><path d="M235.72,94.85a4.62,4.62,0,0,1-2.36-4.72,7.6,7.6,0,0,1,.19-.95,6.89,6.89,0,0,1,.53-1.35,12.6,12.6,0,0,1,5.46-5.72l.58-.27a2.72,2.72,0,0,0-.67-.84,4.26,4.26,0,0,1-1-4,4.17,4.17,0,0,1,.37-1,10.28,10.28,0,0,1,4.3-4.48l.15-.08a4.19,4.19,0,0,1,3-.43A4.06,4.06,0,0,1,249,74.59a2.17,2.17,0,0,1,0,.81,1.7,1.7,0,0,1-1.2,1.22,1.66,1.66,0,0,1-.91,0,1.91,1.91,0,0,1-1.24-1.13c-.2-.43-.3-.64-.42-.67s-.32.09-.66.38a8.91,8.91,0,0,0-2,2.23,1.65,1.65,0,0,0-.2.41c-.07.27,0,.41.34.71s.81.75,1.22,1.13a6.45,6.45,0,0,1,1.05,1.23,2.65,2.65,0,0,1,.35,2,2.51,2.51,0,0,1-1.35,1.58,13.62,13.62,0,0,1-1.42.58,8.82,8.82,0,0,0-4.74,4.19,4.4,4.4,0,0,0-.37,1c-.15.67-.06,1,.48,1.13l.32.06a11.93,11.93,0,0,0,3.76-.25c.68-.13,1.35-.33,2-.42a2.45,2.45,0,0,1,.86,0,1.9,1.9,0,0,1,1.4,2.11,3.21,3.21,0,0,1-.08.36,1.74,1.74,0,0,1-1.25,1.29,18.94,18.94,0,0,1-7,.86,5.57,5.57,0,0,1-1-.16A7.25,7.25,0,0,1,235.72,94.85Z"/><path d="M248.15,102.8a3.45,3.45,0,0,1-1.55-2.2,8.65,8.65,0,0,1,.06-3.51,30.82,30.82,0,0,1,1.19-4.33c.35-1,.71-2,1.1-3A71.45,71.45,0,0,1,255.5,77a6,6,0,0,1,.69-.88,2,2,0,0,1,2-.64l.36.09a1.72,1.72,0,0,1,1,2.15,2.07,2.07,0,0,1-.31.48,11.1,11.1,0,0,0-1.62,2.62c-1.77,3.51-3.61,7-5,10.63l-.63,1.74a36,36,0,0,0-1.39,4.9,3.78,3.78,0,0,0-.07,1.08c0,.06.08.26.22.32a.22.22,0,0,0,.16,0,3.74,3.74,0,0,1,1.53.16,1.64,1.64,0,0,1,.79.64,1.77,1.77,0,0,1,.18,1.73,2.48,2.48,0,0,1-.4.67,1.73,1.73,0,0,1-.35.37c-1.08.73-2.2.71-3.72.12l-.26-.1C248.45,103,248.3,102.88,248.15,102.8Z"/><path d="M260.42,105.94a3.43,3.43,0,0,1,.27-1.77,24.6,24.6,0,0,1,2.41-4.71l.57-.83.6-.85a2.9,2.9,0,0,0,.51-1.25,1.27,1.27,0,0,1,.15-.44,1.62,1.62,0,0,1,.81-.58,2.14,2.14,0,0,0,1-.68,41.23,41.23,0,0,1,5.63-5.34A17.68,17.68,0,0,1,276,87.3a7.55,7.55,0,0,1,2.07-.55,3.46,3.46,0,0,1,2.18.51,3.3,3.3,0,0,1,1.46,2.49,6.86,6.86,0,0,1-.52,3.22,30.37,30.37,0,0,1-2.55,4.77l-.33.51a4.6,4.6,0,0,0-.76,1.63.7.7,0,0,1-.15.39,1,1,0,0,1-.3.32,2.75,2.75,0,0,0-.85.91l-.3.47a68.86,68.86,0,0,0-4.21,7.31l-.18.32a1.85,1.85,0,0,1-2.57.69,2,2,0,0,1-.36-.31,2.2,2.2,0,0,1-.47-2.33,13.26,13.26,0,0,1,1.15-2.4c.73-1.27,1.5-2.54,2.29-3.92a18,18,0,0,1-3.81-1.12c-.23-.12-.38,0-.49.17-.63.85-1.28,1.69-1.84,2.55a17.75,17.75,0,0,0-1.17,2.09,1.36,1.36,0,0,0-.12.66,2,2,0,0,1-.31,1.26,1.55,1.55,0,0,1-1.26.72,2.12,2.12,0,0,1-1.32-.32A2,2,0,0,1,260.42,105.94Zm13.07-8.48a.92.92,0,0,0,.93-.47l0-.08c.77-1.29,1.57-2.54,2.32-3.85a6.1,6.1,0,0,0,.85-2.14c-3.06,1.48-5.27,3.71-7.53,6.09A14,14,0,0,0,273.49,97.46Z"/><path d="M272.83,117.8a3.4,3.4,0,0,1-.78-2.57,8.42,8.42,0,0,1,1.14-3.32,31.11,31.11,0,0,1,2.47-3.75c.65-.86,1.31-1.68,2-2.51a70.71,70.71,0,0,1,10.19-10.13,6.27,6.27,0,0,1,.93-.62,2,2,0,0,1,2.07,0l.31.2a1.72,1.72,0,0,1,.29,2.36,1.92,1.92,0,0,1-.44.36,11,11,0,0,0-2.36,2c-2.77,2.78-5.59,5.5-8.09,8.54l-1.14,1.46a35.5,35.5,0,0,0-2.84,4.23,4,4,0,0,0-.41,1c0,.06,0,.27.12.37a.23.23,0,0,0,.15,0,3.65,3.65,0,0,1,1.41.62,1.68,1.68,0,0,1,.56.85,1.83,1.83,0,0,1-.37,1.7,2.81,2.81,0,0,1-.6.52,1.37,1.37,0,0,1-.45.24c-1.24.36-2.3,0-3.56-1l-.22-.18C273.07,118.05,273,117.92,272.83,117.8Z"/><path d="M284.21,130.8a2.65,2.65,0,0,1,.84-1.54l.24-.18c2.42-1.91,4.83-3.8,7.27-5.7,2.81-2.21,5.7-4.34,8.47-6.63l.13-.11a.32.32,0,0,0,.12-.23c-.24-.13-.43,0-.63.11a49.77,49.77,0,0,0-8.39,4.19,5.23,5.23,0,0,1-1.73.79,2,2,0,0,1-2-.58l-.21-.27a2,2,0,0,1,.13-2.34,9.45,9.45,0,0,1,1.29-1.39l3-2.76a1.72,1.72,0,0,0-1.06.24,41.33,41.33,0,0,0-5.79,3.2,10.71,10.71,0,0,1-2,1.07,2.69,2.69,0,0,1-1.61.2,2.48,2.48,0,0,1-1.26-.71,2.17,2.17,0,0,1-.4-2.18,6.59,6.59,0,0,1,1.2-2.09,48.59,48.59,0,0,1,5.52-6,6.54,6.54,0,0,1,1.75-1.24,1.9,1.9,0,0,1,2.3.4,3,3,0,0,1,.39.55,1.73,1.73,0,0,1-.35,2.07,1.76,1.76,0,0,1-.64.38,2.14,2.14,0,0,0-.67.3,1.74,1.74,0,0,0-.29.5l1.86-.71a13,13,0,0,1,2.83-.77,5,5,0,0,1,1.88,0,2.87,2.87,0,0,1,1.46.82,2.72,2.72,0,0,1,.69,2.08l-.1.69c.34.15.58-.07.81-.17a33.31,33.31,0,0,1,4.53-1.39,7.23,7.23,0,0,1,2-.26,2.86,2.86,0,0,1,2,.86,2.66,2.66,0,0,1,.36,2.88,8,8,0,0,1-2,2.59l-1.06,1c-1.21,1.11-2.5,2.12-3.77,3.12-4.28,3.38-8.68,6.63-12.91,10.06-.38.29-.73.58-1.1.84a2.25,2.25,0,0,1-1.81.35,1.71,1.71,0,0,1-.85-.51A1.9,1.9,0,0,1,284.21,130.8Z"/><path d="M297,140a3.08,3.08,0,0,1,.68-1.74c.62-.79,1.24-1.59,1.83-2.39.23-.3.32-.44.23-.56a1.3,1.3,0,0,0-.41-.26,15.27,15.27,0,0,1-2.35-1.57,4.9,4.9,0,0,1-.86-.91,3.55,3.55,0,0,1-.4-3.63,3.71,3.71,0,0,1,1.31-1.67,4.72,4.72,0,0,1,1.16-.6c2.85-.94,5,0,6.15,1.65a6,6,0,0,1,1.1,3.61,14.48,14.48,0,0,1-.1,1.48l.59-.4c.7-.5,1.27-1,1.86-1.53a15.52,15.52,0,0,0,2.84-3.11,5.39,5.39,0,0,0,.52-.9,1.12,1.12,0,0,0-.08-1.22l-.1-.14c-.21-.25-.44-.45-.64-.7l-.07-.09a1.82,1.82,0,0,1,.08-2.36,2.16,2.16,0,0,1,.27-.25,1.77,1.77,0,0,1,2.15.12,7.91,7.91,0,0,1,1.47,1.48,4.76,4.76,0,0,1,.44,4.83,12.11,12.11,0,0,1-2.65,3.79,29.17,29.17,0,0,1-3.74,3.29c-.72.55-1.43,1.08-2.16,1.61-1.88,1.36-3.84,2.65-5.84,3.85a2.62,2.62,0,0,1-.78.35,1.94,1.94,0,0,1-2.5-2Zm4.38-8.55a2.11,2.11,0,0,0-.33-.82c-.27-.37-.66-.4-1.31-.17A2.62,2.62,0,0,0,301.36,131.46Z"/><path d="M302.22,143.92a10.82,10.82,0,0,1,2.24-2.14,23,23,0,0,1,2.24-1.5,35.66,35.66,0,0,1,5.6-2.6,21.81,21.81,0,0,1,4.83-1.29,9.38,9.38,0,0,1,2.75-.07,3.28,3.28,0,0,1,2.44,1.47,3.17,3.17,0,0,1,.09,2.82,5.61,5.61,0,0,1-2.44,2.94,7.76,7.76,0,0,1-2.25.84,1.66,1.66,0,0,1-1.82-.8l-.15-.35a1.74,1.74,0,0,1,.82-2.08c.33-.2.68-.28,1.05-.5l.33-.24c-1.59-.16-6.22,1.54-9.34,3.38a9.93,9.93,0,0,0-2.6,2,8.21,8.21,0,0,0,2.46.44,10.45,10.45,0,0,1,1.1.1,1.91,1.91,0,0,1,1.22.88,2,2,0,0,1,.26.82,1.93,1.93,0,0,1-1,1.81,1.51,1.51,0,0,1-.31.16,3.7,3.7,0,0,1-1.51.22,13.73,13.73,0,0,1-4.62-1,3.78,3.78,0,0,1-1.85-1.53A3.34,3.34,0,0,1,302.22,143.92Z"/><path d="M308.45,157.85a3.76,3.76,0,0,1,.35-3.32,8.79,8.79,0,0,1,1.95-2.39,22.19,22.19,0,0,1,5.37-3.56l.21-.1a16.43,16.43,0,0,1,5.37-1.6,7.74,7.74,0,0,1,3,.23,4.15,4.15,0,0,1,2,1.25,3.48,3.48,0,0,1,.59.88,3.18,3.18,0,0,1,.29,1.89,6.42,6.42,0,0,1-3.41,4.27,3.78,3.78,0,0,1-1.16.36c-2,.27-4.85-.85-5.69-2.61l-.14-.29a.27.27,0,0,0-.39-.15l-.07,0a14.35,14.35,0,0,0-4.07,3.15c-.34.39-.45.59-.33.84a1.77,1.77,0,0,0,.35.45,4,4,0,0,0,1.14.82,3.77,3.77,0,0,1,.93.6,2.26,2.26,0,0,1,.45.59,1.78,1.78,0,0,1-.88,2.38l0,0a2.45,2.45,0,0,1-2,0,6.64,6.64,0,0,1-3.63-3.34Zm12.41-6.25a1.54,1.54,0,0,0,1.57.18,2.4,2.4,0,0,0,.91-.87,4.63,4.63,0,0,0-2.51.18l-.06,0a.19.19,0,0,0-.11.27A.64.64,0,0,0,320.86,151.6Zm6.74-2.76a1.91,1.91,0,0,1,.62-2.37c.2-.14.41-.24.64-.4a22.09,22.09,0,0,1,5-1.06,1.71,1.71,0,0,1,1.72.94,2.19,2.19,0,0,1,.14.5,1.67,1.67,0,0,1-.95,1.84l-.32.13c-1,.31-2.11.52-3.15.9-.37.12-.75.26-1.13.42a1.91,1.91,0,0,1-2.48-.74Z"/><path d="M314,174a1.84,1.84,0,0,1,1.27-1.87c.34-.12.71-.19,1.08-.3,3.48-1,6.93-2.07,10.35-3.29l2.5-.92a1.38,1.38,0,0,0,.73-.51,9.51,9.51,0,0,0-2.17-.25,52.05,52.05,0,0,0-10.71.89c-.46.09-.91.19-1.37.24a2.27,2.27,0,0,1-2.42-1.53l0,0a2.06,2.06,0,0,1,.92-2.43,25.32,25.32,0,0,1,3.39-1.88c2.1-1.07,4.32-1.89,6.48-2.8l.16-.06a2.51,2.51,0,0,1,1.27-.15,1.71,1.71,0,0,1,1.46,1.07l0,.06a1.67,1.67,0,0,1-.36,1.8,10.44,10.44,0,0,1-.81.79l1,0a21.26,21.26,0,0,1,5.38.61,5.91,5.91,0,0,1,2.06.86,3.11,3.11,0,0,1,1.21,1.51,2.88,2.88,0,0,1-.61,2.84,6.48,6.48,0,0,1-1.71,1.41,15.88,15.88,0,0,1-2.87,1.4l-2.36.86c-3.38,1.21-6.81,2.3-10.26,3.29a3.91,3.91,0,0,1-2.12.07,2,2,0,0,1-1.37-1.2A2.09,2.09,0,0,1,314,174Z"/><path d="M314.28,197.36a2.63,2.63,0,0,1,.83-.28,81.48,81.48,0,0,1,8.14-1.78l1.28-.18a1,1,0,0,0,.51-.19,2.81,2.81,0,0,1-1-1.22c-.12-.24-.42-.3-.63-.42a10.21,10.21,0,0,1-3.23-2.83,4.32,4.32,0,0,1-.81-1.85c-.25-1.57.7-2.89,2.67-3.38l.8-.17a9,9,0,0,1,6,1.15,4.77,4.77,0,0,1,2.43,3.29,4.54,4.54,0,0,1-.08,1.82,1.41,1.41,0,0,0,0,.4c0,.15.16.17.54.22,1.86.23,3.72.42,5.58.65,1.31.17,2.61.4,3.91.61.26,0,.51.12.76.18a2.08,2.08,0,0,1,1.65,1.64l0,.28a2.37,2.37,0,0,1-1.61,2.14,3.29,3.29,0,0,1-.67.17l-.68.07c-2.65.19-5.3.35-7.92.58-3,.26-6,.51-9,1-1.36.21-2.73.47-4.07.79l-3.19.78a7.23,7.23,0,0,1-1,.22l-.21,0a2,2,0,0,1-2.06-1.35l-.06-.27A2,2,0,0,1,314.28,197.36Zm12.67-6.8a.54.54,0,0,0,.32.11.22.22,0,0,0,.14-.09.31.31,0,0,0,.07-.25.73.73,0,0,0-.13-.28,2,2,0,0,0-.82-.62,4.08,4.08,0,0,0-2-.35A7.12,7.12,0,0,0,327,190.56Z"/><path d="M320.9,206.6a3.77,3.77,0,0,1,1.61-2.92,8.81,8.81,0,0,1,2.72-1.45,22.49,22.49,0,0,1,6.34-1.19h.24a16.08,16.08,0,0,1,5.55.62A7.75,7.75,0,0,1,340,203a4.16,4.16,0,0,1,1.38,1.94,3.6,3.6,0,0,1,.2,1,3.21,3.21,0,0,1-.47,1.86,6.35,6.35,0,0,1-4.8,2.59,3.42,3.42,0,0,1-1.21-.11c-1.94-.53-4.13-2.66-4.23-4.62v-.32c0-.19-.1-.29-.3-.28h-.08a14.31,14.31,0,0,0-5,1.32c-.47.23-.65.37-.64.65a2,2,0,0,0,.16.55,3.61,3.61,0,0,0,.72,1.19,3.57,3.57,0,0,1,.63.92,2.38,2.38,0,0,1,.18.72,1.78,1.78,0,0,1-1.74,1.85h0a2.43,2.43,0,0,1-1.87-.77,6.61,6.61,0,0,1-2-4.48Zm13.86-.93a1.53,1.53,0,0,0,1.37.77,2.4,2.4,0,0,0,1.19-.44,4.54,4.54,0,0,0-2.39-.81h-.06c-.15,0-.21.07-.21.2A.68.68,0,0,0,334.76,205.67Z"/><path d="M320.39,223.48a2.61,2.61,0,0,1,1.52-.5c2-.12,3.91,0,5.87,0,3.59.1,7.18.25,10.76.54,1.09.09,2.19.2,3.28.31l.19,0c.6.05.57-.09.72-.68a15.27,15.27,0,0,1,.58-2,2.38,2.38,0,0,1,1-1.34,1.69,1.69,0,0,1,1.88,0,1.77,1.77,0,0,1,.83,1.77c0,.13-.1.36-.18.57a6.8,6.8,0,0,0-.46,1.93v.12a1.17,1.17,0,0,0,.14.71,1.68,1.68,0,0,1,.28,1,1.87,1.87,0,0,1-.43,1,1.57,1.57,0,0,0-.31.95,31.76,31.76,0,0,0,.1,3.52v.54a2.57,2.57,0,0,1-.16.65,1.71,1.71,0,0,1-1.37,1.19,2.9,2.9,0,0,1-.5,0,1.71,1.71,0,0,1-1.26-.71,3.44,3.44,0,0,1-.66-1.67,15.08,15.08,0,0,1-.14-3c0-.6,0-.69-.39-.72l-.22,0c-5-.24-10-.65-15-.69-1.55,0-3.12-.06-4.66,0h-.32l-.45-.08a1.81,1.81,0,0,1-1.45-1.52,3.33,3.33,0,0,1,0-.54A1.83,1.83,0,0,1,320.39,223.48Z"/><path d="M321.79,230.3a4,4,0,0,1,1.77-.26,21.63,21.63,0,0,1,2.9.2l2,.31,3.5.59a3.32,3.32,0,0,1,1,.32,1.74,1.74,0,0,1,.83,1.74v.11a1.72,1.72,0,0,1-1.46,1.39,4.51,4.51,0,0,1-1,0l-5.91-.56c-1-.09-2-.1-2.94-.09h-.06a2,2,0,0,1-1.82-1.69,1.85,1.85,0,0,1,0-.47A2,2,0,0,1,321.79,230.3ZM335.4,232a3.61,3.61,0,0,1,2.69-1l.35,0a2.06,2.06,0,0,1,1.62,1,1.56,1.56,0,0,1,.17.8,1.4,1.4,0,0,1-.75,1c-.07,0-.21.06-.39.13l.34.26a1.52,1.52,0,0,1,.78,1.31,1.28,1.28,0,0,1-.25.56,2.47,2.47,0,0,1-2.15.69l-.3-.06a.38.38,0,0,0-.16-.05,3.61,3.61,0,0,1-2.51-3.53A2,2,0,0,1,335.4,232Z"/><path d="M316.94,238.29a9.53,9.53,0,0,1,4-.69,46.82,46.82,0,0,1,8.59.91l.81.15a3.33,3.33,0,0,1,.5.12h.08c.26.05.42,0,.48-.3l0-.22a1.84,1.84,0,0,1,1.94-1.37l.11,0a1.84,1.84,0,0,1,1.47,1.76c.11,1.07.11,1.07,1.16,1.39a37.31,37.31,0,0,1,4.61,1.68,4.47,4.47,0,0,1,1.1.7,2,2,0,0,1,.58,1.85,2,2,0,0,1-.7,1.19,1.81,1.81,0,0,1-1.38.34,1.45,1.45,0,0,1-.7-.35,4.21,4.21,0,0,0-1.68-.86c-.68-.21-1.39-.38-2.08-.55l-.29-.08c-.3-.05-.34,0-.56.53a1.85,1.85,0,0,1-2,1.16,1.74,1.74,0,0,1-.75-.31,2.37,2.37,0,0,1-.88-1.63c-.14-.79-.14-.79-.9-1l-2.27-.46a40,40,0,0,0-7.47-.73,4.42,4.42,0,0,0-.51,0c-.91.06-.91.06-1.14,1a1.86,1.86,0,0,1-1.37,1.41,2,2,0,0,1-.86,0,2.07,2.07,0,0,1-1.11-.62,3.16,3.16,0,0,1-.71-2.68A3.38,3.38,0,0,1,316.94,238.29Z"/><path d="M319.82,245.92a7.12,7.12,0,0,1,3.9-.35,12.2,12.2,0,0,1,1.2.26,10.82,10.82,0,0,1,5.21,2.83.79.79,0,0,0,.4.24,1.18,1.18,0,0,0,.46,0,5.93,5.93,0,0,1,1.83.13,3.84,3.84,0,0,1,1.22.53,3.52,3.52,0,0,1-.47,6.19,8.1,8.1,0,0,1-4.19.79c-.7,0-1.38-.15-2.06-.25a1,1,0,0,0-.91.26,2,2,0,0,1-1.79.52,1.83,1.83,0,0,1-1.31-1.39,1.16,1.16,0,0,0-.77-.81,10.13,10.13,0,0,1-3.32-2.14,6.28,6.28,0,0,1-1.42-2,3.77,3.77,0,0,1-.23-2.38A3.55,3.55,0,0,1,319.82,245.92Zm2,3.81a6.77,6.77,0,0,0,3.07,1.81.41.41,0,0,0,.4,0c.35-.33.84-.52,1.17-1a13.73,13.73,0,0,0-2.11-.76,7.45,7.45,0,0,0-2.58-.22C321.84,249.62,321.82,249.7,321.86,249.73Z"/><ellipse class="cls-1" cx="142.17" cy="74.77" rx="27.46" ry="40.02" transform="translate(-18.34 81.1) rotate(-30)"/><path d="M177.25,314.68s52.09,4,69.19-.76c0,0,7.11-8.73,23.66-40.67C270.1,273.25,203.94,272.16,177.25,314.68Z"/></svg>