<svg xmlns="http://www.w3.org/2000/svg" width="752.18" height="697.96" viewBox="0 0 752.18 697.96"><defs><style>.cls-1{fill:#fff;}</style></defs><g id="Capa_2" data-name="Capa 2"><g id="Capa_1-2" data-name="Capa 1"><path d="M139.7,182.89c-.06-.67-.13-1.35-.19-2,1.07-.84,1-2.05.94-3.2-.67-10.84-.07-21.68,0-32.51,0-1.16.13-2.36-.9-3.23l.26-2c2.57-1.37,3.21-3.64,3.75-6.4,1.12-5.71,1.84-11.54,4.62-16.87,2.09-4,4.61-8,4.2-12.82l0,0A15.54,15.54,0,0,0,160,91.53l.34,0-.34,0c3.38.47,3.64-1.41,3-4l.33.27-.31-.3c5.78.94,4.61-3.62,5.31-6.7l0,0c.66,0,1.61.25,1.94-.09,5.95-6.08,11.82-12.24,17.68-18.41.14-.14-.08-.62-.14-.94l.18-.15c3.27.37,5.33-.78,5.46-4.35l.3-.2c7.4-1.5,12.42-7.17,18.45-11,2.46-1.55,6.15-2.68,7.09-6.33a238.37,238.37,0,0,1,62.33-26.17C356.2-6.87,429.9-4.59,502.14,23.73c33.15,13,62.22,32.12,85.48,59.67,38.45,45.53,33.11,110.82,7.61,151.52a153.82,153.82,0,0,1-40.83,44c-1.93.1-3.73-.16-5.53,1.43-12.08,10.72-26.94,16.74-41.16,23.82-14.56,7.26-30.46,10.81-46,15.18-13,3.66-26.58,4.94-40,6.69-3.44.45-7.62-.82-10.32,2.75l-2,0c-.35-2.18-1.93-2.18-3.39-1.6-2.44,1-4.94.73-7.4.66-18.29-.48-36.57.59-54.88-.74-10.58-.77-20.86-3.15-31.4-4-8-.66-15.93-3.22-23.8-5.58-5.69-1.7-11.86-2.21-17.7-4.27-15-5.3-30.3-10-43.39-19.58-2-1.47-4.71-2.74-7.43-.9a.62.62,0,0,1-.57-.28c.3-5.28-3.71-3.58-6.43-4l-.21-.12c1-2.57-1.3-4.33-2.51-4.7-4.17-1.28-6.87-4.4-10.13-6.8-8-5.85-14.88-12.85-21.52-20.11-4.17-4.55-8-9.45-12.3-13.84-2.38-2.42-4.64-4.61-4.95-8.19-.26-3.15-2.08-4.32-5.11-3.76l0,.06c1-5.35-3-9-4.78-13.36-3.41-8.37-7.77-16.32-8.16-25.68C143.24,188.7,142.48,185.3,139.7,182.89Zm237.61,34,1.3.91c7.81,7.66,9.17,16.91,6.64,27.1-.33,1.33-1.72,2.47,0,4,5,4.37,20.12,5.89,25.91,2.46,2.55-1.51,3.68-3.05.81-5.59a85.16,85.16,0,0,1-6.39-7c-3.57-4-7.18-7.87-10.69-11.87-1.23-1.4-2.39-3.13-.67-4.85s3.39-.59,4.91.54a26.26,26.26,0,0,1,2.29,1.93c6.42,6,12.77,12.17,19.25,18.16,4.84,4.48,14.3,3.55,19.49-1.76,4.56-4.66,4.15-8.09-1.63-14.55q-9.83-11-19.57-22c-1.36-1.53-2.82-3.41-1.1-5.26s3.71-.37,5.33.76a34.42,34.42,0,0,1,3.81,3.23c6.74,6.43,13.5,12.85,20.17,19.36,7,6.86,17,6.49,24.33-1,5.92-6.07,5.07-12.09-2.64-19.76q-13.62-13.58-27.1-27.29c-1.59-1.6-3.83-3.6-1.59-5.93,2-2,3.95-.19,5.65,1.18,1.29,1,2.58,2.1,3.82,3.21q14.7,13.14,29.37,26.33a16.18,16.18,0,0,0,22.82-1.34c4.88-5.6,3.57-13-3.48-19.12-18.48-16-36.89-32.15-55.51-48-12.54-10.68-24.74-21.79-38.34-31.16C397,94.33,389,91.91,379.92,94.69a43.2,43.2,0,0,0-12.47,6.16c-9.5,6.74-18.66,14-28.31,20.46-13.18,8.86-27.13,8.11-40.76,1.2-8.42-4.27-9.24-11.36-2.87-18.35,7.27-8,14.64-15.86,22.38-24.22h-3.42a2.1,2.1,0,0,0-.81.2l-2.25.68c-1.76-1.53-3.82-1.19-5.64-.48C290.69,86.16,275.43,85,260,82c-13.74-2.59-26.66-7.93-40.12-11.46-5.76-1.51-11.73-3.35-17.07-6.45-1-.6-2.7-2.26-3.35.57l-2.1-.08c-4.76.33-9.06,4-9.88,8.33-1.82,1.92-3.63,3.85-5.47,5.75-14.8,15.3-25.94,32.72-31.5,53.48-.83,3.1-.59,4.62,3,5.41,8.58,1.89,17.1,4.11,25.59,6.4,24.87,6.71,49.67,13.6,71.73,27.63.58.37,1.56.12,2.35.16,1.38,0,2.59,1,4.18-.19,7.2-5.26,14.5-6,21.9-.13a4.25,4.25,0,0,0,4.64.81l.15.14a2.06,2.06,0,0,0,.91,2.64l.5-1.15,2,0c2,1.79,3.38-.35,4.83-1,9.9-4.14,19.84-1.69,26,5.22,6.52,7.34,12.32,5.16,19.19,3.68l2,.31c3,4.06,7.24,5.92,12.1,6.62l0,0c.07.81-.15,1.83.25,2.41,3.28,4.74,5.44,9.77,4.74,15.71-.14,1.15.68,1.77,1.75,2l1.19.66c.35,1.14,1.35,1.29,2.3,1.51,4.92,1.11,9.82,2.22,13.45,6.21.59.65,1.48-.11,2-.81.05.14.18.3.14.4a4.31,4.31,0,0,1-.42.63c.05.67.11.85.17,0A.4.4,0,0,1,377.31,216.9ZM289.49,183l.05,0c-.91.05-1.84.09-1.47,1.44l-.22.16c-.72-.24-1,0-.65.69a.58.58,0,0,1-.3.4c-2.71-.6-4-2.58-5.09-4.92-2.71-5.69-7.56-8.25-13.6-7.71-3.1.28-7.06,0-8.6,4.1l.08-.09-1.15,1.05.08-.06c-2.39-.1-3.21,1.2-3,3.39l0,.29-.23.18c-4.91,2.68-5.32,8.67-.89,13a.42.42,0,0,1,0,.61c-.11,2.59-.84,5.36,2.53,6.7,5.15,2,10,4.69,16,2.07,3.21-1.41,5.62-.54,5.48,4-.12,3.86,1.06,7.53,5.29,9.15l.07.06c-.86,3.54.37,4.91,4,3.8l.09.07c1,4.24,3.94,4.55,7.46,3.53l4,.13c1.1,1.15,2.36.88,3.68.47,5.52-1.72,5.5-1.71,5.87,4.44.25,4.14,2,6.61,6.65,5.74l0-.05c.19.77.14,1.78.62,2.29,2.52,2.66,13.54,4.27,16.69,2.55a2.41,2.41,0,0,0,1.14-3l.38.22-.39-.19c3.18-.53,4.92.19,5.6,4,.84,4.59,2.46,8.7,7.22,11.69,8.88,5.57,21.93,4.27,27.89-3,6.77-8.27,6.59-24.77-4-30.37-5.64-3-11.74-5.41-17.79-2.37-3.12,1.56-3.45-.21-4.71-1.59l.28-.94c1.49-.12,2.7-.87,2.74-2.35.11-4.1,1-8.42-.42-12.25-1.26-3.31-1.77-8.34-7.58-7.3l0,0c-3.74-6.4-13.78-7.17-17.9-1.38-.48.43-1,.88-1.46,1.29-4.2,3.42-4.55,3.33-5.53-1.8-.49-2.64-1.9-4.84-3-7.18.26-2.55-1-3.32-3.35-2.93l-2.64-1.21a2,2,0,0,0-2.11-.82l.05,0c-3.45-4.23-14-2.25-16.7,3.14l.06-.07Zm87.83,119.85a356.41,356.41,0,0,0,46.93-3.27c29.76-4.13,58.57-11.8,86-24.39,27-12.37,51.09-28.55,70-51.67,16-19.6,25.76-41.77,25.37-67.65-.1-6.62,0-6.69-6.29-5.28-28.42,6.41-56,15.42-83.25,25.76-3.8,1.45-4.23,3.26-3.29,6.78.85,3.14,1.71,6.38,1,9.79-2.34,11.62-12.17,19.5-24.84,19.78-2.12,0-4.38-.57-4.72,2.8-1.33,12.93-16.11,21.39-26.65,21.18-3.15-.07-4.73,1.08-6.11,3.8a25.32,25.32,0,0,1-25.6,13.45,6.4,6.4,0,0,0-6.21,2.11c-3,3.26-6.84,5-11.26,5.92-9,2-17.17-.34-25.15-3.91-3.08-1.38-5.57-1.42-8.29.69-12.44,9.66-30.91,5.83-39.44-8.07-1.48-2.43-3-3-5.64-2.74-10.3,1.13-18.48-2.88-24.58-11-1.68-2.24-3.2-3.17-6.07-3.2-11.52-.13-20.25-5.49-25-15.91-1.94-4.28-4.36-5.82-8.48-5.81-10.05,0-22.84-10.73-20.37-25.63.87-5.25-.35-8.61-5.53-10.42-1.85-.65-3.43-2-5.23-2.87-26.4-12.32-54.46-19.21-82.73-25.46-3.86-.85-4.37,1-4.45,3.75a103.14,103.14,0,0,0,11,49.62c7.75,15.58,18.81,28.6,31.62,40.15,23.52,21.21,51.23,35,81,45.09C305.27,297.78,340.58,302.33,377.32,302.86Zm8.39-244.48c-21,.26-36.88,6.21-52.93,20.5-10.83,9.66-20.22,20.72-30.21,31.2-2.34,2.45-1.7,3.9.86,5.33,5.13,2.85,10.69,3.4,16.42,3.09,8.64-.47,15.25-5.28,21.79-10.21,8.5-6.4,16.41-13.61,25.7-18.93,13.62-7.79,27.05-8.18,40.36,1,6.06,4.15,11.85,8.6,17.49,13.28,25.6,21.28,50.71,43.12,75.79,65,1.78,1.55,3.12,2.82,6,1.56a548,548,0,0,1,91.31-30c6.35-1.51,6.32-1.57,4.6-8-6.59-24.64-20.95-44.23-39.49-61.19-2.83-2.59-4.93-3.13-8.65-1.49-40.83,18-81.61,19.37-122.5-.29A106.62,106.62,0,0,0,385.71,58.38ZM550.5,60.73a184.81,184.81,0,0,0-30-18.72C480.68,21.47,437.9,12,393.43,10A342.35,342.35,0,0,0,310,15.81c-34.73,6.94-67.59,18.6-97.44,38-1.59,1-4.29,1.68-4,3.89s3.09,2.21,4.9,2.83a450.25,450.25,0,0,0,56.1,15.82,58.65,58.65,0,0,0,23.82-.19c9.91-2.1,19.42-6.28,29.56-6.86,5.38-.31,9.46-2.3,13.57-5.13,23-15.89,48.33-18,74.89-12,11.76,2.64,22.51,8,33.6,12.47,27.41,11.14,55.54,12.62,84,4.24C536.21,66.73,543.43,64.81,550.5,60.73Z"/><path d="M.17,476.15c.77-10.56-1.58-23.33,1.35-35.8,3.6-15.3,12.33-26.44,27.91-30.81s30.06-2.54,42,9.54c1.72,1.74,2.63,2.1,4.64.15,9.87-9.56,21.29-12.1,35.26-10.92,18.61,1.58,33.77,17.46,35.06,37.22,1.42,21.78.23,43.62.58,65.43,0,2.37-1.05,2.74-3,2.71-6-.07-12-.22-18,.06-3.22.14-3.82-1-3.8-4q.18-29,0-58c-.05-6.94-1.81-13.38-8.61-16.84a19,19,0,0,0-19.94,1c-6,3.91-7.9,10-7.89,16.84,0,18.66-.14,37.31.07,56,0,4-1,5.19-5,4.94a137.4,137.4,0,0,0-16,0c-3.21.16-3.86-1-3.84-4,.12-18.49.06-37,0-55.47a37.92,37.92,0,0,0-.37-5.43c-1.72-11.62-7.62-16.63-18.74-16-9.95.56-16.93,8-17,18.56-.14,19-.23,38,.07,57,.07,4.61-1.3,5.72-5.59,5.37a75,75,0,0,0-14,0c-4.74.51-5.45-1.4-5.32-5.59C.38,498.19.17,488.19.17,476.15Z"/><path d="M444.93,643.66c-19.34,22.17-54.24,12.92-65.27-15.46-7.45-19.18-6.56-38.82,2-57.8,5.33-11.85,14.6-18.79,27.24-21.1,16.34-3,32.11-2.41,46.32,7.87,9,6.54,14.81,15.32,15.86,26.1a369.53,369.53,0,0,1,.23,74.28c-2.87,27.6-25.17,43.3-52.79,40-18.53-2.23-32.4-10.4-39.3-28.43-2-5.17-1.95-5.19,3.5-5.2,3.83,0,7.66,0,11.49,0,6.25-.06,11.6.22,17,5.46,8.94,8.71,22.81,5.75,29.8-4.79C444.41,659.36,446.12,650.35,444.93,643.66Zm.75-40.68c-.07-8.07-1.33-15.61-5.47-22.62-4.26-7.19-10.51-9.79-18.44-9.22-7.57.54-13.3,3.88-16.21,11.2a56.13,56.13,0,0,0-1.74,37.14c2,6.86,6.09,11.86,13.45,13.2,8,1.47,15.58.78,21.45-6C444.75,619.8,445.18,611.32,445.68,603Z"/><path d="M195.56,642.52c0,11,0,21.1,0,31.17,0,4.13-.62,7.93-3.67,11-3.28,3.34-18.17,6.07-22.24,4-2-1-1.18-2.93-1.18-4.44q-.08-38,0-76c0-5.33-.08-10.66,0-16,.51-21.54,11.73-36.35,32.5-41.9a63.25,63.25,0,0,1,34.54.15c14.79,4.33,24.5,14.25,28.77,28.7,6.08,20.58,5.45,40.91-6.47,59.6-11.37,17.81-35.93,23.12-53.27,12.06C201.34,648.86,199.24,645.64,195.56,642.52Zm0-39.59a35.8,35.8,0,0,0,2.06,14.79c3,8.38,8.34,14.19,17.79,15.27,8.66,1,15.78-1.89,19.87-9.4,7.31-13.43,7.09-27.55.69-41.23-4.17-8.91-12.19-11.63-21.68-10.63-7.6.8-14.15,6.4-16.6,14.54A48.54,48.54,0,0,0,195.58,602.93Z"/><path d="M612.46,421.67c0-8.7,0-16.95,0-25.19.08-14.18,11.25-23.29,25.37-20.94,2.8.47,1.88,2.3,1.88,3.73,0,16.49-.1,33-.14,49.48,0,13.5-.45,27,.1,40.48.92,22.28-11.79,44.66-44.61,46.41a73.73,73.73,0,0,1-22.76-2.38c-19.3-5-28.37-18.86-31.12-37.4-2.41-16.29-1-32.31,7.11-47.08A40.11,40.11,0,0,1,593.8,409C600,410.63,603.21,412.76,612.46,421.67ZM568,463a48.4,48.4,0,0,0,3,17.2c3.25,8.2,9.07,13,18,13.41s16.16-3,20-11.15c6.44-13.58,6.13-27.46-.72-40.78-3.82-7.44-10.65-10.56-19.06-10.25s-14,4.29-17.51,11.8C568.9,449.26,568,455.59,568,463Z"/><path d="M221.73,469.08c-11,0-22,.14-33-.09-3.65-.07-4.66.91-4,4.51,1.69,9,6,16.19,15.08,18.73,9.51,2.66,19.2,3.22,26.88-5a4.77,4.77,0,0,1,3.88-1.65c7.66,0,15.32.15,23,0,3.42-.06,3,1.35,2,3.56a43.62,43.62,0,0,1-20.73,21.48c-20.48,10.17-46.89,6.38-63.93-8.89-6.68-6-10.12-13.66-11.84-22.22-2.85-14.18-2.84-28.28,2.5-41.91,7-17.87,20.8-27.4,39.42-29.35,17.39-1.82,33.64,1.41,45.74,15.61,9,10.53,11.89,23.13,11.88,36.65,0,8.57.07,8.57-8.43,8.58Zm-14.28-17.64c6.31,0,12.64-.26,18.93.08,4.51.25,4.51-1.9,3.63-5.11-3-11-11.29-16.82-23.43-16.4-10.72.37-18.62,7.25-20.88,18-.55,2.61,0,3.57,2.82,3.49C194.82,451.32,201.14,451.44,207.45,451.44Z"/><path d="M752.18,461.5c-.41,17.81-5.46,34.05-20.13,44.72-17.92,13-38.36,13.15-57.86,4.18-18.93-8.7-25.28-26.29-26.57-45.91a59.57,59.57,0,0,1,4.9-28.26c9.53-21.67,28.52-31.49,54.22-29,24.7,2.39,38.43,17.85,43.7,40.44C751.49,452.16,751.62,456.88,752.18,461.5Zm-28.53.12A45.09,45.09,0,0,0,720.82,444c-3.75-9.34-11.08-14-21.22-14.28-11.12-.26-18.08,5.94-21.16,14.18a48.39,48.39,0,0,0,.39,36.11c3.54,8.7,10.59,13.07,19.94,13.3s16.78-3.49,21.12-12.26C722.93,474.9,723.66,468.33,723.65,461.62Z"/><path d="M534.72,547.75c37.3-1.19,52.91,28.4,52.06,57-.45,15.15-5.09,29-16.36,39.54-14.06,13.18-31.42,14.34-49.19,11.1-21.82-4-36.91-22.34-38.72-46-1.09-14.27,1.07-27.81,8.8-40.22,8.68-13.92,21.55-20.2,37.42-21.34C530.71,547.63,532.72,547.75,534.72,547.75Zm-24.36,54.08a40.34,40.34,0,0,0,3.3,19c4.11,9,11.33,13.08,21.09,13.06,9.47,0,16.52-4.23,20.18-12.82,5.25-12.3,5.15-25,.27-37.42-3.45-8.74-10.58-13.14-19.89-13.33s-16.82,3.35-21.18,12.15A38.85,38.85,0,0,0,510.36,601.83Z"/><path d="M532.34,458.12c0,4.83-.06,9.67,0,14.5.38,25-12,37.82-34.6,41.62a95.18,95.18,0,0,1-30.82.56c-15-2.37-24-12-25.21-26.64-1.34-16.22,6.43-28.48,21.12-33.37,8.76-2.92,17.88-3.81,27-4.89A38.07,38.07,0,0,0,500,447.54c3.3-1.36,5.48-3.71,5.5-7.56,0-4-1.4-7.4-5.28-8.82a30.06,30.06,0,0,0-21-.4,11.22,11.22,0,0,0-7.29,8.88c-.64,3.37-2.32,3.71-5.12,3.64-6.16-.17-12.33-.24-18.49,0-2.78.1-3.26-.7-3.07-3.34,1-14.45,10.12-26.09,24.62-30a72.07,72.07,0,0,1,45.57,2.43c11.9,4.58,16.51,13.78,16.88,25.73.2,6.66,0,13.33,0,20Zm-27.08,5.25c-3.25,1.11-6,2.25-8.87,3s-5.89,1.05-8.81,1.68c-4.06.88-8.2,1.52-12,3.41a12.87,12.87,0,0,0-7,13.69c.79,5.74,4.15,9.36,9.77,10.49a22.22,22.22,0,0,0,26.83-19.89C505.54,471.79,505.26,467.78,505.26,463.37Z"/><path d="M365.41,599.61c0,6,.07,12,0,18-.27,18.79-8.09,30-25.95,35.84-13.69,4.5-27.92,4.92-42,2.17S275.9,643.46,274.57,629s5.35-26.09,17.84-31.64c10.09-4.48,21-4.88,31.65-6.54,3.29-.51,6.63-.82,9.62-2.48s5-3.74,4.84-7.47-1.4-6.67-4.76-8.14a28.12,28.12,0,0,0-22.32-.38c-3.84,1.51-5.73,5.08-6.69,8.87-.65,2.63-1.92,3.47-4.5,3.42q-9.25-.2-18.49,0c-3.12.07-3.92-1-3.56-4.13,1.78-15.4,10.91-26.15,26.06-29.8,15.49-3.73,30.7-2.88,45.51,3.33,10.69,4.47,15.14,13,15.56,24,.27,7.16.05,14.33.05,21.49Zm-27,12.73c.13-7.51.15-7.45-6.93-5.32-2.69.81-5.49,1.31-8.25,1.85-4.4.86-8.85,1.47-13,3.15-6.61,2.65-9.8,8.59-8.39,15.6,1.26,6.25,6.46,9.84,13.78,9.5C331.06,636.4,338.19,628.67,338.46,612.34Z"/><path d="M419.17,447a25,25,0,0,0-3,0c-6.95.88-11.62-.18-14.73-8.25-4.12-10.71-22.76-11.15-30.74-1.57-5.21,6.26-6.74,13.8-6.79,21.7,0,5.91-.16,11.78,1.37,17.64,3.4,13,13.36,19.22,26.44,16.23a14.17,14.17,0,0,0,11.36-11.81c.94-5.1,3.08-6.31,7.83-6a180.6,180.6,0,0,0,18.47,0c3.38-.12,4.27.69,3.56,4.22-4.1,20.47-20.46,34.81-42,36.44a75.77,75.77,0,0,1-20.39-1C352,510.9,339.69,498.2,335.75,478c-2.55-13.09-2.17-26.22,2.34-38.91,6.88-19.35,21.19-29.22,41.23-31,11.22-1,22.29.18,32.73,4.88,13.51,6.06,19.39,17.32,21.36,31.29.33,2.4-.72,2.8-2.76,2.74C426.83,446.88,423,447,419.17,447Z"/><path d="M271,482.22V459.73c0-30.59,19.62-50.81,50.25-51.8,9.1-.29,9.1-.29,9.1,8.57,0,5.16-.15,10.33.07,15.49.13,3-.9,3.84-3.75,3.3a25,25,0,0,0-5-.21c-14.77.12-22.87,7.38-23.34,22.12-.53,16.47-.23,33-.28,49.47,0,7,0,7-6.76,7-5.5,0-11-.19-16.49.06-3.19.15-4-1-3.9-4,.16-9.16.06-18.33.06-27.49Z"/><path d="M220,292.75c2.72-1.84,5.42-.57,7.43.9,13.09,9.63,28.36,14.28,43.39,19.58,5.84,2.06,12,2.57,17.7,4.27,7.87,2.36,15.77,4.92,23.8,5.58,10.54.86,20.82,3.24,31.4,4,18.31,1.33,36.59.26,54.88.74,2.46.07,5,.31,7.4-.66,1.46-.58,3-.58,3.39,1.6a377.59,377.59,0,0,1-68.74-.07c-29.9-2.58-59.08-8.62-87.09-19.68C242,304.45,230.58,299.46,220,292.75Z"/><path d="M411.41,328.75c2.7-3.57,6.88-2.3,10.32-2.75,13.44-1.75,27-3,40-6.69,15.5-4.37,31.4-7.92,46-15.18,14.22-7.08,29.08-13.1,41.16-23.82,1.8-1.59,3.6-1.33,5.53-1.43-17,13.61-36.2,23.3-56.45,31A300.85,300.85,0,0,1,418.76,328C416.3,328.25,414,329.44,411.41,328.75Z"/><path d="M156.29,231c3-.56,4.85.61,5.11,3.76.31,3.58,2.57,5.77,4.95,8.19,4.33,4.39,8.13,9.29,12.3,13.84,6.64,7.26,13.56,14.26,21.52,20.11,3.26,2.4,6,5.52,10.13,6.8,1.21.37,3.55,2.13,2.51,4.7C189.44,273.72,169.73,255.44,156.29,231Z"/><path d="M139.7,182.89c2.78,2.41,3.54,5.81,3.68,9.12.39,9.36,4.75,17.31,8.16,25.68,1.78,4.35,5.76,8,4.78,13.36A114.9,114.9,0,0,1,139.7,182.89Z"/><path d="M152.39,103.81c.41,4.86-2.11,8.83-4.2,12.82-2.78,5.33-3.5,11.16-4.62,16.87-.54,2.76-1.18,5-3.75,6.4A94.22,94.22,0,0,1,152.39,103.81Z"/><path d="M139.56,141.93c1,.87.9,2.07.9,3.23-.08,10.83-.68,21.67,0,32.51.07,1.15.13,2.36-.94,3.2A132.69,132.69,0,0,1,139.56,141.93Z"/><path d="M219.29,39.38c-.94,3.65-4.63,4.78-7.09,6.33-6,3.8-11,9.47-18.45,11A131.16,131.16,0,0,1,219.29,39.38Z"/><path d="M187.81,61.38c.06.32.28.8.14.94-5.86,6.17-11.73,12.33-17.68,18.41-.33.34-1.28.07-1.94.09A111.65,111.65,0,0,1,187.81,61.38Z"/><path d="M160,91.53a15.54,15.54,0,0,1-7.66,12.32A51.64,51.64,0,0,1,160,91.53Z"/><path d="M168.36,80.79c-.7,3.08.47,7.64-5.31,6.7A20.48,20.48,0,0,1,168.36,80.79Z"/><path d="M213,288.51c2.72.38,6.73-1.32,6.43,4Z"/><path d="M193.45,56.88c-.13,3.57-2.19,4.72-5.46,4.35A16.72,16.72,0,0,1,193.45,56.88Z"/><path d="M163,87.52c.64,2.56.38,4.44-3,4A9.28,9.28,0,0,1,163,87.52Z"/><path class="cls-1" d="M339.42,182.19l-2-.31a12.05,12.05,0,0,0-8.32-.31c-3.17,1-4.94.1-7-2.58-8-10.23-23.54-12.32-34.63-5.06l-2,0L284,172.41l-.16-.14c-8.71-8.49-21.55-8.69-30.71-.49-.79,0-1.77.21-2.35-.16-22.06-14-46.86-20.92-71.73-27.63-8.49-2.29-17-4.51-25.59-6.4-3.57-.79-3.81-2.31-3-5.41C156.06,111.42,167.2,94,182,78.7c1.84-1.9,3.65-3.83,5.47-5.75q5-4.15,9.88-8.33l2.1.08c1.5.69,3,1.46,4.52,2,14.82,5.67,29.94,10.43,45.2,14.75,20.82,5.9,41.58,7.7,62.24-.68l2.25-.68.45.1.36-.3h3.42c-7.74,8.36-15.11,16.24-22.38,24.22-6.37,7-5.55,14.08,2.87,18.35,13.63,6.91,27.58,7.66,40.76-1.2,9.65-6.49,18.81-13.72,28.31-20.46a43.2,43.2,0,0,1,12.47-6.16c9.06-2.78,17.1-.36,24.55,4.78,13.6,9.37,25.8,20.48,38.34,31.16,18.62,15.87,37,32,55.51,48,7.05,6.12,8.36,13.52,3.48,19.12A16.18,16.18,0,0,1,479,199.11q-14.67-13.19-29.37-26.33c-1.24-1.11-2.53-2.17-3.82-3.21-1.7-1.37-3.69-3.21-5.65-1.18-2.24,2.33,0,4.33,1.59,5.93q13.49,13.71,27.1,27.29c7.71,7.67,8.56,13.69,2.64,19.76-7.34,7.53-17.3,7.9-24.33,1-6.67-6.51-13.43-12.93-20.17-19.36a34.42,34.42,0,0,0-3.81-3.23c-1.62-1.13-3.58-2.65-5.33-.76s-.26,3.73,1.1,5.26q9.76,11,19.57,22c5.78,6.46,6.19,9.89,1.63,14.55-5.19,5.31-14.65,6.24-19.49,1.76-6.48-6-12.83-12.11-19.25-18.16a26.26,26.26,0,0,0-2.29-1.93c-1.52-1.13-3.24-2.21-4.91-.54s-.56,3.45.67,4.85c3.51,4,7.12,7.92,10.69,11.87a85.16,85.16,0,0,0,6.39,7c2.87,2.54,1.74,4.08-.81,5.59-5.79,3.43-20.94,1.91-25.91-2.46-1.69-1.49-.3-2.63,0-4,2.53-10.19,1.17-19.44-6.64-27.1-.23-.6-.36-1.33-1.3-.91a.4.4,0,0,0-.27.63h-.17a4.31,4.31,0,0,0,.42-.63c0-.1-.09-.26-.14-.39a22,22,0,0,0-17.73-6.92l-1.19-.66c.28-7.56-.71-14.69-6.74-20.14l0,0C348.42,184.89,344.09,183.24,339.42,182.19Z"/><path class="cls-1" d="M385.71,58.38a106.62,106.62,0,0,1,46.57,10.75c40.89,19.66,81.67,18.31,122.5.29,3.72-1.64,5.82-1.1,8.65,1.49,18.54,17,32.9,36.55,39.49,61.19,1.72,6.44,1.75,6.5-4.6,8a548,548,0,0,0-91.31,30c-2.91,1.26-4.25,0-6-1.56-25.08-21.89-50.19-43.73-75.79-65-5.64-4.68-11.43-9.13-17.49-13.28-13.31-9.13-26.74-8.74-40.36-1-9.29,5.32-17.2,12.53-25.7,18.93-6.54,4.93-13.15,9.74-21.79,10.21-5.73.31-11.29-.24-16.42-3.09-2.56-1.43-3.2-2.88-.86-5.33,10-10.48,19.38-21.54,30.21-31.2C348.83,64.59,364.67,58.64,385.71,58.38Z"/><path class="cls-1" d="M299.46,225l-4-.13L288,221.37l-.09-.07-4-3.8-.07-.06c-2.5-4.79-4-9.76-3.15-15.27.25-1.66.58-4.25-2.62-2.56-11.16,5.9-15.79,5.11-23.49-4.1a.42.42,0,0,0,0-.61,19.35,19.35,0,0,1,.89-13l.23-.18,0-.29,3-3.39-.08.06,1.15-1.05-.08.09c5.09-2.6,10.27-3.62,15.56-.65s7.3,7.9,7.79,14.91l3.94-5.73a.58.58,0,0,0,.3-.4,1.06,1.06,0,0,0,.65-.69l.22-.16,1.47-1.44-.05,0,1.22-.92-.06.07a24.36,24.36,0,0,1,16.7-3.14l-.05,0a2,2,0,0,0,2.11.82l2.64,1.21L315.4,184c1.13,2.34,2.54,4.54,3,7.18,1,5.13,1.33,5.22,5.53,1.8.5-.41,1-.86,1.46-1.29,6.22-2.79,12.16-2,17.9,1.38l0,0c3.26,2.66,5.57,5.84,6.19,10.17.57,4-.35,7.84-.93,11.73l-.28.94c-2,3.84-.63,5,3.2,4,3-.82,6-2,9.25-1.71a19,19,0,0,1,16.95,18.52c0,9.33-7.29,17.61-16.31,18.42-10.42.93-18.67-5.28-20.62-15.37-.35-1.81.64-4.58-1.9-5.15-2-.46-3.57,1.38-4.78,3l.39.19-.38-.21c-6.62,4-12.57,1.41-18.45-1.86l0,.05c-3-3.18-5.46-6.56-5.07-11.27.35-4.14-1.47-4-4.39-2.32A64.17,64.17,0,0,1,299.46,225Z"/><path d="M311.41,80.82c-20.66,8.38-41.42,6.58-62.24.68-15.26-4.32-30.38-9.08-45.2-14.75-1.55-.59-3-1.36-4.52-2,.65-2.83,2.31-1.17,3.35-.57,5.34,3.1,11.31,4.94,17.07,6.45C233.33,74.11,246.25,79.45,260,82c15.44,2.92,30.7,4.12,45.78-1.7C307.59,79.63,309.65,79.29,311.41,80.82Z"/><path d="M334.06,237.51c1.21-1.65,2.74-3.49,4.78-3,2.54.57,1.55,3.34,1.9,5.15,1.95,10.09,10.2,16.3,20.62,15.37,9-.81,16.35-9.09,16.31-18.42a19,19,0,0,0-16.95-18.52c-3.25-.33-6.2.89-9.25,1.71-3.83,1-5.24-.11-3.2-4,1.26,1.38,1.59,3.15,4.71,1.59,6-3,12.15-.61,17.79,2.37,10.59,5.6,10.77,22.1,4,30.37-6,7.3-19,8.6-27.89,3-4.76-3-6.38-7.1-7.22-11.69C339,237.7,337.24,237,334.06,237.51Z"/><path d="M287.44,173.93c11.09-7.26,26.65-5.17,34.63,5.06,2.1,2.68,3.87,3.56,7,2.58a12.05,12.05,0,0,1,8.32.31c-6.87,1.48-12.67,3.66-19.19-3.68-6.13-6.91-16.07-9.36-26-5.22C290.82,173.58,289.44,175.72,287.44,173.93Z"/><path d="M254.57,195.51c7.7,9.21,12.33,10,23.49,4.1,3.2-1.69,2.87.9,2.62,2.56-.82,5.51.65,10.48,3.15,15.27-4.23-1.62-5.41-5.29-5.29-9.15.14-4.55-2.27-5.42-5.48-4-5.92,2.62-10.81,0-16-2.07C253.73,200.87,254.46,198.1,254.57,195.51Z"/><path d="M286.9,185.66,283,191.39c-.49-7-2.57-12-7.79-14.91s-10.47-1.95-15.56.65c1.54-4.1,5.5-3.82,8.6-4.1,6-.54,10.89,2,13.6,7.71C282.92,183.08,284.19,185.06,286.9,185.66Z"/><path d="M253.15,171.78c9.16-8.2,22-8,30.71.49a4.24,4.24,0,0,1-4.63-.81c-7.4-5.86-14.7-5.13-21.9.13C255.74,172.75,254.53,171.75,253.15,171.78Z"/><path d="M299.46,225a64.17,64.17,0,0,0,6.74-2.94c2.92-1.66,4.74-1.82,4.39,2.32-.39,4.71,2.09,8.09,5.07,11.27-4.62.87-6.4-1.6-6.65-5.74-.37-6.15-.35-6.16-5.87-4.44C301.82,225.91,300.56,226.18,299.46,225Z"/><path d="M348.55,214.88c.58-3.89,1.5-7.72.93-11.73-.62-4.33-2.93-7.51-6.19-10.17,5.81-1,6.32,4,7.58,7.3,1.47,3.83.53,8.15.42,12.25C351.25,214,350,214.76,348.55,214.88Z"/><path d="M351.49,188.79c6,5.45,7,12.58,6.74,20.14-1.07-.25-1.89-.87-1.75-2,.7-5.94-1.46-11-4.74-15.71C351.34,190.62,351.56,189.6,351.49,188.79Z"/><path d="M359.42,209.59a22,22,0,0,1,17.73,6.92c-.5.69-1.39,1.45-2,.8-3.63-4-8.53-5.1-13.45-6.21C360.77,210.88,359.77,210.73,359.42,209.59Z"/><path d="M343.32,193c-5.74-3.36-11.68-4.17-17.9-1.38C329.54,185.85,339.58,186.62,343.32,193Z"/><path d="M315.62,235.63c5.88,3.27,11.83,5.89,18.45,1.86a2.4,2.4,0,0,1-1.14,3c-3.15,1.72-14.17.11-16.69-2.55C315.76,237.41,315.81,236.4,315.62,235.63Z"/><path d="M307.35,179a24.36,24.36,0,0,0-16.7,3.14C293.37,176.77,303.9,174.79,307.35,179Z"/><path d="M339.42,182.19c4.67,1.05,9,2.7,12.1,6.62C346.66,188.11,342.44,186.25,339.42,182.19Z"/><path d="M255.41,181.89a19.35,19.35,0,0,0-.89,13C250.09,190.56,250.5,184.57,255.41,181.89Z"/><path d="M197.35,64.62q-4.93,4.17-9.88,8.33C188.29,68.58,192.59,65,197.35,64.62Z"/><path d="M288,221.37l7.46,3.53C291.9,225.92,289,225.61,288,221.37Z"/><path d="M283.9,217.5l4,3.8C284.27,222.41,283,221,283.9,217.5Z"/><path d="M315.4,184,312.05,181C314.37,180.63,315.66,181.4,315.4,184Z"/><path d="M258.62,178l-3,3.39C255.41,179.23,256.23,177.93,258.62,178Z"/><path d="M284,172.41l1.41,1.49-.5,1.15A2.06,2.06,0,0,1,284,172.41Z"/><path d="M289.54,183l-1.47,1.44C287.7,183.06,288.63,183,289.54,183Z"/><path d="M309.41,179.81a2,2,0,0,1-2.11-.82A2,2,0,0,1,309.41,179.81Z"/><path d="M376.87,217.53H377C377,218.38,376.92,218.2,376.87,217.53Z"/><path d="M290.71,182.09l-1.22.92Z"/><path d="M287.85,184.57a1.06,1.06,0,0,1-.65.69C286.89,184.54,287.13,184.33,287.85,184.57Z"/><path d="M259.69,177l-1.15,1.05Z"/><path d="M314.47,79.94l-.36.3-.45-.1A2.1,2.1,0,0,1,314.47,79.94Z"/><path d="M377.31,216.9c.94-.42,1.07.31,1.3.91Z"/></g></g></svg>