<?xml version="1.0" encoding="utf-8"?>
<!-- Generator: Adobe Illustrator 25.2.3, SVG Export Plug-In . SVG Version: 6.00 Build 0)  -->
<svg version="1.1" id="Capa_1" xmlns="http://www.w3.org/2000/svg" xmlns:xlink="http://www.w3.org/1999/xlink" x="0px" y="0px"
	 viewBox="0 0 118 111" style="enable-background:new 0 0 118 111;" xml:space="preserve">
<style type="text/css">
	.st0{fill:#43BEC7;}
	.st1{fill:#FFFFFF;}
</style>
<g>
	<path class="st0" d="M27.9,33.7c0-0.1,0-0.2,0-0.3c0.1-0.1,0.1-0.3,0.1-0.4c-0.1-1.4,0-2.8,0-4.3c0-0.2,0-0.3-0.1-0.4l0-0.3
		c0.3-0.2,0.4-0.5,0.5-0.8c0.1-0.7,0.2-1.5,0.6-2.2c0.3-0.5,0.6-1,0.6-1.7c0.3-0.2,0.5-0.4,0.7-0.7c0.2-0.3,0.3-0.6,0.3-0.9h0h0
		c0.4,0.1,0.5-0.2,0.4-0.5l0,0l0,0c0.8,0.1,0.6-0.5,0.7-0.9c0.1,0,0.2,0,0.3,0c0.8-0.8,1.6-1.6,2.3-2.4c0,0,0-0.1,0-0.1l0,0
		c0.4,0,0.7-0.1,0.7-0.6l0,0c1-0.2,1.6-0.9,2.4-1.4c0.3-0.2,0.8-0.4,0.9-0.8c2.6-1.5,5.3-2.7,8.2-3.4c9.8-2.6,19.5-2.3,29,1.4
		c4.4,1.7,8.2,4.2,11.2,7.8c5.1,6,4.4,14.5,1,19.9c-1.4,2.3-3.2,4.2-5.4,5.8c-0.3,0-0.5,0-0.7,0.2c-1.6,1.4-3.5,2.2-5.4,3.1
		c-1.9,1-4,1.4-6.1,2c-1.7,0.5-3.5,0.6-5.3,0.9c-0.5,0.1-1-0.1-1.4,0.4h-0.3c0-0.3-0.3-0.3-0.4-0.2c-0.3,0.1-0.7,0.1-1,0.1
		c-2.4-0.1-4.8,0.1-7.2-0.1c-1.4-0.1-2.7-0.4-4.1-0.5c-1.1-0.1-2.1-0.4-3.1-0.7c-0.7-0.2-1.6-0.3-2.3-0.6c-2-0.7-4-1.3-5.7-2.6
		c-0.3-0.2-0.6-0.4-1-0.1c0,0,0,0,0,0c0,0,0,0,0,0c0-0.7-0.5-0.5-0.8-0.5l0,0c0.1-0.3-0.2-0.6-0.3-0.6c-0.5-0.2-0.9-0.6-1.3-0.9
		c-1.1-0.8-2-1.7-2.8-2.6c-0.5-0.6-1.1-1.2-1.6-1.8c-0.3-0.3-0.6-0.6-0.7-1.1c0-0.4-0.3-0.6-0.7-0.5v0c0.1-0.7-0.4-1.2-0.6-1.8
		c-0.4-1.1-1-2.1-1.1-3.4C28.4,34.5,28.3,34,27.9,33.7z M59.2,38.2l0.2,0.1c1,1,1.2,2.2,0.9,3.6c0,0.2-0.2,0.3,0,0.5
		c0.7,0.6,2.6,0.8,3.4,0.3c0.3-0.2,0.5-0.4,0.1-0.7c-0.3-0.3-0.6-0.6-0.8-0.9c-0.5-0.5-0.9-1-1.4-1.6c-0.2-0.2-0.3-0.4-0.1-0.6
		c0.2-0.2,0.4-0.1,0.6,0.1c0.1,0.1,0.2,0.2,0.3,0.3c0.8,0.8,1.7,1.6,2.5,2.4c0.6,0.6,1.9,0.5,2.6-0.2c0.6-0.6,0.5-1.1-0.2-1.9
		c-0.9-1-1.7-1.9-2.6-2.9c-0.2-0.2-0.4-0.4-0.1-0.7c0.2-0.2,0.5,0,0.7,0.1c0.2,0.1,0.3,0.3,0.5,0.4c0.9,0.8,1.8,1.7,2.7,2.5
		c0.9,0.9,2.2,0.9,3.2-0.1c0.8-0.8,0.7-1.6-0.3-2.6c-1.2-1.2-2.4-2.4-3.6-3.6c-0.2-0.2-0.5-0.5-0.2-0.8c0.3-0.3,0.5,0,0.7,0.2
		c0.2,0.1,0.3,0.3,0.5,0.4c1.3,1.1,2.6,2.3,3.9,3.5c0.4,0.4,1,0.6,1.5,0.5c0.6,0,1.1-0.3,1.5-0.7c0.6-0.7,0.5-1.7-0.5-2.5
		c-2.4-2.1-4.9-4.2-7.3-6.3c-1.7-1.4-3.3-2.9-5-4.1c-1-0.7-2-1-3.2-0.6c-0.6,0.2-1.1,0.5-1.6,0.8c-1.3,0.9-2.5,1.8-3.7,2.7
		c-1.7,1.2-3.6,1.1-5.4,0.2c-1.1-0.6-1.2-1.5-0.4-2.4c1-1,1.9-2.1,2.9-3.2h-0.5c0,0-0.1,0-0.1,0l-0.3,0.1c-0.2-0.2-0.5-0.2-0.7-0.1
		c-2,0.8-4,0.6-6,0.2c-1.8-0.3-3.5-1-5.3-1.5c-0.8-0.2-1.5-0.4-2.2-0.8c-0.1-0.1-0.4-0.3-0.4,0.1l-0.3,0c-0.6,0-1.2,0.5-1.3,1.1
		c-0.2,0.3-0.5,0.5-0.7,0.8c-1.9,2-3.4,4.3-4.1,7c-0.1,0.4-0.1,0.6,0.4,0.7c1.1,0.2,2.3,0.5,3.4,0.8c3.3,0.9,6.5,1.8,9.4,3.6
		c0.1,0,0.2,0,0.3,0c0.2,0,0.3,0.1,0.6,0c0.9-0.7,1.9-0.8,2.9,0c0.1,0.1,0.2,0.1,0.3,0.1c0.1,0,0.2,0,0.3,0l0,0c0,0.1,0,0.1,0,0.2
		c0,0.1,0.1,0.1,0.1,0.1l0.1-0.2h0.3c0.3,0.2,0.4,0,0.6-0.1c1.3-0.5,2.6-0.2,3.4,0.7c0.9,1,1.6,0.7,2.5,0.5l0.3,0
		c0.4,0.5,1,0.8,1.6,0.9c0,0.1,0,0.2,0,0.3c0.4,0.6,0.7,1.3,0.6,2.1c0,0.2,0.1,0.2,0.2,0.3l0.2,0.1c0,0.1,0.2,0.2,0.3,0.2
		c0.6,0.1,1.3,0.3,1.8,0.8C59,38.3,59.1,38.2,59.2,38.2C59.2,38.1,59.2,38.2,59.2,38.2C59.2,38.2,59.1,38.2,59.2,38.2
		C59.1,38.3,59.1,38.4,59.2,38.2C59.1,38.2,59.1,38.2,59.2,38.2C59.1,38.2,59.1,38.2,59.2,38.2L59.2,38.2z M47.6,33.7L47.6,33.7
		c-0.1,0-0.2,0-0.2,0.2l0,0c-0.1,0-0.1,0-0.1,0.1c0,0,0,0,0,0c0,0,0,0,0,0c-0.4-0.1-0.5-0.3-0.7-0.6c-0.4-0.7-1-1.1-1.8-1
		c-0.4,0-0.9,0-1.1,0.5l0,0l-0.2,0.1l0,0c-0.3,0-0.4,0.2-0.4,0.4v0l0,0c-0.6,0.4-0.7,1.1-0.1,1.7c0,0,0,0,0,0c0,0,0,0,0,0
		c0,0,0,0,0,0c0,0,0,0,0,0c0,0.3-0.1,0.7,0.3,0.9c0.7,0.3,1.3,0.6,2.1,0.3c0.4-0.2,0.7-0.1,0.7,0.5c0,0.5,0.1,1,0.7,1.2l0,0
		c-0.1,0.5,0,0.6,0.5,0.5l0,0c0.1,0.6,0.5,0.6,1,0.5l0.5,0c0.1,0.2,0.3,0.1,0.5,0.1c0.7-0.2,0.7-0.2,0.8,0.6c0,0.5,0.3,0.9,0.9,0.8
		v0c0,0.1,0,0.2,0.1,0.3c0.3,0.3,1.8,0.6,2.2,0.3c0.1,0,0.1-0.1,0.2-0.2c0-0.1,0-0.2,0-0.2l0.1,0l-0.1,0c0.4-0.1,0.6,0,0.7,0.5
		c0.1,0.6,0.3,1.1,1,1.5c1.2,0.7,2.9,0.6,3.7-0.4c0.9-1.1,0.9-3.2-0.5-4c-0.7-0.4-1.5-0.7-2.3-0.3c-0.4,0.2-0.5,0-0.6-0.2l0-0.1
		c0.2,0,0.4-0.1,0.4-0.3c0-0.5,0.1-1.1-0.1-1.6c-0.2-0.4-0.2-1.1-1-1c-0.5-0.8-1.8-0.9-2.4-0.2c-0.1,0.1-0.1,0.1-0.2,0.2
		c-0.6,0.4-0.6,0.4-0.7-0.2c-0.1-0.3-0.2-0.6-0.4-0.9c0-0.3-0.1-0.4-0.4-0.4l-0.3-0.2c0,0-0.1-0.1-0.1-0.1c0,0-0.1,0-0.2,0h0
		c-0.5-0.6-1.8-0.3-2.2,0.4l0,0L47.6,33.7z M59.2,49.5c2.1,0,4.1-0.2,6.2-0.4c3.9-0.5,7.7-1.5,11.3-3.2c3.6-1.6,6.7-3.7,9.2-6.8
		c2.1-2.6,3.4-5.5,3.3-8.9c0-0.9,0-0.9-0.8-0.7c-3.7,0.8-7.4,2-11,3.4c-0.5,0.2-0.6,0.4-0.4,0.9c0.1,0.4,0.2,0.8,0.1,1.3
		c-0.3,1.5-1.6,2.6-3.3,2.6c-0.3,0-0.6-0.1-0.6,0.4c-0.2,1.7-2.1,2.8-3.5,2.8c-0.4,0-0.6,0.1-0.8,0.5c-0.3,0.6-0.8,1.1-1.4,1.4
		c-0.6,0.3-1.3,0.4-2,0.4c-0.1,0-0.3,0-0.4,0c-0.1,0-0.3,0.1-0.4,0.3c-0.4,0.4-0.9,0.7-1.5,0.8c-1.2,0.3-2.3,0-3.3-0.5
		c-0.4-0.2-0.7-0.2-1.1,0.1c-1.6,1.3-4.1,0.8-5.2-1.1c-0.2-0.3-0.4-0.4-0.7-0.4c-1.4,0.1-2.4-0.4-3.2-1.4c-0.2-0.3-0.4-0.4-0.8-0.4
		c-1.5,0-2.7-0.7-3.3-2.1c-0.3-0.6-0.6-0.8-1.1-0.8c-1.3,0-3-1.4-2.7-3.4c0.1-0.7,0-1.1-0.7-1.4c-0.2-0.1-0.5-0.3-0.7-0.4
		c-3.5-1.6-7.2-2.5-10.9-3.3c-0.5-0.1-0.6,0.1-0.6,0.5c-0.1,2.3,0.4,4.5,1.4,6.5c1,2,2.5,3.7,4.2,5.3c3.1,2.8,6.7,4.6,10.7,5.9
		C49.7,48.8,54.3,49.4,59.2,49.5L59.2,49.5z M60.3,17.4c-2.8,0-4.9,0.8-7,2.7c-1.4,1.3-2.7,2.7-4,4.1c-0.3,0.3-0.2,0.5,0.1,0.7
		c0.7,0.4,1.4,0.4,2.2,0.4c1.1-0.1,2-0.7,2.9-1.3c1.1-0.8,2.2-1.8,3.4-2.5c1.8-1,3.6-1.1,5.3,0.1c0.8,0.5,1.6,1.1,2.3,1.7
		c3.4,2.8,6.7,5.7,10,8.5c0.2,0.2,0.4,0.4,0.8,0.2c3.9-1.7,7.9-3,12-3.9c0.8-0.2,0.8-0.2,0.6-1c-0.9-3.2-2.8-5.8-5.2-8
		c-0.4-0.3-0.6-0.4-1.1-0.2c-5.4,2.4-10.7,2.5-16.1,0C64.5,17.9,62.4,17.4,60.3,17.4L60.3,17.4z M82,17.7c-1.2-0.9-2.6-1.8-3.9-2.5
		c-5.2-2.7-10.9-3.9-16.7-4.2c-3.7-0.2-7.4,0.1-11,0.8c-4.6,0.9-8.9,2.4-12.8,5c-0.2,0.1-0.6,0.2-0.5,0.5c0,0.3,0.4,0.3,0.6,0.4
		c2.4,0.8,4.9,1.5,7.4,2.1c1,0.2,2.1,0.2,3.1,0c1.3-0.3,2.6-0.8,3.9-0.9c0.7,0,1.2-0.3,1.8-0.7c3-2.1,6.4-2.4,9.9-1.6
		c1.5,0.3,3,1,4.4,1.6c3.6,1.5,7.3,1.7,11.1,0.6C80.1,18.5,81,18.3,82,17.7z"/>
	<path class="st0" d="M9.5,72.2c0.1-1.4-0.2-3.1,0.2-4.7c0.5-2,1.6-3.5,3.7-4s4-0.3,5.5,1.3c0.2,0.2,0.3,0.3,0.6,0
		c1.3-1.3,2.8-1.6,4.6-1.4c2.4,0.2,4.4,2.3,4.6,4.9c0.2,2.9,0,5.7,0.1,8.6c0,0.3-0.1,0.4-0.4,0.4c-0.8,0-1.6,0-2.4,0
		c-0.4,0-0.5-0.1-0.5-0.5c0-2.5,0-5.1,0-7.6c0-0.9-0.2-1.8-1.1-2.2c-0.4-0.2-0.9-0.3-1.3-0.3c-0.5,0-0.9,0.2-1.3,0.4
		c-0.8,0.5-1,1.3-1,2.2c0,2.4,0,4.9,0,7.3c0,0.5-0.1,0.7-0.7,0.6c-0.7,0-1.4,0-2.1,0c-0.4,0-0.5-0.1-0.5-0.5c0-2.4,0-4.8,0-7.3
		c0-0.2,0-0.5,0-0.7c-0.2-1.5-1-2.2-2.5-2.1c-1.3,0.1-2.2,1-2.2,2.4c0,2.5,0,5,0,7.5c0,0.6-0.2,0.7-0.7,0.7c-0.6-0.1-1.2-0.1-1.8,0
		c-0.6,0.1-0.7-0.2-0.7-0.7C9.6,75.1,9.5,73.7,9.5,72.2z"/>
	<path class="st0" d="M68.1,94.1c-2.5,2.9-7.1,1.7-8.6-2c-1-2.5-0.9-5.1,0.3-7.6c0.7-1.6,1.9-2.5,3.6-2.8c2.2-0.4,4.2-0.3,6.1,1
		c1.2,0.9,1.9,2,2.1,3.4c0.3,3.2,0.3,6.5,0,9.7c-0.4,3.6-3.3,5.7-6.9,5.2c-2.4-0.3-4.3-1.4-5.2-3.7c-0.3-0.7-0.3-0.7,0.5-0.7
		c0.5,0,1,0,1.5,0c0.8,0,1.5,0,2.2,0.7c1.2,1.1,3,0.8,3.9-0.6C68,96.2,68.2,95,68.1,94.1z M68.2,88.8c0-1.1-0.2-2-0.7-3
		c-0.6-0.9-1.4-1.3-2.4-1.2c-1,0.1-1.8,0.5-2.1,1.5c-0.6,1.5-0.7,3.3-0.2,4.9c0.3,0.9,0.8,1.6,1.8,1.7c1.1,0.2,2.1,0.1,2.8-0.8
		C68,91,68.1,89.9,68.2,88.8L68.2,88.8z"/>
	<path class="st0" d="M35.2,94c0,1.4,0,2.8,0,4.1c0,0.5-0.1,1-0.5,1.4c-0.4,0.4-2.4,0.8-2.9,0.5c-0.3-0.1-0.2-0.4-0.2-0.6
		c0-3.3,0-6.6,0-10c0-0.7,0-1.4,0-2.1c0.1-2.8,1.5-4.8,4.3-5.5c1.5-0.4,3.1-0.4,4.5,0c1.9,0.6,3.2,1.9,3.8,3.8
		c0.8,2.7,0.7,5.4-0.9,7.8c-1.5,2.3-4.7,3-7,1.6C36,94.8,35.7,94.4,35.2,94z M35.2,88.8c0,0.7,0,1.3,0.3,1.9c0.4,1.1,1.1,1.9,2.3,2
		c1.1,0.1,2.1-0.2,2.6-1.2c1-1.8,0.9-3.6,0.1-5.4c-0.5-1.2-1.6-1.5-2.9-1.4c-1,0.1-1.9,0.8-2.2,1.9C35.3,87.3,35.2,88,35.2,88.8
		L35.2,88.8z"/>
	<path class="st0" d="M90.1,65c0-1.1,0-2.2,0-3.3c0-1.9,1.5-3.1,3.3-2.7c0.4,0.1,0.2,0.3,0.2,0.5c0,2.2,0,4.3,0,6.5
		c0,1.8-0.1,3.5,0,5.3c0.1,2.9-1.6,5.9-5.9,6.1c-1,0.1-2-0.1-3-0.3c-2.5-0.7-3.7-2.5-4.1-4.9c-0.3-2.1-0.1-4.2,0.9-6.2
		c0.6-1,1.5-1.9,2.5-2.3c1.1-0.5,2.3-0.6,3.4-0.3C88.5,63.6,88.9,63.9,90.1,65z M84.3,70.4c0,0.8,0.1,1.5,0.4,2.3
		c0.4,1.1,1.2,1.7,2.4,1.8c1.2,0.1,2.1-0.4,2.6-1.5c0.8-1.8,0.8-3.6-0.1-5.3c-0.5-1-1.4-1.4-2.5-1.3c-1.1,0-1.8,0.6-2.3,1.5
		C84.4,68.6,84.3,69.5,84.3,70.4z"/>
	<path class="st0" d="M38.7,71.2c-1.4,0-2.9,0-4.3,0c-0.5,0-0.6,0.1-0.5,0.6c0.2,1.2,0.8,2.1,2,2.5c1.3,0.3,2.5,0.4,3.5-0.7
		c0.1-0.1,0.1-0.1,0.2-0.2c0.1,0,0.2-0.1,0.3,0c1,0,2,0,3,0c0.5,0,0.4,0.2,0.3,0.5c-0.5,1.2-1.5,2.2-2.7,2.8
		c-2.7,1.3-6.2,0.8-8.4-1.2c-0.9-0.8-1.3-1.8-1.6-2.9c-0.4-1.9-0.4-3.7,0.3-5.5c0.9-2.3,2.7-3.6,5.2-3.8c2.3-0.2,4.4,0.2,6,2
		c1.2,1.4,1.6,3,1.6,4.8c0,1.1,0,1.1-1.1,1.1L38.7,71.2z M36.8,68.9c0.8,0,1.7,0,2.5,0c0.6,0,0.6-0.2,0.5-0.7
		c-0.4-1.4-1.5-2.2-3.1-2.1c-1.4,0-2.5,1-2.7,2.4c-0.1,0.3,0,0.5,0.4,0.5C35.1,68.9,36,68.9,36.8,68.9z"/>
	<path class="st0" d="M108.5,70.2c-0.1,2.3-0.7,4.5-2.6,5.9c-2.4,1.7-5,1.7-7.6,0.5c-2.5-1.1-3.3-3.4-3.5-6
		c-0.1-1.3,0.1-2.5,0.6-3.7c1.3-2.8,3.8-4.1,7.1-3.8c3.3,0.3,5.1,2.3,5.8,5.3C108.4,69,108.4,69.6,108.5,70.2z M104.7,70.3
		c0-0.8-0.1-1.6-0.4-2.3c-0.5-1.2-1.5-1.8-2.8-1.9c-1.5,0-2.4,0.8-2.8,1.9c-0.6,1.5-0.6,3.2,0.1,4.7c0.5,1.1,1.4,1.7,2.6,1.7
		c1.2,0,2.2-0.5,2.8-1.6C104.6,72,104.7,71.1,104.7,70.3z"/>
	<path class="st0" d="M79.9,81.5c4.9-0.2,7,3.7,6.9,7.5c-0.1,2-0.7,3.8-2.2,5.2c-1.9,1.7-4.1,1.9-6.5,1.5c-2.9-0.5-4.9-2.9-5.1-6
		c-0.1-1.9,0.1-3.6,1.2-5.3c1.1-1.8,2.8-2.6,4.9-2.8C79.3,81.5,79.6,81.5,79.9,81.5z M76.7,88.6c-0.1,0.9,0.1,1.7,0.4,2.5
		c0.5,1.2,1.5,1.7,2.8,1.7c1.2,0,2.2-0.6,2.7-1.7c0.7-1.6,0.7-3.3,0-4.9c-0.5-1.1-1.4-1.7-2.6-1.7c-1.2,0-2.2,0.4-2.8,1.6
		C76.8,86.9,76.6,87.8,76.7,88.6z"/>
	<path class="st0" d="M79.6,69.8c0,0.6,0,1.3,0,1.9c0,3.3-1.6,5-4.6,5.5c-1.3,0.2-2.7,0.3-4.1,0.1c-2-0.3-3.2-1.6-3.3-3.5
		c-0.2-2.1,0.8-3.7,2.8-4.4c1.2-0.4,2.4-0.5,3.6-0.6c0.5,0,0.9-0.1,1.3-0.3c0.4-0.2,0.7-0.5,0.7-1c0-0.5-0.2-1-0.7-1.2
		c-0.9-0.3-1.9-0.4-2.8-0.1c-0.3,0.1-0.5,0.2-0.6,0.5c-0.2,0.2-0.3,0.5-0.3,0.7c-0.1,0.4-0.3,0.5-0.7,0.5c-0.8,0-1.6,0-2.4,0
		c-0.4,0-0.4-0.1-0.4-0.4c0.1-1.9,1.3-3.4,3.2-3.9c2-0.5,4.1-0.4,6,0.3c1.6,0.6,2.2,1.8,2.2,3.4C79.6,68.1,79.6,68.9,79.6,69.8
		L79.6,69.8z M76,70.5c-0.4,0.1-0.8,0.3-1.2,0.4c-0.4,0.1-0.8,0.1-1.2,0.2c-0.5,0.1-1.1,0.2-1.6,0.4c-0.3,0.2-0.6,0.4-0.8,0.7
		c-0.2,0.3-0.2,0.7-0.2,1c0.1,0.8,0.5,1.2,1.3,1.4c0.4,0.1,0.8,0.1,1.2,0c0.4-0.1,0.8-0.3,1.1-0.5c0.3-0.2,0.6-0.6,0.8-0.9
		c0.2-0.4,0.3-0.8,0.4-1.2C76,71.6,76,71.1,76,70.5z"/>
	<path class="st0" d="M57.6,88.3c0,0.8,0,1.6,0,2.4c0,2.5-1.1,3.9-3.4,4.7c-1.8,0.6-3.7,0.6-5.5,0.3c-1.9-0.4-2.8-1.6-3-3.5
		c-0.2-1.9,0.7-3.4,2.3-4.1c1.3-0.6,2.8-0.6,4.2-0.9c0.4-0.1,0.9-0.1,1.3-0.3c0.4-0.2,0.7-0.5,0.6-1s-0.2-0.9-0.6-1.1
		c-0.5-0.2-1-0.3-1.5-0.3c-0.5,0-1,0.1-1.5,0.3c-0.5,0.2-0.8,0.7-0.9,1.2c-0.1,0.3-0.3,0.5-0.6,0.4c-0.8,0-1.6,0-2.4,0
		c-0.4,0-0.5-0.1-0.5-0.5c0.2-2,1.4-3.4,3.4-3.9c2-0.5,4-0.4,6,0.4c1.4,0.6,2,1.7,2,3.1C57.6,86.5,57.6,87.4,57.6,88.3L57.6,88.3z
		 M54,90c0-1,0-1-0.9-0.7c-0.4,0.1-0.7,0.2-1.1,0.2c-0.6,0.1-1.2,0.2-1.7,0.4c-0.9,0.3-1.3,1.1-1.1,2c0.2,0.8,0.9,1.3,1.8,1.2
		C53.1,93.2,54,92.2,54,90L54,90z"/>
	<path class="st0" d="M64.7,68.3c-0.1,0-0.3,0-0.4,0c-0.9,0.1-1.5,0-1.9-1.1c-0.5-1.4-3-1.5-4-0.2c-0.7,0.8-0.9,1.8-0.9,2.8
		c0,0.8,0,1.5,0.2,2.3c0.4,1.7,1.8,2.5,3.5,2.1c0.4-0.1,0.7-0.3,1-0.5c0.3-0.3,0.4-0.6,0.5-1c0.1-0.7,0.4-0.8,1-0.8
		c0.8,0,1.6,0,2.4,0c0.4,0,0.6,0.1,0.5,0.6c-0.5,2.7-2.7,4.6-5.5,4.8c-0.9,0.1-1.8,0-2.7-0.1c-2.4-0.5-4.1-2.1-4.6-4.8
		c-0.3-1.7-0.3-3.4,0.3-5.1c0.9-2.5,2.8-3.8,5.4-4.1c1.5-0.1,2.9,0,4.3,0.6c1.8,0.8,2.6,2.3,2.8,4.1c0,0.3-0.1,0.4-0.4,0.4
		C65.7,68.3,65.2,68.3,64.7,68.3z"/>
	<path class="st0" d="M45.2,73V70c0-4,2.6-6.7,6.6-6.8c1.2,0,1.2,0,1.2,1.1c0,0.7,0,1.4,0,2c0,0.4-0.1,0.5-0.5,0.4
		c-0.2,0-0.4,0-0.7,0c-1.9,0-3,1-3.1,2.9c-0.1,2.2,0,4.3,0,6.5c0,0.9,0,0.9-0.9,0.9c-0.7,0-1.4,0-2.2,0c-0.4,0-0.5-0.1-0.5-0.5
		C45.2,75.4,45.2,74.2,45.2,73L45.2,73z"/>
	<path class="st0" d="M38.5,48.1c0.4-0.2,0.7-0.1,1,0.1c1.7,1.3,3.7,1.9,5.7,2.6c0.8,0.3,1.6,0.3,2.3,0.6c1,0.3,2.1,0.6,3.1,0.7
		c1.4,0.1,2.7,0.4,4.1,0.5c2.4,0.2,4.8,0,7.2,0.1c0.3,0,0.7,0,1-0.1c0.2-0.1,0.4-0.1,0.4,0.2c-3,0.3-6,0.3-9,0
		c-3.9-0.3-7.8-1.1-11.5-2.6C41.4,49.7,39.9,49,38.5,48.1z"/>
	<path class="st0" d="M63.6,52.8c0.4-0.5,0.9-0.3,1.4-0.4c1.8-0.2,3.6-0.4,5.3-0.9c2-0.6,4.1-1,6.1-2c1.9-0.9,3.8-1.7,5.4-3.1
		c0.2-0.2,0.5-0.2,0.7-0.2c-2.2,1.8-4.8,3.1-7.4,4.1c-3.4,1.3-6.9,2.1-10.4,2.4C64.3,52.8,64,52.9,63.6,52.8z"/>
	<path class="st0" d="M30.1,40c0.4-0.1,0.6,0.1,0.7,0.5c0,0.5,0.3,0.8,0.7,1.1c0.6,0.6,1.1,1.2,1.6,1.8c0.9,1,1.8,1.9,2.8,2.6
		c0.4,0.3,0.8,0.7,1.3,0.9c0.2,0,0.5,0.3,0.3,0.6C34.4,45.6,31.8,43.2,30.1,40z"/>
	<path class="st0" d="M27.9,33.7c0.4,0.3,0.5,0.8,0.5,1.2c0.1,1.2,0.6,2.3,1.1,3.4c0.2,0.6,0.8,1,0.6,1.8
		C28.9,38.1,28.1,36,27.9,33.7z"/>
	<path class="st0" d="M29.6,23.4c0.1,0.6-0.3,1.2-0.6,1.7c-0.4,0.7-0.5,1.5-0.6,2.2c-0.1,0.4-0.2,0.7-0.5,0.8
		C28.1,26.4,28.7,24.8,29.6,23.4z"/>
	<path class="st0" d="M27.9,28.4c0.1,0.1,0.1,0.3,0.1,0.4c0,1.4-0.1,2.8,0,4.3c0,0.2,0,0.3-0.1,0.4C27.6,31.8,27.6,30.1,27.9,28.4z"
		/>
	<path class="st0" d="M38.4,14.9c-0.1,0.5-0.6,0.6-0.9,0.8C36.6,16.3,36,17,35,17.2C36,16.3,37.2,15.5,38.4,14.9z"/>
	<path class="st0" d="M34.2,17.8c0,0,0,0.1,0,0.1c-0.8,0.8-1.5,1.6-2.3,2.4c0,0-0.2,0-0.3,0C32.4,19.4,33.3,18.6,34.2,17.8z"/>
	<path class="st0" d="M30.6,21.8c0,0.3-0.1,0.7-0.3,0.9c-0.2,0.3-0.4,0.5-0.7,0.7C29.8,22.8,30.2,22.2,30.6,21.8z"/>
	<path class="st0" d="M31.7,20.4c-0.1,0.4,0.1,1-0.7,0.9C31.1,20.9,31.4,20.6,31.7,20.4z"/>
	<path class="st0" d="M37.5,47.6c0.4,0,0.9-0.2,0.8,0.5L37.5,47.6z"/>
	<path class="st0" d="M35,17.2c0,0.5-0.3,0.6-0.7,0.6C34.4,17.6,34.7,17.4,35,17.2z"/>
	<path class="st0" d="M31,21.2c0.1,0.3,0.1,0.6-0.4,0.5C30.6,21.6,30.8,21.4,31,21.2z"/>
	<path class="st1" d="M54.2,33.6l-0.3,0c-0.3-0.1-0.7-0.2-1.1,0c-0.4,0.1-0.7,0-0.9-0.3c-1.1-1.3-3.1-1.6-4.6-0.7h-0.3l-0.2-0.2l0,0
		c-1.1-1.1-2.8-1.1-4-0.1c-0.1,0-0.2,0-0.3,0c-2.9-1.8-6.2-2.7-9.4-3.6c-1.1-0.3-2.2-0.6-3.4-0.8c-0.5-0.1-0.5-0.3-0.4-0.7
		c0.7-2.7,2.2-5,4.2-7c0.2-0.2,0.5-0.5,0.7-0.8c0.4-0.4,0.9-0.7,1.3-1.1l0.3,0c0.2,0.1,0.4,0.2,0.6,0.3c2,0.7,3.9,1.4,5.9,1.9
		c2.7,0.8,5.5,1,8.2-0.1l0.3-0.1l0.1,0l0,0h0.5c-1,1.1-2,2.1-2.9,3.2c-0.8,0.9-0.7,1.8,0.4,2.4c1.8,0.9,3.6,1,5.4-0.2
		c1.3-0.9,2.5-1.8,3.7-2.7c0.5-0.4,1.1-0.6,1.6-0.8c1.2-0.4,2.3,0,3.2,0.6c1.8,1.2,3.4,2.7,5,4.1c2.5,2.1,4.9,4.2,7.3,6.3
		c0.9,0.8,1.1,1.8,0.5,2.5c-0.4,0.4-0.9,0.7-1.5,0.7c-0.6,0-1.1-0.2-1.5-0.5c-1.3-1.2-2.6-2.3-3.9-3.5c-0.2-0.1-0.3-0.3-0.5-0.4
		c-0.2-0.2-0.5-0.4-0.7-0.2c-0.3,0.3,0,0.6,0.2,0.8c1.2,1.2,2.4,2.4,3.6,3.6c1,1,1.1,1.8,0.3,2.6c-1,1-2.3,1-3.2,0.1
		c-0.9-0.9-1.8-1.7-2.7-2.5c-0.2-0.2-0.3-0.3-0.5-0.4c-0.2-0.1-0.5-0.3-0.7-0.1s0,0.5,0.1,0.7c0.9,1,1.7,1.9,2.6,2.9
		c0.8,0.8,0.8,1.3,0.2,1.9c-0.7,0.7-1.9,0.8-2.6,0.2c-0.9-0.8-1.7-1.6-2.5-2.4c-0.1-0.1-0.2-0.2-0.3-0.3c-0.2-0.1-0.4-0.3-0.6-0.1
		c-0.2,0.2-0.1,0.5,0.1,0.6c0.5,0.5,0.9,1,1.4,1.6c0.3,0.3,0.5,0.6,0.8,0.9c0.4,0.3,0.2,0.5-0.1,0.7c-0.8,0.4-2.8,0.3-3.4-0.3
		c-0.2-0.2,0-0.3,0-0.5c0.3-1.3,0.2-2.5-0.9-3.6c0-0.1,0-0.2-0.2-0.1c0,0,0,0,0,0c0,0,0,0,0,0c0,0,0,0,0,0c0,0,0,0,0,0h0
		c0,0,0-0.1,0.1-0.1c0,0,0,0,0-0.1c-0.3-0.3-0.7-0.6-1.1-0.7c-0.4-0.2-0.8-0.2-1.3-0.2l-0.2-0.1c0-1-0.1-1.9-0.9-2.6
		C55.4,34,54.8,33.8,54.2,33.6z"/>
	<path class="st1" d="M60.3,17.4c2.1,0,4.2,0.5,6.1,1.4c5.4,2.6,10.7,2.4,16.1,0c0.5-0.2,0.8-0.1,1.1,0.2c2.4,2.2,4.3,4.8,5.2,8
		c0.2,0.8,0.2,0.9-0.6,1c-4.1,1-8.1,2.3-12,3.9c-0.4,0.2-0.6,0-0.8-0.2c-3.3-2.9-6.6-5.7-10-8.5c-0.7-0.6-1.5-1.2-2.3-1.7
		c-1.8-1.2-3.5-1.1-5.3-0.1c-1.2,0.7-2.3,1.6-3.4,2.5c-0.9,0.6-1.7,1.3-2.9,1.3c-0.8,0-1.5,0-2.2-0.4c-0.3-0.2-0.4-0.4-0.1-0.7
		c1.3-1.4,2.6-2.8,4-4.1C55.4,18.2,57.5,17.5,60.3,17.4z"/>
	<path class="st1" d="M48.9,39.3l-0.5,0l-1-0.5l0,0l-0.5-0.5l0,0c-0.3-0.6-0.5-1.3-0.4-2c0-0.2,0.1-0.6-0.3-0.3
		c-1.5,0.8-2.1,0.7-3.1-0.5c0,0,0,0,0,0c0,0,0,0,0,0c0,0,0,0,0,0c0,0,0,0,0,0c-0.2-0.6-0.1-1.2,0.1-1.7l0,0v0l0.4-0.4l0,0l0.2-0.1
		l0,0c0.7-0.3,1.4-0.5,2-0.1c0.7,0.4,1,1,1,2l0.5-0.8c0,0,0,0,0,0c0,0,0,0,0,0c0,0,0,0,0.1,0c0,0,0,0,0-0.1l0,0l0.2-0.2h0l0.2-0.1
		l0,0c0.7-0.4,1.4-0.5,2.2-0.4h0c0,0,0.1,0.1,0.1,0.1c0,0,0.1,0,0.2,0l0.3,0.2l0.4,0.4c0.1,0.3,0.3,0.6,0.4,0.9
		c0.1,0.7,0.2,0.7,0.7,0.2c0.1-0.1,0.1-0.1,0.2-0.2c0.8-0.4,1.6-0.3,2.4,0.2c0.4,0.3,0.7,0.8,0.8,1.3c0.1,0.5,0,1-0.1,1.5l0,0.1
		c-0.3,0.5-0.1,0.7,0.4,0.5c0.4-0.1,0.8-0.3,1.2-0.2c0.6,0.1,1.2,0.3,1.6,0.8c0.4,0.4,0.6,1,0.7,1.6c0,1.2-1,2.3-2.1,2.4
		c-1.4,0.1-2.5-0.7-2.7-2c0-0.2,0.1-0.6-0.3-0.7c-0.3-0.1-0.5,0.2-0.6,0.4l0.1,0l-0.1,0c-0.9,0.5-1.7,0.2-2.4-0.2v0
		c-0.4-0.4-0.7-0.9-0.7-1.5c0-0.5-0.2-0.5-0.6-0.3C49.5,39,49.2,39.1,48.9,39.3z"/>
	<path class="st0" d="M50.5,20.4c-2.7,1.1-5.5,0.9-8.2,0.1c-2-0.6-4-1.2-5.9-1.9c-0.2-0.1-0.4-0.2-0.6-0.3c0.1-0.4,0.3-0.2,0.4-0.1
		c0.7,0.4,1.5,0.6,2.2,0.8c1.8,0.5,3.5,1.2,5.3,1.5c2,0.4,4,0.5,6-0.2C50,20.2,50.3,20.2,50.5,20.4z"/>
	<path class="st0" d="M53.5,40.9c0.2-0.2,0.4-0.5,0.6-0.4c0.3,0.1,0.2,0.4,0.2,0.7c0.3,1.3,1.3,2.1,2.7,2c1.2-0.1,2.2-1.2,2.1-2.4
		c0-0.6-0.2-1.2-0.7-1.6c-0.4-0.4-1-0.7-1.6-0.8c-0.4,0-0.8,0.1-1.2,0.2c-0.5,0.1-0.7,0-0.4-0.5c0.2,0.2,0.2,0.4,0.6,0.2
		c0.8-0.4,1.6-0.1,2.3,0.3c1.4,0.7,1.4,2.9,0.5,4c-0.8,1-2.5,1.1-3.7,0.4c-0.6-0.4-0.8-0.9-1-1.5C54.1,40.9,53.9,40.8,53.5,40.9z"/>
	<path class="st0" d="M47.3,32.6c1.5-1,3.5-0.7,4.6,0.7c0.3,0.4,0.5,0.5,0.9,0.3c0.4-0.1,0.7-0.1,1.1,0c-0.9,0.2-1.7,0.5-2.5-0.5
		c-0.8-0.9-2.1-1.2-3.4-0.7C47.8,32.5,47.6,32.8,47.3,32.6z"/>
	<path class="st0" d="M43,35.4c1,1.2,1.6,1.3,3.1,0.5c0.4-0.2,0.4,0.1,0.3,0.3c-0.1,0.7,0.1,1.4,0.4,2c-0.6-0.2-0.7-0.7-0.7-1.2
		c0-0.6-0.3-0.7-0.7-0.5c-0.8,0.3-1.4,0-2.1-0.3C42.9,36.1,43,35.7,43,35.4z"/>
	<path class="st0" d="M47.3,34.1l-0.5,0.8c-0.1-0.9-0.3-1.6-1-2c-0.7-0.4-1.4-0.3-2,0.1c0.2-0.5,0.7-0.5,1.1-0.5
		c0.8-0.1,1.4,0.3,1.8,1C46.7,33.8,46.9,34,47.3,34.1z"/>
	<path class="st0" d="M42.8,32.3c1.2-1.1,2.9-1,4,0.1c-0.1,0-0.2,0.1-0.3,0c-0.1,0-0.2-0.1-0.3-0.1c-1-0.8-1.9-0.7-2.9,0
		C43.2,32.4,43,32.3,42.8,32.3z"/>
	<path class="st0" d="M48.9,39.3c0.3-0.1,0.6-0.2,0.9-0.4c0.4-0.2,0.6-0.2,0.6,0.3c-0.1,0.6,0.3,1.1,0.7,1.5
		c-0.6,0.1-0.8-0.2-0.9-0.8c0-0.8,0-0.8-0.8-0.6C49.2,39.4,49.1,39.4,48.9,39.3z"/>
	<path class="st0" d="M55.4,37.9c0.1-0.5,0.2-1,0.1-1.5c-0.1-0.6-0.4-1-0.8-1.3c0.8-0.1,0.8,0.5,1,1c0.2,0.5,0.1,1.1,0.1,1.6
		C55.7,37.8,55.6,37.9,55.4,37.9z"/>
	<path class="st0" d="M55.8,34.5c0.8,0.7,0.9,1.6,0.9,2.6c-0.1,0-0.2-0.1-0.2-0.3c0.1-0.8-0.2-1.4-0.6-2.1
		C55.7,34.7,55.8,34.6,55.8,34.5z"/>
	<path class="st0" d="M56.8,37.2c0.4,0,0.9,0,1.3,0.2c0.4,0.2,0.8,0.4,1.1,0.7c-0.1,0.1-0.2,0.2-0.3,0.1c-0.5-0.5-1.1-0.7-1.8-0.8
		C57,37.4,56.9,37.4,56.8,37.2z"/>
	<path class="st0" d="M54.7,35.1c-0.8-0.4-1.5-0.5-2.4-0.2C52.9,34.1,54.2,34.2,54.7,35.1z"/>
	<path class="st0" d="M51,40.6c0.8,0.4,1.6,0.8,2.4,0.2c0,0.1,0,0.2,0,0.2c0,0.1-0.1,0.1-0.2,0.2c-0.4,0.2-1.9,0-2.2-0.3
		C51.1,40.9,51.1,40.7,51,40.6z"/>
	<path class="st0" d="M50,33.2c-0.8-0.1-1.5,0-2.2,0.4C48.1,32.9,49.5,32.7,50,33.2z"/>
	<path class="st0" d="M54.2,33.6c0.6,0.1,1.2,0.4,1.6,0.9C55.1,34.4,54.6,34.2,54.2,33.6z"/>
	<path class="st0" d="M43.1,33.6c-0.2,0.5-0.3,1.1-0.1,1.7C42.4,34.7,42.5,34,43.1,33.6z"/>
	<path class="st0" d="M35.5,18.2c-0.4,0.4-0.9,0.7-1.3,1.1C34.3,18.8,34.9,18.3,35.5,18.2z"/>
	<path class="st0" d="M47.4,38.8l1,0.5C47.9,39.4,47.5,39.3,47.4,38.8z"/>
	<path class="st0" d="M46.9,38.3l0.5,0.5C46.9,38.9,46.7,38.7,46.9,38.3z"/>
	<path class="st0" d="M51,33.9l-0.4-0.4C50.9,33.4,51,33.5,51,33.9z"/>
	<path class="st0" d="M43.5,33.1l-0.4,0.4C43.1,33.3,43.2,33.1,43.5,33.1z"/>
	<path class="st0" d="M46.9,32.4l0.2,0.2L47,32.7c-0.1,0-0.1-0.1-0.1-0.1C46.9,32.5,46.9,32.4,46.9,32.4z"/>
	<path class="st0" d="M47.6,33.7l-0.2,0.2C47.4,33.8,47.5,33.7,47.6,33.7z"/>
	<path class="st0" d="M50.2,33.3c-0.1,0-0.1,0-0.2,0c0,0-0.1-0.1-0.1-0.1c0.1,0,0.1,0,0.2,0C50.2,33.3,50.2,33.3,50.2,33.3z"/>
	<path class="st0" d="M59.1,38.3L59.1,38.3C59.1,38.4,59.1,38.4,59.1,38.3z"/>
	<path class="st0" d="M47.8,33.6l-0.2,0.1L47.8,33.6z"/>
	<path class="st0" d="M47.4,34C47.4,34,47.4,34,47.4,34C47.3,34,47.3,34,47.4,34C47.3,33.9,47.3,33.9,47.4,34z"/>
	<path class="st0" d="M43.7,33l-0.2,0.1L43.7,33z"/>
	<path class="st0" d="M50.9,20.2L50.9,20.2l-0.1,0C50.8,20.3,50.9,20.2,50.9,20.2z"/>
	<path class="st0" d="M59.2,38.2c0.1-0.1,0.1,0,0.2,0.1L59.2,38.2z"/>
</g>
</svg>
